<?xml version="1.0" encoding="utf-8" standalone="no"?>
<!DOCTYPE svg PUBLIC "-//W3C//DTD SVG 1.1//EN"
  "http://www.w3.org/Graphics/SVG/1.1/DTD/svg11.dtd">
<svg height="561.6pt" version="1.1" viewBox="0 0 705.6 561.6" width="705.6pt" xmlns="http://www.w3.org/2000/svg" xmlns:xlink="http://www.w3.org/1999/xlink">
 <metadata>
  <rdf:RDF xmlns:cc="http://creativecommons.org/ns#" xmlns:dc="http://purl.org/dc/elements/1.1/" xmlns:rdf="http://www.w3.org/1999/02/22-rdf-syntax-ns#">
   <cc:Work>
    <dc:type rdf:resource="http://purl.org/dc/dcmitype/StillImage"/>
    <dc:date>2022-09-30T15:36:03.081095</dc:date>
    <dc:format>image/svg+xml</dc:format>
    <dc:creator>
     <cc:Agent>
      <dc:title>Matplotlib v3.4.1, https://matplotlib.org/</dc:title>
     </cc:Agent>
    </dc:creator>
   </cc:Work>
  </rdf:RDF>
 </metadata>
 <defs>
  <style type="text/css">*{stroke-linecap:butt;stroke-linejoin:round;}</style>
 </defs>
 <g id="figure_1">
  <g id="patch_1">
   <path d="M 0 561.6 
L 705.6 561.6 
L 705.6 0 
L 0 0 
z
" style="fill:#ffffff;"/>
  </g>
  <g id="axes_1">
   <g id="patch_2">
    <path d="M 88.2 499.824 
L 635.04 499.824 
L 635.04 67.392 
L 88.2 67.392 
z
" style="fill:#ffffff;"/>
   </g>
   <g id="matplotlib.axis_1">
    <g id="xtick_1">
     <g id="line2d_1">
      <path clip-path="url(#pe058ceef9b)" d="M 184.074545 499.824 
L 184.074545 67.392 
" style="fill:none;stroke:#b0b0b0;stroke-dasharray:0.8,1.32;stroke-dashoffset:0;stroke-opacity:0.4;stroke-width:0.8;"/>
     </g>
     <g id="line2d_2">
      <defs>
       <path d="M 0 0 
L 0 3.5 
" id="mebf3055ade" style="stroke:#000000;stroke-width:0.8;"/>
      </defs>
      <g>
       <use style="stroke:#000000;stroke-width:0.8;" x="184.074545" xlink:href="#mebf3055ade" y="499.824"/>
      </g>
     </g>
     <g id="text_1">
      <!-- 5 -->
      <g transform="translate(181.54017 513.625563)scale(0.1 -0.1)">
       <defs>
        <path d="M 2869 1300 
Q 2869 975 2759 722 
Q 2650 469 2450 295 
Q 2250 122 1973 31 
Q 1697 -59 1359 -59 
Q 1172 -59 1003 -32 
Q 834 -6 703 33 
Q 572 72 487 109 
Q 403 147 379 169 
Q 356 191 347 209 
Q 338 228 330 254 
Q 322 281 319 322 
Q 316 363 316 419 
Q 316 472 320 514 
Q 325 556 337 582 
Q 350 609 367 621 
Q 384 634 406 634 
Q 438 634 503 595 
Q 569 556 680 511 
Q 791 466 955 425 
Q 1119 384 1344 384 
Q 1553 384 1728 434 
Q 1903 484 2029 590 
Q 2156 697 2228 858 
Q 2300 1019 2300 1250 
Q 2300 1444 2239 1592 
Q 2178 1741 2051 1839 
Q 1925 1938 1731 1986 
Q 1538 2034 1269 2034 
Q 1078 2034 940 2015 
Q 803 1997 684 1997 
Q 597 1997 559 2037 
Q 522 2078 522 2194 
L 522 3841 
Q 522 3944 570 3994 
Q 619 4044 709 4044 
L 2500 4044 
Q 2525 4044 2548 4030 
Q 2572 4016 2587 3987 
Q 2603 3959 2611 3915 
Q 2619 3872 2619 3813 
Q 2619 3700 2587 3637 
Q 2556 3575 2500 3575 
L 991 3575 
L 991 2441 
Q 1100 2456 1214 2459 
Q 1328 2463 1478 2463 
Q 1825 2463 2084 2380 
Q 2344 2297 2517 2145 
Q 2691 1994 2780 1778 
Q 2869 1563 2869 1300 
z
" id="Calibri-35" transform="scale(0.015625)"/>
       </defs>
       <use xlink:href="#Calibri-35"/>
      </g>
     </g>
    </g>
    <g id="xtick_2">
     <g id="line2d_3">
      <path clip-path="url(#pe058ceef9b)" d="M 302.438182 499.824 
L 302.438182 67.392 
" style="fill:none;stroke:#b0b0b0;stroke-dasharray:0.8,1.32;stroke-dashoffset:0;stroke-opacity:0.4;stroke-width:0.8;"/>
     </g>
     <g id="line2d_4">
      <g>
       <use style="stroke:#000000;stroke-width:0.8;" x="302.438182" xlink:href="#mebf3055ade" y="499.824"/>
      </g>
     </g>
     <g id="text_2">
      <!-- 10 -->
      <g transform="translate(297.369432 513.625563)scale(0.1 -0.1)">
       <defs>
        <path d="M 2897 213 
Q 2897 153 2887 112 
Q 2878 72 2862 47 
Q 2847 22 2826 11 
Q 2806 0 2784 0 
L 672 0 
Q 650 0 631 11 
Q 613 22 595 47 
Q 578 72 568 112 
Q 559 153 559 213 
Q 559 269 568 309 
Q 578 350 592 376 
Q 606 403 626 417 
Q 647 431 672 431 
L 1516 431 
L 1516 3506 
L 734 3041 
Q 675 3009 639 3003 
Q 603 2997 581 3017 
Q 559 3038 551 3084 
Q 544 3131 544 3203 
Q 544 3256 548 3293 
Q 553 3331 562 3356 
Q 572 3381 589 3400 
Q 606 3419 634 3438 
L 1566 4034 
Q 1578 4044 1597 4050 
Q 1616 4056 1644 4062 
Q 1672 4069 1709 4070 
Q 1747 4072 1803 4072 
Q 1878 4072 1928 4065 
Q 1978 4059 2006 4048 
Q 2034 4038 2043 4020 
Q 2053 4003 2053 3984 
L 2053 431 
L 2784 431 
Q 2809 431 2831 417 
Q 2853 403 2867 376 
Q 2881 350 2889 309 
Q 2897 269 2897 213 
z
" id="Calibri-31" transform="scale(0.015625)"/>
        <path d="M 3022 2031 
Q 3022 1566 2948 1181 
Q 2875 797 2704 520 
Q 2534 244 2259 92 
Q 1984 -59 1581 -59 
Q 1200 -59 939 77 
Q 678 213 518 477 
Q 359 741 292 1127 
Q 225 1513 225 2013 
Q 225 2475 300 2861 
Q 375 3247 544 3523 
Q 713 3800 988 3951 
Q 1263 4103 1663 4103 
Q 2047 4103 2308 3967 
Q 2569 3831 2728 3567 
Q 2888 3303 2955 2917 
Q 3022 2531 3022 2031 
z
M 2472 1994 
Q 2472 2297 2450 2537 
Q 2428 2778 2386 2962 
Q 2344 3147 2276 3280 
Q 2209 3413 2115 3498 
Q 2022 3584 1901 3623 
Q 1781 3663 1631 3663 
Q 1366 3663 1200 3538 
Q 1034 3413 939 3194 
Q 844 2975 809 2681 
Q 775 2388 775 2050 
Q 775 1597 822 1280 
Q 869 963 970 763 
Q 1072 563 1230 472 
Q 1388 381 1613 381 
Q 1788 381 1920 437 
Q 2053 494 2148 598 
Q 2244 703 2306 850 
Q 2369 997 2406 1175 
Q 2444 1353 2458 1561 
Q 2472 1769 2472 1994 
z
" id="Calibri-30" transform="scale(0.015625)"/>
       </defs>
       <use xlink:href="#Calibri-31"/>
       <use x="50.683594" xlink:href="#Calibri-30"/>
      </g>
     </g>
    </g>
    <g id="xtick_3">
     <g id="line2d_5">
      <path clip-path="url(#pe058ceef9b)" d="M 420.801818 499.824 
L 420.801818 67.392 
" style="fill:none;stroke:#b0b0b0;stroke-dasharray:0.8,1.32;stroke-dashoffset:0;stroke-opacity:0.4;stroke-width:0.8;"/>
     </g>
     <g id="line2d_6">
      <g>
       <use style="stroke:#000000;stroke-width:0.8;" x="420.801818" xlink:href="#mebf3055ade" y="499.824"/>
      </g>
     </g>
     <g id="text_3">
      <!-- 15 -->
      <g transform="translate(415.733068 513.625563)scale(0.1 -0.1)">
       <use xlink:href="#Calibri-31"/>
       <use x="50.683594" xlink:href="#Calibri-35"/>
      </g>
     </g>
    </g>
    <g id="xtick_4">
     <g id="line2d_7">
      <path clip-path="url(#pe058ceef9b)" d="M 539.165455 499.824 
L 539.165455 67.392 
" style="fill:none;stroke:#b0b0b0;stroke-dasharray:0.8,1.32;stroke-dashoffset:0;stroke-opacity:0.4;stroke-width:0.8;"/>
     </g>
     <g id="line2d_8">
      <g>
       <use style="stroke:#000000;stroke-width:0.8;" x="539.165455" xlink:href="#mebf3055ade" y="499.824"/>
      </g>
     </g>
     <g id="text_4">
      <!-- 20 -->
      <g transform="translate(534.096705 513.625563)scale(0.1 -0.1)">
       <defs>
        <path d="M 2888 231 
Q 2888 175 2880 131 
Q 2872 88 2858 58 
Q 2844 28 2820 14 
Q 2797 0 2769 0 
L 534 0 
Q 491 0 458 11 
Q 425 22 401 47 
Q 378 72 367 119 
Q 356 166 356 234 
Q 356 297 361 344 
Q 366 391 381 427 
Q 397 463 420 498 
Q 444 534 481 575 
L 1266 1406 
Q 1538 1694 1702 1922 
Q 1866 2150 1955 2337 
Q 2044 2525 2072 2678 
Q 2100 2831 2100 2966 
Q 2100 3100 2056 3220 
Q 2013 3341 1930 3431 
Q 1847 3522 1722 3575 
Q 1597 3628 1434 3628 
Q 1244 3628 1092 3575 
Q 941 3522 827 3459 
Q 713 3397 636 3344 
Q 559 3291 522 3291 
Q 500 3291 483 3303 
Q 466 3316 455 3344 
Q 444 3372 437 3419 
Q 431 3466 431 3531 
Q 431 3578 434 3612 
Q 438 3647 445 3672 
Q 453 3697 465 3719 
Q 478 3741 515 3773 
Q 553 3806 645 3862 
Q 738 3919 877 3973 
Q 1016 4028 1183 4065 
Q 1350 4103 1534 4103 
Q 1828 4103 2048 4020 
Q 2269 3938 2414 3794 
Q 2559 3650 2631 3459 
Q 2703 3269 2703 3053 
Q 2703 2859 2668 2667 
Q 2634 2475 2523 2251 
Q 2413 2028 2203 1754 
Q 1994 1481 1647 1125 
L 1006 456 
L 2766 456 
Q 2791 456 2814 442 
Q 2838 428 2855 400 
Q 2872 372 2880 330 
Q 2888 288 2888 231 
z
" id="Calibri-32" transform="scale(0.015625)"/>
       </defs>
       <use xlink:href="#Calibri-32"/>
       <use x="50.683594" xlink:href="#Calibri-30"/>
      </g>
     </g>
    </g>
    <g id="text_5">
     <!-- $B_{I(col)}$ (bits) -->
     <g transform="translate(325.77 530.353687)scale(0.15 -0.15)">
      <defs>
       <path d="M 1081 4666 
L 2694 4666 
Q 3350 4666 3675 4422 
Q 4000 4178 4000 3688 
Q 4000 3238 3720 2911 
Q 3441 2584 2988 2516 
Q 3375 2428 3569 2181 
Q 3763 1934 3763 1522 
Q 3763 819 3242 409 
Q 2722 0 1819 0 
L 172 0 
L 1081 4666 
z
M 1234 2228 
L 903 519 
L 1919 519 
Q 2491 519 2800 781 
Q 3109 1044 3109 1522 
Q 3109 1891 2904 2059 
Q 2700 2228 2247 2228 
L 1234 2228 
z
M 1606 4147 
L 1331 2741 
L 2272 2741 
Q 2775 2741 3058 2959 
Q 3341 3178 3341 3566 
Q 3341 3869 3150 4008 
Q 2959 4147 2541 4147 
L 1606 4147 
z
" id="DejaVuSans-Oblique-42" transform="scale(0.015625)"/>
       <path d="M 1081 4666 
L 1716 4666 
L 806 0 
L 172 0 
L 1081 4666 
z
" id="DejaVuSans-Oblique-49" transform="scale(0.015625)"/>
       <path d="M 1984 4856 
Q 1566 4138 1362 3434 
Q 1159 2731 1159 2009 
Q 1159 1288 1364 580 
Q 1569 -128 1984 -844 
L 1484 -844 
Q 1016 -109 783 600 
Q 550 1309 550 2009 
Q 550 2706 781 3412 
Q 1013 4119 1484 4856 
L 1984 4856 
z
" id="DejaVuSans-28" transform="scale(0.015625)"/>
       <path d="M 3431 3366 
L 3316 2797 
Q 3109 2947 2876 3022 
Q 2644 3097 2394 3097 
Q 2119 3097 1870 3000 
Q 1622 2903 1453 2725 
Q 1184 2453 1037 2087 
Q 891 1722 891 1331 
Q 891 859 1127 628 
Q 1363 397 1844 397 
Q 2081 397 2348 469 
Q 2616 541 2906 684 
L 2797 116 
Q 2547 13 2283 -39 
Q 2019 -91 1741 -91 
Q 1044 -91 669 257 
Q 294 606 294 1253 
Q 294 1797 489 2255 
Q 684 2713 1069 3078 
Q 1331 3328 1684 3456 
Q 2038 3584 2456 3584 
Q 2700 3584 2940 3529 
Q 3181 3475 3431 3366 
z
" id="DejaVuSans-Oblique-63" transform="scale(0.015625)"/>
       <path d="M 1625 -91 
Q 1009 -91 651 289 
Q 294 669 294 1325 
Q 294 1706 417 2101 
Q 541 2497 738 2766 
Q 1047 3184 1428 3384 
Q 1809 3584 2291 3584 
Q 2888 3584 3255 3212 
Q 3622 2841 3622 2241 
Q 3622 1825 3500 1412 
Q 3378 1000 3181 728 
Q 2875 309 2494 109 
Q 2113 -91 1625 -91 
z
M 891 1344 
Q 891 869 1089 633 
Q 1288 397 1691 397 
Q 2269 397 2648 901 
Q 3028 1406 3028 2181 
Q 3028 2634 2825 2865 
Q 2622 3097 2228 3097 
Q 1903 3097 1650 2945 
Q 1397 2794 1197 2484 
Q 1050 2253 970 1956 
Q 891 1659 891 1344 
z
" id="DejaVuSans-Oblique-6f" transform="scale(0.015625)"/>
       <path d="M 1172 4863 
L 1747 4863 
L 800 0 
L 225 0 
L 1172 4863 
z
" id="DejaVuSans-Oblique-6c" transform="scale(0.015625)"/>
       <path d="M 513 4856 
L 1013 4856 
Q 1481 4119 1714 3412 
Q 1947 2706 1947 2009 
Q 1947 1309 1714 600 
Q 1481 -109 1013 -844 
L 513 -844 
Q 928 -128 1133 580 
Q 1338 1288 1338 2009 
Q 1338 2731 1133 3434 
Q 928 4138 513 4856 
z
" id="DejaVuSans-29" transform="scale(0.015625)"/>
       <path id="Calibri-20" transform="scale(0.015625)"/>
       <path d="M 1547 4306 
Q 1250 3678 1104 3017 
Q 959 2356 959 1688 
Q 959 1016 1107 356 
Q 1256 -303 1541 -938 
Q 1556 -975 1557 -1001 
Q 1559 -1028 1537 -1045 
Q 1516 -1063 1470 -1070 
Q 1425 -1078 1347 -1078 
Q 1291 -1078 1250 -1075 
Q 1209 -1072 1179 -1062 
Q 1150 -1053 1131 -1040 
Q 1113 -1028 1103 -1013 
Q 934 -694 806 -367 
Q 678 -41 590 296 
Q 503 634 459 979 
Q 416 1325 416 1678 
Q 416 2031 464 2375 
Q 513 2719 602 3058 
Q 691 3397 819 3725 
Q 947 4053 1106 4375 
Q 1109 4388 1123 4397 
Q 1138 4406 1163 4415 
Q 1188 4425 1231 4429 
Q 1275 4434 1344 4434 
Q 1416 4434 1459 4425 
Q 1503 4416 1528 4400 
Q 1553 4384 1556 4359 
Q 1559 4334 1547 4306 
z
" id="Calibri-28" transform="scale(0.015625)"/>
       <path d="M 3066 1522 
Q 3066 1156 2986 864 
Q 2906 572 2751 365 
Q 2597 159 2372 50 
Q 2147 -59 1856 -59 
Q 1722 -59 1608 -32 
Q 1494 -6 1384 53 
Q 1275 113 1165 203 
Q 1056 294 934 422 
L 934 78 
Q 934 53 921 34 
Q 909 16 881 5 
Q 853 -6 811 -12 
Q 769 -19 703 -19 
Q 641 -19 597 -12 
Q 553 -6 525 5 
Q 497 16 487 34 
Q 478 53 478 78 
L 478 4253 
Q 478 4278 489 4297 
Q 500 4316 529 4328 
Q 559 4341 609 4347 
Q 659 4353 734 4353 
Q 813 4353 863 4347 
Q 913 4341 941 4328 
Q 969 4316 981 4297 
Q 994 4278 994 4253 
L 994 2569 
Q 1119 2697 1236 2784 
Q 1353 2872 1465 2926 
Q 1578 2981 1690 3006 
Q 1803 3031 1928 3031 
Q 2234 3031 2451 2909 
Q 2669 2788 2805 2583 
Q 2941 2378 3003 2103 
Q 3066 1828 3066 1522 
z
M 2522 1463 
Q 2522 1678 2489 1881 
Q 2456 2084 2375 2240 
Q 2294 2397 2159 2492 
Q 2025 2588 1825 2588 
Q 1725 2588 1628 2559 
Q 1531 2531 1431 2465 
Q 1331 2400 1223 2297 
Q 1116 2194 994 2038 
L 994 916 
Q 1206 656 1400 520 
Q 1594 384 1803 384 
Q 1997 384 2134 478 
Q 2272 572 2358 726 
Q 2444 881 2483 1073 
Q 2522 1266 2522 1463 
z
" id="Calibri-62" transform="scale(0.015625)"/>
       <path d="M 994 78 
Q 994 53 981 36 
Q 969 19 941 6 
Q 913 -6 863 -12 
Q 813 -19 734 -19 
Q 659 -19 609 -12 
Q 559 -6 529 6 
Q 500 19 489 36 
Q 478 53 478 78 
L 478 2891 
Q 478 2913 489 2931 
Q 500 2950 529 2962 
Q 559 2975 609 2981 
Q 659 2988 734 2988 
Q 813 2988 863 2981 
Q 913 2975 941 2962 
Q 969 2950 981 2931 
Q 994 2913 994 2891 
L 994 78 
z
M 1053 3841 
Q 1053 3659 984 3593 
Q 916 3528 731 3528 
Q 550 3528 483 3592 
Q 416 3656 416 3834 
Q 416 4016 484 4081 
Q 553 4147 738 4147 
Q 919 4147 986 4083 
Q 1053 4019 1053 3841 
z
" id="Calibri-69" transform="scale(0.015625)"/>
       <path d="M 1941 284 
Q 1941 194 1928 141 
Q 1916 88 1891 63 
Q 1866 38 1816 16 
Q 1766 -6 1702 -20 
Q 1638 -34 1566 -43 
Q 1494 -53 1422 -53 
Q 1203 -53 1047 5 
Q 891 63 791 180 
Q 691 297 645 476 
Q 600 656 600 900 
L 600 2544 
L 206 2544 
Q 159 2544 131 2594 
Q 103 2644 103 2756 
Q 103 2816 111 2856 
Q 119 2897 131 2923 
Q 144 2950 164 2961 
Q 184 2972 209 2972 
L 600 2972 
L 600 3641 
Q 600 3663 611 3681 
Q 622 3700 651 3714 
Q 681 3728 731 3734 
Q 781 3741 856 3741 
Q 934 3741 984 3734 
Q 1034 3728 1062 3714 
Q 1091 3700 1103 3681 
Q 1116 3663 1116 3641 
L 1116 2972 
L 1838 2972 
Q 1863 2972 1881 2961 
Q 1900 2950 1914 2923 
Q 1928 2897 1934 2856 
Q 1941 2816 1941 2756 
Q 1941 2644 1912 2594 
Q 1884 2544 1838 2544 
L 1116 2544 
L 1116 975 
Q 1116 684 1202 536 
Q 1288 388 1509 388 
Q 1581 388 1637 402 
Q 1694 416 1737 431 
Q 1781 447 1812 461 
Q 1844 475 1869 475 
Q 1884 475 1898 467 
Q 1913 459 1920 437 
Q 1928 416 1934 378 
Q 1941 341 1941 284 
z
" id="Calibri-74" transform="scale(0.015625)"/>
       <path d="M 2244 844 
Q 2244 628 2164 459 
Q 2084 291 1937 175 
Q 1791 59 1587 0 
Q 1384 -59 1141 -59 
Q 991 -59 855 -36 
Q 719 -13 611 23 
Q 503 59 428 98 
Q 353 138 318 169 
Q 284 200 268 256 
Q 253 313 253 409 
Q 253 469 259 509 
Q 266 550 275 575 
Q 284 600 301 611 
Q 319 622 341 622 
Q 375 622 442 580 
Q 509 538 607 488 
Q 706 438 840 395 
Q 975 353 1150 353 
Q 1281 353 1387 381 
Q 1494 409 1572 464 
Q 1650 519 1692 603 
Q 1734 688 1734 803 
Q 1734 922 1673 1003 
Q 1613 1084 1513 1146 
Q 1413 1209 1288 1257 
Q 1163 1306 1030 1359 
Q 897 1413 770 1480 
Q 644 1547 544 1644 
Q 444 1741 383 1875 
Q 322 2009 322 2197 
Q 322 2363 386 2514 
Q 450 2666 578 2780 
Q 706 2894 898 2962 
Q 1091 3031 1347 3031 
Q 1459 3031 1571 3012 
Q 1684 2994 1775 2966 
Q 1866 2938 1930 2905 
Q 1994 2872 2026 2847 
Q 2059 2822 2070 2803 
Q 2081 2784 2086 2761 
Q 2091 2738 2095 2703 
Q 2100 2669 2100 2619 
Q 2100 2566 2095 2527 
Q 2091 2488 2080 2463 
Q 2069 2438 2053 2427 
Q 2038 2416 2019 2416 
Q 1991 2416 1937 2450 
Q 1884 2484 1800 2523 
Q 1716 2563 1602 2597 
Q 1488 2631 1341 2631 
Q 1209 2631 1109 2601 
Q 1009 2572 945 2517 
Q 881 2463 848 2388 
Q 816 2313 816 2225 
Q 816 2103 878 2020 
Q 941 1938 1041 1875 
Q 1141 1813 1269 1763 
Q 1397 1713 1530 1659 
Q 1663 1606 1792 1540 
Q 1922 1475 2022 1381 
Q 2122 1288 2183 1156 
Q 2244 1025 2244 844 
z
" id="Calibri-73" transform="scale(0.015625)"/>
       <path d="M 1522 1678 
Q 1522 1325 1478 979 
Q 1434 634 1346 296 
Q 1259 -41 1132 -367 
Q 1006 -694 838 -1013 
Q 828 -1028 809 -1040 
Q 791 -1053 761 -1062 
Q 731 -1072 690 -1075 
Q 650 -1078 594 -1078 
Q 513 -1078 467 -1070 
Q 422 -1063 401 -1045 
Q 381 -1028 382 -1001 
Q 384 -975 400 -938 
Q 688 -306 834 355 
Q 981 1016 981 1688 
Q 981 2356 834 3017 
Q 688 3678 394 4306 
Q 381 4334 384 4359 
Q 388 4384 413 4400 
Q 438 4416 481 4425 
Q 525 4434 597 4434 
Q 663 4434 706 4429 
Q 750 4425 776 4415 
Q 803 4406 815 4397 
Q 828 4388 834 4375 
Q 1156 3734 1339 3057 
Q 1522 2381 1522 1678 
z
" id="Calibri-29" transform="scale(0.015625)"/>
      </defs>
      <use transform="translate(0 0.09375)" xlink:href="#DejaVuSans-Oblique-42"/>
      <use transform="translate(68.603516 -16.3125)scale(0.7)" xlink:href="#DejaVuSans-Oblique-49"/>
      <use transform="translate(89.248047 -16.3125)scale(0.7)" xlink:href="#DejaVuSans-28"/>
      <use transform="translate(116.557617 -16.3125)scale(0.7)" xlink:href="#DejaVuSans-Oblique-63"/>
      <use transform="translate(155.043945 -16.3125)scale(0.7)" xlink:href="#DejaVuSans-Oblique-6f"/>
      <use transform="translate(197.871094 -16.3125)scale(0.7)" xlink:href="#DejaVuSans-Oblique-6c"/>
      <use transform="translate(217.319336 -16.3125)scale(0.7)" xlink:href="#DejaVuSans-29"/>
      <use transform="translate(247.363281 0.09375)" xlink:href="#Calibri-20"/>
      <use transform="translate(268.845703 0.09375)" xlink:href="#Calibri-28"/>
      <use transform="translate(299.167969 0.09375)" xlink:href="#Calibri-62"/>
      <use transform="translate(351.707031 0.09375)" xlink:href="#Calibri-69"/>
      <use transform="translate(374.65625 0.09375)" xlink:href="#Calibri-74"/>
      <use transform="translate(408.152344 0.09375)" xlink:href="#Calibri-73"/>
      <use transform="translate(447.263672 0.09375)" xlink:href="#Calibri-29"/>
     </g>
    </g>
   </g>
   <g id="matplotlib.axis_2">
    <g id="ytick_1">
     <g id="line2d_9">
      <path clip-path="url(#pe058ceef9b)" d="M 88.2 378.362613 
L 635.04 378.362613 
" style="fill:none;stroke:#b0b0b0;stroke-dasharray:0.8,1.32;stroke-dashoffset:0;stroke-opacity:0.4;stroke-width:0.8;"/>
     </g>
     <g id="line2d_10">
      <defs>
       <path d="M 0 0 
L -3.5 0 
" id="m4264fd4ce9" style="stroke:#000000;stroke-width:0.8;"/>
      </defs>
      <g>
       <use style="stroke:#000000;stroke-width:0.8;" x="88.2" xlink:href="#m4264fd4ce9" y="378.362613"/>
      </g>
     </g>
     <g id="text_6">
      <!-- $\mathdefault{10^{2}}$ -->
      <g transform="translate(67.2 381.763394)scale(0.1 -0.1)">
       <use transform="translate(0 0.442188)" xlink:href="#Calibri-31"/>
       <use transform="translate(50.683594 0.442188)" xlink:href="#Calibri-30"/>
       <use transform="translate(102.184219 33.123438)scale(0.7)" xlink:href="#Calibri-32"/>
      </g>
     </g>
    </g>
    <g id="ytick_2">
     <g id="line2d_11">
      <path clip-path="url(#pe058ceef9b)" d="M 88.2 251.319139 
L 635.04 251.319139 
" style="fill:none;stroke:#b0b0b0;stroke-dasharray:0.8,1.32;stroke-dashoffset:0;stroke-opacity:0.4;stroke-width:0.8;"/>
     </g>
     <g id="line2d_12">
      <g>
       <use style="stroke:#000000;stroke-width:0.8;" x="88.2" xlink:href="#m4264fd4ce9" y="251.319139"/>
      </g>
     </g>
     <g id="text_7">
      <!-- $\mathdefault{10^{3}}$ -->
      <g transform="translate(67.2 254.71992)scale(0.1 -0.1)">
       <defs>
        <path d="M 2856 1156 
Q 2856 878 2759 654 
Q 2663 431 2481 272 
Q 2300 113 2034 27 
Q 1769 -59 1434 -59 
Q 1231 -59 1054 -26 
Q 878 6 740 51 
Q 603 97 512 145 
Q 422 194 398 216 
Q 375 238 362 259 
Q 350 281 340 312 
Q 331 344 326 389 
Q 322 434 322 500 
Q 322 613 344 656 
Q 366 700 406 700 
Q 434 700 517 650 
Q 600 600 729 542 
Q 859 484 1032 434 
Q 1206 384 1419 384 
Q 1625 384 1781 437 
Q 1938 491 2044 587 
Q 2150 684 2203 817 
Q 2256 950 2256 1106 
Q 2256 1278 2189 1415 
Q 2122 1553 1992 1653 
Q 1863 1753 1673 1806 
Q 1484 1859 1244 1859 
L 859 1859 
Q 834 1859 811 1870 
Q 788 1881 770 1906 
Q 753 1931 742 1972 
Q 731 2013 731 2078 
Q 731 2138 740 2177 
Q 750 2216 767 2239 
Q 784 2263 806 2273 
Q 828 2284 856 2284 
L 1209 2284 
Q 1416 2284 1580 2337 
Q 1744 2391 1858 2491 
Q 1972 2591 2033 2730 
Q 2094 2869 2094 3041 
Q 2094 3166 2053 3280 
Q 2013 3394 1931 3478 
Q 1850 3563 1723 3611 
Q 1597 3659 1431 3659 
Q 1250 3659 1098 3604 
Q 947 3550 828 3487 
Q 709 3425 631 3370 
Q 553 3316 522 3316 
Q 500 3316 483 3323 
Q 466 3331 455 3354 
Q 444 3378 439 3420 
Q 434 3463 434 3531 
Q 434 3578 437 3614 
Q 441 3650 450 3676 
Q 459 3703 471 3725 
Q 484 3747 514 3776 
Q 544 3806 634 3862 
Q 725 3919 858 3973 
Q 991 4028 1164 4065 
Q 1338 4103 1538 4103 
Q 1819 4103 2031 4031 
Q 2244 3959 2386 3828 
Q 2528 3697 2598 3514 
Q 2669 3331 2669 3109 
Q 2669 2919 2619 2755 
Q 2569 2591 2472 2464 
Q 2375 2338 2234 2248 
Q 2094 2159 1909 2125 
L 1909 2119 
Q 2119 2097 2292 2014 
Q 2466 1931 2591 1806 
Q 2716 1681 2786 1514 
Q 2856 1347 2856 1156 
z
" id="Calibri-33" transform="scale(0.015625)"/>
       </defs>
       <use transform="translate(0 0.442188)" xlink:href="#Calibri-31"/>
       <use transform="translate(50.683594 0.442188)" xlink:href="#Calibri-30"/>
       <use transform="translate(102.184219 33.123438)scale(0.7)" xlink:href="#Calibri-33"/>
      </g>
     </g>
    </g>
    <g id="ytick_3">
     <g id="line2d_13">
      <path clip-path="url(#pe058ceef9b)" d="M 88.2 124.275664 
L 635.04 124.275664 
" style="fill:none;stroke:#b0b0b0;stroke-dasharray:0.8,1.32;stroke-dashoffset:0;stroke-opacity:0.4;stroke-width:0.8;"/>
     </g>
     <g id="line2d_14">
      <g>
       <use style="stroke:#000000;stroke-width:0.8;" x="88.2" xlink:href="#m4264fd4ce9" y="124.275664"/>
      </g>
     </g>
     <g id="text_8">
      <!-- $\mathdefault{10^{4}}$ -->
      <g transform="translate(67.2 127.676446)scale(0.1 -0.1)">
       <defs>
        <path d="M 3059 1150 
Q 3059 1047 3028 987 
Q 2997 928 2941 928 
L 2484 928 
L 2484 78 
Q 2484 53 2471 36 
Q 2459 19 2428 6 
Q 2397 -6 2347 -12 
Q 2297 -19 2219 -19 
Q 2144 -19 2094 -12 
Q 2044 -6 2014 6 
Q 1984 19 1973 36 
Q 1963 53 1963 78 
L 1963 928 
L 294 928 
Q 256 928 231 937 
Q 206 947 186 972 
Q 166 997 158 1044 
Q 150 1091 150 1166 
Q 150 1225 153 1272 
Q 156 1319 165 1358 
Q 175 1397 190 1433 
Q 206 1469 228 1509 
L 1684 3966 
Q 1700 3991 1729 4009 
Q 1759 4028 1806 4040 
Q 1853 4053 1922 4058 
Q 1991 4063 2084 4063 
Q 2188 4063 2264 4055 
Q 2341 4047 2387 4034 
Q 2434 4022 2459 4001 
Q 2484 3981 2484 3953 
L 2484 1372 
L 2941 1372 
Q 2994 1372 3026 1317 
Q 3059 1263 3059 1150 
z
M 1963 3591 
L 1956 3591 
L 641 1372 
L 1963 1372 
L 1963 3591 
z
" id="Calibri-34" transform="scale(0.015625)"/>
       </defs>
       <use transform="translate(0 0.879688)" xlink:href="#Calibri-31"/>
       <use transform="translate(50.683594 0.879688)" xlink:href="#Calibri-30"/>
       <use transform="translate(102.184219 33.560938)scale(0.7)" xlink:href="#Calibri-34"/>
      </g>
     </g>
    </g>
    <g id="ytick_4">
     <g id="line2d_15">
      <path clip-path="url(#pe058ceef9b)" d="M 88.2 467.162191 
L 635.04 467.162191 
" style="fill:none;stroke:#b0b0b0;stroke-dasharray:0.8,1.32;stroke-dashoffset:0;stroke-opacity:0.4;stroke-width:0.8;"/>
     </g>
     <g id="line2d_16">
      <defs>
       <path d="M 0 0 
L -2 0 
" id="md152bbfaa3" style="stroke:#000000;stroke-width:0.6;"/>
      </defs>
      <g>
       <use style="stroke:#000000;stroke-width:0.6;" x="88.2" xlink:href="#md152bbfaa3" y="467.162191"/>
      </g>
     </g>
    </g>
    <g id="ytick_5">
     <g id="line2d_17">
      <path clip-path="url(#pe058ceef9b)" d="M 88.2 444.790945 
L 635.04 444.790945 
" style="fill:none;stroke:#b0b0b0;stroke-dasharray:0.8,1.32;stroke-dashoffset:0;stroke-opacity:0.4;stroke-width:0.8;"/>
     </g>
     <g id="line2d_18">
      <g>
       <use style="stroke:#000000;stroke-width:0.6;" x="88.2" xlink:href="#md152bbfaa3" y="444.790945"/>
      </g>
     </g>
    </g>
    <g id="ytick_6">
     <g id="line2d_19">
      <path clip-path="url(#pe058ceef9b)" d="M 88.2 428.918294 
L 635.04 428.918294 
" style="fill:none;stroke:#b0b0b0;stroke-dasharray:0.8,1.32;stroke-dashoffset:0;stroke-opacity:0.4;stroke-width:0.8;"/>
     </g>
     <g id="line2d_20">
      <g>
       <use style="stroke:#000000;stroke-width:0.6;" x="88.2" xlink:href="#md152bbfaa3" y="428.918294"/>
      </g>
     </g>
    </g>
    <g id="ytick_7">
     <g id="line2d_21">
      <path clip-path="url(#pe058ceef9b)" d="M 88.2 416.606509 
L 635.04 416.606509 
" style="fill:none;stroke:#b0b0b0;stroke-dasharray:0.8,1.32;stroke-dashoffset:0;stroke-opacity:0.4;stroke-width:0.8;"/>
     </g>
     <g id="line2d_22">
      <g>
       <use style="stroke:#000000;stroke-width:0.6;" x="88.2" xlink:href="#md152bbfaa3" y="416.606509"/>
      </g>
     </g>
    </g>
    <g id="ytick_8">
     <g id="line2d_23">
      <path clip-path="url(#pe058ceef9b)" d="M 88.2 406.547049 
L 635.04 406.547049 
" style="fill:none;stroke:#b0b0b0;stroke-dasharray:0.8,1.32;stroke-dashoffset:0;stroke-opacity:0.4;stroke-width:0.8;"/>
     </g>
     <g id="line2d_24">
      <g>
       <use style="stroke:#000000;stroke-width:0.6;" x="88.2" xlink:href="#md152bbfaa3" y="406.547049"/>
      </g>
     </g>
    </g>
    <g id="ytick_9">
     <g id="line2d_25">
      <path clip-path="url(#pe058ceef9b)" d="M 88.2 398.041896 
L 635.04 398.041896 
" style="fill:none;stroke:#b0b0b0;stroke-dasharray:0.8,1.32;stroke-dashoffset:0;stroke-opacity:0.4;stroke-width:0.8;"/>
     </g>
     <g id="line2d_26">
      <g>
       <use style="stroke:#000000;stroke-width:0.6;" x="88.2" xlink:href="#md152bbfaa3" y="398.041896"/>
      </g>
     </g>
    </g>
    <g id="ytick_10">
     <g id="line2d_27">
      <path clip-path="url(#pe058ceef9b)" d="M 88.2 390.674398 
L 635.04 390.674398 
" style="fill:none;stroke:#b0b0b0;stroke-dasharray:0.8,1.32;stroke-dashoffset:0;stroke-opacity:0.4;stroke-width:0.8;"/>
     </g>
     <g id="line2d_28">
      <g>
       <use style="stroke:#000000;stroke-width:0.6;" x="88.2" xlink:href="#md152bbfaa3" y="390.674398"/>
      </g>
     </g>
    </g>
    <g id="ytick_11">
     <g id="line2d_29">
      <path clip-path="url(#pe058ceef9b)" d="M 88.2 384.175803 
L 635.04 384.175803 
" style="fill:none;stroke:#b0b0b0;stroke-dasharray:0.8,1.32;stroke-dashoffset:0;stroke-opacity:0.4;stroke-width:0.8;"/>
     </g>
     <g id="line2d_30">
      <g>
       <use style="stroke:#000000;stroke-width:0.6;" x="88.2" xlink:href="#md152bbfaa3" y="384.175803"/>
      </g>
     </g>
    </g>
    <g id="ytick_12">
     <g id="line2d_31">
      <path clip-path="url(#pe058ceef9b)" d="M 88.2 340.118716 
L 635.04 340.118716 
" style="fill:none;stroke:#b0b0b0;stroke-dasharray:0.8,1.32;stroke-dashoffset:0;stroke-opacity:0.4;stroke-width:0.8;"/>
     </g>
     <g id="line2d_32">
      <g>
       <use style="stroke:#000000;stroke-width:0.6;" x="88.2" xlink:href="#md152bbfaa3" y="340.118716"/>
      </g>
     </g>
    </g>
    <g id="ytick_13">
     <g id="line2d_33">
      <path clip-path="url(#pe058ceef9b)" d="M 88.2 317.747471 
L 635.04 317.747471 
" style="fill:none;stroke:#b0b0b0;stroke-dasharray:0.8,1.32;stroke-dashoffset:0;stroke-opacity:0.4;stroke-width:0.8;"/>
     </g>
     <g id="line2d_34">
      <g>
       <use style="stroke:#000000;stroke-width:0.6;" x="88.2" xlink:href="#md152bbfaa3" y="317.747471"/>
      </g>
     </g>
    </g>
    <g id="ytick_14">
     <g id="line2d_35">
      <path clip-path="url(#pe058ceef9b)" d="M 88.2 301.87482 
L 635.04 301.87482 
" style="fill:none;stroke:#b0b0b0;stroke-dasharray:0.8,1.32;stroke-dashoffset:0;stroke-opacity:0.4;stroke-width:0.8;"/>
     </g>
     <g id="line2d_36">
      <g>
       <use style="stroke:#000000;stroke-width:0.6;" x="88.2" xlink:href="#md152bbfaa3" y="301.87482"/>
      </g>
     </g>
    </g>
    <g id="ytick_15">
     <g id="line2d_37">
      <path clip-path="url(#pe058ceef9b)" d="M 88.2 289.563035 
L 635.04 289.563035 
" style="fill:none;stroke:#b0b0b0;stroke-dasharray:0.8,1.32;stroke-dashoffset:0;stroke-opacity:0.4;stroke-width:0.8;"/>
     </g>
     <g id="line2d_38">
      <g>
       <use style="stroke:#000000;stroke-width:0.6;" x="88.2" xlink:href="#md152bbfaa3" y="289.563035"/>
      </g>
     </g>
    </g>
    <g id="ytick_16">
     <g id="line2d_39">
      <path clip-path="url(#pe058ceef9b)" d="M 88.2 279.503575 
L 635.04 279.503575 
" style="fill:none;stroke:#b0b0b0;stroke-dasharray:0.8,1.32;stroke-dashoffset:0;stroke-opacity:0.4;stroke-width:0.8;"/>
     </g>
     <g id="line2d_40">
      <g>
       <use style="stroke:#000000;stroke-width:0.6;" x="88.2" xlink:href="#md152bbfaa3" y="279.503575"/>
      </g>
     </g>
    </g>
    <g id="ytick_17">
     <g id="line2d_41">
      <path clip-path="url(#pe058ceef9b)" d="M 88.2 270.998422 
L 635.04 270.998422 
" style="fill:none;stroke:#b0b0b0;stroke-dasharray:0.8,1.32;stroke-dashoffset:0;stroke-opacity:0.4;stroke-width:0.8;"/>
     </g>
     <g id="line2d_42">
      <g>
       <use style="stroke:#000000;stroke-width:0.6;" x="88.2" xlink:href="#md152bbfaa3" y="270.998422"/>
      </g>
     </g>
    </g>
    <g id="ytick_18">
     <g id="line2d_43">
      <path clip-path="url(#pe058ceef9b)" d="M 88.2 263.630923 
L 635.04 263.630923 
" style="fill:none;stroke:#b0b0b0;stroke-dasharray:0.8,1.32;stroke-dashoffset:0;stroke-opacity:0.4;stroke-width:0.8;"/>
     </g>
     <g id="line2d_44">
      <g>
       <use style="stroke:#000000;stroke-width:0.6;" x="88.2" xlink:href="#md152bbfaa3" y="263.630923"/>
      </g>
     </g>
    </g>
    <g id="ytick_19">
     <g id="line2d_45">
      <path clip-path="url(#pe058ceef9b)" d="M 88.2 257.132329 
L 635.04 257.132329 
" style="fill:none;stroke:#b0b0b0;stroke-dasharray:0.8,1.32;stroke-dashoffset:0;stroke-opacity:0.4;stroke-width:0.8;"/>
     </g>
     <g id="line2d_46">
      <g>
       <use style="stroke:#000000;stroke-width:0.6;" x="88.2" xlink:href="#md152bbfaa3" y="257.132329"/>
      </g>
     </g>
    </g>
    <g id="ytick_20">
     <g id="line2d_47">
      <path clip-path="url(#pe058ceef9b)" d="M 88.2 213.075242 
L 635.04 213.075242 
" style="fill:none;stroke:#b0b0b0;stroke-dasharray:0.8,1.32;stroke-dashoffset:0;stroke-opacity:0.4;stroke-width:0.8;"/>
     </g>
     <g id="line2d_48">
      <g>
       <use style="stroke:#000000;stroke-width:0.6;" x="88.2" xlink:href="#md152bbfaa3" y="213.075242"/>
      </g>
     </g>
    </g>
    <g id="ytick_21">
     <g id="line2d_49">
      <path clip-path="url(#pe058ceef9b)" d="M 88.2 190.703997 
L 635.04 190.703997 
" style="fill:none;stroke:#b0b0b0;stroke-dasharray:0.8,1.32;stroke-dashoffset:0;stroke-opacity:0.4;stroke-width:0.8;"/>
     </g>
     <g id="line2d_50">
      <g>
       <use style="stroke:#000000;stroke-width:0.6;" x="88.2" xlink:href="#md152bbfaa3" y="190.703997"/>
      </g>
     </g>
    </g>
    <g id="ytick_22">
     <g id="line2d_51">
      <path clip-path="url(#pe058ceef9b)" d="M 88.2 174.831346 
L 635.04 174.831346 
" style="fill:none;stroke:#b0b0b0;stroke-dasharray:0.8,1.32;stroke-dashoffset:0;stroke-opacity:0.4;stroke-width:0.8;"/>
     </g>
     <g id="line2d_52">
      <g>
       <use style="stroke:#000000;stroke-width:0.6;" x="88.2" xlink:href="#md152bbfaa3" y="174.831346"/>
      </g>
     </g>
    </g>
    <g id="ytick_23">
     <g id="line2d_53">
      <path clip-path="url(#pe058ceef9b)" d="M 88.2 162.519561 
L 635.04 162.519561 
" style="fill:none;stroke:#b0b0b0;stroke-dasharray:0.8,1.32;stroke-dashoffset:0;stroke-opacity:0.4;stroke-width:0.8;"/>
     </g>
     <g id="line2d_54">
      <g>
       <use style="stroke:#000000;stroke-width:0.6;" x="88.2" xlink:href="#md152bbfaa3" y="162.519561"/>
      </g>
     </g>
    </g>
    <g id="ytick_24">
     <g id="line2d_55">
      <path clip-path="url(#pe058ceef9b)" d="M 88.2 152.4601 
L 635.04 152.4601 
" style="fill:none;stroke:#b0b0b0;stroke-dasharray:0.8,1.32;stroke-dashoffset:0;stroke-opacity:0.4;stroke-width:0.8;"/>
     </g>
     <g id="line2d_56">
      <g>
       <use style="stroke:#000000;stroke-width:0.6;" x="88.2" xlink:href="#md152bbfaa3" y="152.4601"/>
      </g>
     </g>
    </g>
    <g id="ytick_25">
     <g id="line2d_57">
      <path clip-path="url(#pe058ceef9b)" d="M 88.2 143.954947 
L 635.04 143.954947 
" style="fill:none;stroke:#b0b0b0;stroke-dasharray:0.8,1.32;stroke-dashoffset:0;stroke-opacity:0.4;stroke-width:0.8;"/>
     </g>
     <g id="line2d_58">
      <g>
       <use style="stroke:#000000;stroke-width:0.6;" x="88.2" xlink:href="#md152bbfaa3" y="143.954947"/>
      </g>
     </g>
    </g>
    <g id="ytick_26">
     <g id="line2d_59">
      <path clip-path="url(#pe058ceef9b)" d="M 88.2 136.587449 
L 635.04 136.587449 
" style="fill:none;stroke:#b0b0b0;stroke-dasharray:0.8,1.32;stroke-dashoffset:0;stroke-opacity:0.4;stroke-width:0.8;"/>
     </g>
     <g id="line2d_60">
      <g>
       <use style="stroke:#000000;stroke-width:0.6;" x="88.2" xlink:href="#md152bbfaa3" y="136.587449"/>
      </g>
     </g>
    </g>
    <g id="ytick_27">
     <g id="line2d_61">
      <path clip-path="url(#pe058ceef9b)" d="M 88.2 130.088855 
L 635.04 130.088855 
" style="fill:none;stroke:#b0b0b0;stroke-dasharray:0.8,1.32;stroke-dashoffset:0;stroke-opacity:0.4;stroke-width:0.8;"/>
     </g>
     <g id="line2d_62">
      <g>
       <use style="stroke:#000000;stroke-width:0.6;" x="88.2" xlink:href="#md152bbfaa3" y="130.088855"/>
      </g>
     </g>
    </g>
    <g id="ytick_28">
     <g id="line2d_63">
      <path clip-path="url(#pe058ceef9b)" d="M 88.2 86.031768 
L 635.04 86.031768 
" style="fill:none;stroke:#b0b0b0;stroke-dasharray:0.8,1.32;stroke-dashoffset:0;stroke-opacity:0.4;stroke-width:0.8;"/>
     </g>
     <g id="line2d_64">
      <g>
       <use style="stroke:#000000;stroke-width:0.6;" x="88.2" xlink:href="#md152bbfaa3" y="86.031768"/>
      </g>
     </g>
    </g>
    <g id="text_9">
     <!-- 1b-TOPS/W -->
     <g transform="translate(60.532812 319.158)rotate(-90)scale(0.15 -0.15)">
      <defs>
       <path d="M 1744 1578 
Q 1744 1456 1716 1409 
Q 1688 1363 1634 1363 
L 328 1363 
Q 272 1363 244 1411 
Q 216 1459 216 1578 
Q 216 1697 244 1744 
Q 272 1791 328 1791 
L 1634 1791 
Q 1659 1791 1679 1781 
Q 1700 1772 1714 1745 
Q 1728 1719 1736 1678 
Q 1744 1638 1744 1578 
z
" id="Calibri-2d" transform="scale(0.015625)"/>
       <path d="M 3072 3813 
Q 3072 3753 3065 3709 
Q 3059 3666 3045 3639 
Q 3031 3613 3011 3600 
Q 2991 3588 2966 3588 
L 1828 3588 
L 1828 81 
Q 1828 56 1815 37 
Q 1803 19 1772 8 
Q 1741 -3 1689 -11 
Q 1638 -19 1559 -19 
Q 1484 -19 1431 -11 
Q 1378 -3 1347 8 
Q 1316 19 1303 37 
Q 1291 56 1291 81 
L 1291 3588 
L 153 3588 
Q 128 3588 108 3600 
Q 88 3613 75 3639 
Q 63 3666 55 3709 
Q 47 3753 47 3813 
Q 47 3872 55 3917 
Q 63 3963 75 3991 
Q 88 4019 108 4031 
Q 128 4044 153 4044 
L 2966 4044 
Q 2991 4044 3011 4031 
Q 3031 4019 3045 3991 
Q 3059 3963 3065 3917 
Q 3072 3872 3072 3813 
z
" id="Calibri-54" transform="scale(0.015625)"/>
       <path d="M 3925 2069 
Q 3925 1578 3809 1184 
Q 3694 791 3464 514 
Q 3234 238 2887 89 
Q 2541 -59 2078 -59 
Q 1622 -59 1289 77 
Q 956 213 739 472 
Q 522 731 415 1115 
Q 309 1500 309 2000 
Q 309 2478 425 2868 
Q 541 3259 772 3532 
Q 1003 3806 1350 3954 
Q 1697 4103 2159 4103 
Q 2606 4103 2937 3968 
Q 3269 3834 3489 3576 
Q 3709 3319 3817 2939 
Q 3925 2559 3925 2069 
z
M 3359 2031 
Q 3359 2375 3298 2670 
Q 3238 2966 3095 3183 
Q 2953 3400 2715 3522 
Q 2478 3644 2128 3644 
Q 1778 3644 1540 3512 
Q 1303 3381 1154 3162 
Q 1006 2944 942 2651 
Q 878 2359 878 2038 
Q 878 1681 937 1381 
Q 997 1081 1137 864 
Q 1278 647 1514 526 
Q 1750 406 2106 406 
Q 2459 406 2700 537 
Q 2941 669 3087 892 
Q 3234 1116 3296 1409 
Q 3359 1703 3359 2031 
z
" id="Calibri-4f" transform="scale(0.015625)"/>
       <path d="M 3022 2859 
Q 3022 2556 2922 2312 
Q 2822 2069 2636 1897 
Q 2450 1725 2179 1631 
Q 1909 1538 1534 1538 
L 1075 1538 
L 1075 81 
Q 1075 56 1061 37 
Q 1047 19 1017 8 
Q 988 -3 936 -11 
Q 884 -19 806 -19 
Q 728 -19 676 -11 
Q 625 -3 594 8 
Q 563 19 550 37 
Q 538 56 538 81 
L 538 3813 
Q 538 3938 603 3991 
Q 669 4044 750 4044 
L 1616 4044 
Q 1747 4044 1867 4033 
Q 1988 4022 2152 3986 
Q 2316 3950 2486 3851 
Q 2656 3753 2775 3609 
Q 2894 3466 2958 3277 
Q 3022 3088 3022 2859 
z
M 2456 2816 
Q 2456 3063 2364 3228 
Q 2272 3394 2136 3475 
Q 2000 3556 1854 3578 
Q 1709 3600 1572 3600 
L 1075 3600 
L 1075 1978 
L 1559 1978 
Q 1803 1978 1964 2040 
Q 2125 2103 2234 2214 
Q 2344 2325 2400 2479 
Q 2456 2634 2456 2816 
z
" id="Calibri-50" transform="scale(0.015625)"/>
       <path d="M 2709 1134 
Q 2709 850 2604 628 
Q 2500 406 2314 251 
Q 2128 97 1876 19 
Q 1625 -59 1334 -59 
Q 1131 -59 957 -25 
Q 784 9 648 59 
Q 513 109 420 162 
Q 328 216 292 253 
Q 256 291 239 348 
Q 222 406 222 503 
Q 222 572 228 617 
Q 234 663 246 691 
Q 259 719 278 730 
Q 297 741 322 741 
Q 366 741 445 687 
Q 525 634 650 571 
Q 775 509 951 454 
Q 1128 400 1359 400 
Q 1534 400 1679 447 
Q 1825 494 1929 580 
Q 2034 666 2090 791 
Q 2147 916 2147 1075 
Q 2147 1247 2069 1369 
Q 1991 1491 1862 1583 
Q 1734 1675 1570 1751 
Q 1406 1828 1234 1908 
Q 1063 1988 900 2084 
Q 738 2181 609 2312 
Q 481 2444 401 2620 
Q 322 2797 322 3044 
Q 322 3297 414 3495 
Q 506 3694 670 3828 
Q 834 3963 1061 4033 
Q 1288 4103 1550 4103 
Q 1684 4103 1820 4079 
Q 1956 4056 2076 4017 
Q 2197 3978 2290 3929 
Q 2384 3881 2414 3851 
Q 2444 3822 2453 3805 
Q 2463 3788 2469 3761 
Q 2475 3734 2478 3696 
Q 2481 3659 2481 3600 
Q 2481 3544 2476 3500 
Q 2472 3456 2462 3426 
Q 2453 3397 2436 3383 
Q 2419 3369 2397 3369 
Q 2363 3369 2289 3412 
Q 2216 3456 2109 3511 
Q 2003 3566 1858 3611 
Q 1713 3656 1531 3656 
Q 1363 3656 1238 3611 
Q 1113 3566 1031 3491 
Q 950 3416 909 3312 
Q 869 3209 869 3094 
Q 869 2925 947 2803 
Q 1025 2681 1154 2587 
Q 1284 2494 1450 2416 
Q 1616 2338 1787 2258 
Q 1959 2178 2125 2083 
Q 2291 1988 2420 1858 
Q 2550 1728 2629 1551 
Q 2709 1375 2709 1134 
z
" id="Calibri-53" transform="scale(0.015625)"/>
       <path d="M 525 -753 
Q 513 -794 492 -817 
Q 472 -841 440 -853 
Q 409 -866 364 -872 
Q 319 -878 253 -878 
Q 175 -878 123 -867 
Q 72 -856 44 -836 
Q 16 -816 9 -786 
Q 3 -756 22 -716 
L 1913 4469 
Q 1925 4509 1945 4532 
Q 1966 4556 1995 4570 
Q 2025 4584 2072 4589 
Q 2119 4594 2184 4594 
Q 2263 4594 2313 4583 
Q 2363 4572 2391 4553 
Q 2419 4534 2425 4503 
Q 2431 4472 2416 4431 
L 525 -753 
z
" id="Calibri-2f" transform="scale(0.015625)"/>
       <path d="M 4409 119 
Q 4397 75 4372 48 
Q 4347 22 4303 8 
Q 4259 -6 4195 -12 
Q 4131 -19 4038 -19 
Q 3941 -19 3873 -12 
Q 3806 -6 3762 8 
Q 3719 22 3697 48 
Q 3675 75 3663 119 
L 2816 3172 
L 2809 3172 
L 2028 119 
Q 2019 75 1997 48 
Q 1975 22 1934 8 
Q 1894 -6 1830 -12 
Q 1766 -19 1666 -19 
Q 1563 -19 1494 -12 
Q 1425 -6 1381 8 
Q 1338 22 1314 48 
Q 1291 75 1281 119 
L 213 3853 
Q 194 3925 192 3965 
Q 191 4006 217 4028 
Q 244 4050 303 4056 
Q 363 4063 463 4063 
Q 559 4063 615 4058 
Q 672 4053 701 4040 
Q 731 4028 742 4006 
Q 753 3984 759 3950 
L 1669 563 
L 1672 563 
L 2534 3944 
Q 2544 3978 2558 4001 
Q 2572 4025 2603 4037 
Q 2634 4050 2692 4056 
Q 2750 4063 2844 4063 
Q 2931 4063 2982 4056 
Q 3034 4050 3065 4037 
Q 3097 4025 3111 4001 
Q 3125 3978 3134 3944 
L 4063 563 
L 4069 563 
L 4959 3947 
Q 4969 3978 4978 4001 
Q 4988 4025 5017 4037 
Q 5047 4050 5101 4056 
Q 5156 4063 5247 4063 
Q 5341 4063 5395 4055 
Q 5450 4047 5475 4025 
Q 5500 4003 5498 3962 
Q 5497 3922 5481 3850 
L 4409 119 
z
" id="Calibri-57" transform="scale(0.015625)"/>
      </defs>
      <use xlink:href="#Calibri-31"/>
      <use x="50.683594" xlink:href="#Calibri-62"/>
      <use x="103.222656" xlink:href="#Calibri-2d"/>
      <use x="133.837891" xlink:href="#Calibri-54"/>
      <use x="182.568359" xlink:href="#Calibri-4f"/>
      <use x="248.779297" xlink:href="#Calibri-50"/>
      <use x="300.439453" xlink:href="#Calibri-53"/>
      <use x="346.386719" xlink:href="#Calibri-2f"/>
      <use x="385.009766" xlink:href="#Calibri-57"/>
     </g>
    </g>
   </g>
   <g id="PathCollection_1">
    <defs>
     <path d="M 0 5 
C 1.326016 5 2.597899 4.473168 3.535534 3.535534 
C 4.473168 2.597899 5 1.326016 5 0 
C 5 -1.326016 4.473168 -2.597899 3.535534 -3.535534 
C 2.597899 -4.473168 1.326016 -5 0 -5 
C -1.326016 -5 -2.597899 -4.473168 -3.535534 -3.535534 
C -4.473168 -2.597899 -5 -1.326016 -5 0 
C -5 1.326016 -4.473168 2.597899 -3.535534 3.535534 
C -2.597899 4.473168 -1.326016 5 0 5 
z
" id="me00b8b91d6" style="stroke:#ff0000;"/>
    </defs>
    <g clip-path="url(#pe058ceef9b)">
     <use style="fill:#ff0000;stroke:#ff0000;" x="397.129091" xlink:href="#me00b8b91d6" y="245.145186"/>
     <use style="fill:#ff0000;stroke:#ff0000;" x="397.129091" xlink:href="#me00b8b91d6" y="174.064263"/>
    </g>
   </g>
   <g id="PathCollection_2">
    <defs>
     <path d="M -5 5 
L 5 5 
L 5 -5 
L -5 -5 
z
" id="m71f3e492d1" style="stroke:#ff0000;"/>
    </defs>
    <g clip-path="url(#pe058ceef9b)">
     <use style="fill:#ff0000;stroke:#ff0000;" x="397.129091" xlink:href="#m71f3e492d1" y="156.109316"/>
     <use style="fill:#ff0000;stroke:#ff0000;" x="397.129091" xlink:href="#m71f3e492d1" y="161.038868"/>
    </g>
   </g>
   <g id="PathCollection_3">
    <defs>
     <path d="M 0 5 
C 1.326016 5 2.597899 4.473168 3.535534 3.535534 
C 4.473168 2.597899 5 1.326016 5 0 
C 5 -1.326016 4.473168 -2.597899 3.535534 -3.535534 
C 2.597899 -4.473168 1.326016 -5 0 -5 
C -1.326016 -5 -2.597899 -4.473168 -3.535534 -3.535534 
C -4.473168 -2.597899 -5 -1.326016 -5 0 
C -5 1.326016 -4.473168 2.597899 -3.535534 3.535534 
C -2.597899 4.473168 -1.326016 5 0 5 
z
" id="md610fb1978" style="stroke:#7cfc00;"/>
    </defs>
    <g clip-path="url(#pe058ceef9b)">
     <use style="fill:#7cfc00;stroke:#7cfc00;" x="271.663632" xlink:href="#md610fb1978" y="276.427605"/>
     <use style="fill:#7cfc00;stroke:#7cfc00;" x="397.129091" xlink:href="#md610fb1978" y="214.869686"/>
    </g>
   </g>
   <g id="PathCollection_4">
    <defs>
     <path d="M -5 5 
L 5 5 
L 5 -5 
L -5 -5 
z
" id="m7ea7330409" style="stroke:#7cfc00;"/>
    </defs>
    <g clip-path="url(#pe058ceef9b)">
     <use style="fill:#7cfc00;stroke:#7cfc00;" x="307.172723" xlink:href="#m7ea7330409" y="214.869686"/>
    </g>
   </g>
   <g id="PathCollection_5">
    <defs>
     <path d="M 0 5 
C 1.326016 5 2.597899 4.473168 3.535534 3.535534 
C 4.473168 2.597899 5 1.326016 5 0 
C 5 -1.326016 4.473168 -2.597899 3.535534 -3.535534 
C 2.597899 -4.473168 1.326016 -5 0 -5 
C -1.326016 -5 -2.597899 -4.473168 -3.535534 -3.535534 
C -4.473168 -2.597899 -5 -1.326016 -5 0 
C -5 1.326016 -4.473168 2.597899 -3.535534 3.535534 
C -2.597899 4.473168 -1.326016 5 0 5 
z
" id="m261e8a5cbd" style="stroke:#0000ff;"/>
    </defs>
    <g clip-path="url(#pe058ceef9b)">
     <use style="fill:#0000ff;stroke:#0000ff;" x="444.474545" xlink:href="#m261e8a5cbd" y="231.816696"/>
     <use style="fill:#0000ff;stroke:#0000ff;" x="503.656364" xlink:href="#m261e8a5cbd" y="118.89174"/>
     <use style="fill:#0000ff;stroke:#0000ff;" x="503.656364" xlink:href="#m261e8a5cbd" y="87.048"/>
     <use style="fill:#0000ff;stroke:#0000ff;" x="479.983636" xlink:href="#m261e8a5cbd" y="149.768138"/>
     <use style="fill:#0000ff;stroke:#0000ff;" x="586.510909" xlink:href="#m261e8a5cbd" y="211.422932"/>
    </g>
   </g>
   <g id="PathCollection_6">
    <defs>
     <path d="M -5 5 
L 5 5 
L 5 -5 
L -5 -5 
z
" id="m87ec726a48" style="stroke:#0000ff;"/>
    </defs>
    <g clip-path="url(#pe058ceef9b)">
     <use style="fill:#0000ff;stroke:#0000ff;" x="255.092727" xlink:href="#m87ec726a48" y="230.590551"/>
     <use style="fill:#0000ff;stroke:#0000ff;" x="255.092727" xlink:href="#m87ec726a48" y="228.619301"/>
     <use style="fill:#0000ff;stroke:#0000ff;" x="255.092727" xlink:href="#m87ec726a48" y="304.173143"/>
     <use style="fill:#0000ff;stroke:#0000ff;" x="255.092727" xlink:href="#m87ec726a48" y="407.138735"/>
     <use style="fill:#0000ff;stroke:#0000ff;" x="425.536359" xlink:href="#m87ec726a48" y="154.368658"/>
     <use style="fill:#0000ff;stroke:#0000ff;" x="255.092727" xlink:href="#m87ec726a48" y="280.618244"/>
     <use style="fill:#0000ff;stroke:#0000ff;" x="207.747273" xlink:href="#m87ec726a48" y="252.840668"/>
     <use style="fill:#0000ff;stroke:#0000ff;" x="207.747273" xlink:href="#m87ec726a48" y="253.571463"/>
     <use style="fill:#0000ff;stroke:#0000ff;" x="207.747273" xlink:href="#m87ec726a48" y="229.367336"/>
     <use style="fill:#0000ff;stroke:#0000ff;" x="456.310909" xlink:href="#m87ec726a48" y="215.465676"/>
     <use style="fill:#0000ff;stroke:#0000ff;" x="472.881836" xlink:href="#m87ec726a48" y="215.465676"/>
     <use style="fill:#0000ff;stroke:#0000ff;" x="245.623634" xlink:href="#m87ec726a48" y="317.747471"/>
     <use style="fill:#0000ff;stroke:#0000ff;" x="255.092727" xlink:href="#m87ec726a48" y="219.629038"/>
     <use style="fill:#0000ff;stroke:#0000ff;" x="397.129091" xlink:href="#m87ec726a48" y="220.369645"/>
     <use style="fill:#0000ff;stroke:#0000ff;" x="373.456364" xlink:href="#m87ec726a48" y="239.237355"/>
     <use style="fill:#0000ff;stroke:#0000ff;" x="255.092727" xlink:href="#m87ec726a48" y="245.660653"/>
     <use style="fill:#0000ff;stroke:#0000ff;" x="255.092727" xlink:href="#m87ec726a48" y="278.051536"/>
     <use style="fill:#0000ff;stroke:#0000ff;" x="373.456364" xlink:href="#m87ec726a48" y="193.883642"/>
     <use style="fill:#0000ff;stroke:#0000ff;" x="373.456364" xlink:href="#m87ec726a48" y="207.21793"/>
    </g>
   </g>
   <g id="PathCollection_7">
    <defs>
     <path d="M 0 5 
C 1.326016 5 2.597899 4.473168 3.535534 3.535534 
C 4.473168 2.597899 5 1.326016 5 0 
C 5 -1.326016 4.473168 -2.597899 3.535534 -3.535534 
C 2.597899 -4.473168 1.326016 -5 0 -5 
C -1.326016 -5 -2.597899 -4.473168 -3.535534 -3.535534 
C -4.473168 -2.597899 -5 -1.326016 -5 0 
C -5 1.326016 -4.473168 2.597899 -3.535534 3.535534 
C -2.597899 4.473168 -1.326016 5 0 5 
z
" id="mc66eba6942" style="stroke:#00ffff;"/>
    </defs>
    <g clip-path="url(#pe058ceef9b)">
     <use style="fill:#00ffff;stroke:#00ffff;" x="373.456364" xlink:href="#mc66eba6942" y="289.123397"/>
    </g>
   </g>
   <g id="PathCollection_8">
    <defs>
     <path d="M -5 5 
L 5 5 
L 5 -5 
L -5 -5 
z
" id="m8ab8c1c1db" style="stroke:#00ffff;"/>
    </defs>
    <g clip-path="url(#pe058ceef9b)">
     <use style="fill:#00ffff;stroke:#00ffff;" x="345.049095" xlink:href="#m8ab8c1c1db" y="267.19179"/>
     <use style="fill:#00ffff;stroke:#00ffff;" x="373.456364" xlink:href="#m8ab8c1c1db" y="256.69269"/>
    </g>
   </g>
   <g id="PathCollection_9">
    <defs>
     <path d="M 0 5 
C 1.326016 5 2.597899 4.473168 3.535534 3.535534 
C 4.473168 2.597899 5 1.326016 5 0 
C 5 -1.326016 4.473168 -2.597899 3.535534 -3.535534 
C 2.597899 -4.473168 1.326016 -5 0 -5 
C -1.326016 -5 -2.597899 -4.473168 -3.535534 -3.535534 
C -4.473168 -2.597899 -5 -1.326016 -5 0 
C -5 1.326016 -4.473168 2.597899 -3.535534 3.535534 
C -2.597899 4.473168 -1.326016 5 0 5 
z
" id="m6085745822" style="stroke:#000000;"/>
    </defs>
    <g clip-path="url(#pe058ceef9b)">
     <use style="stroke:#000000;" x="231.42" xlink:href="#m6085745822" y="267.932395"/>
     <use style="stroke:#000000;" x="385.292727" xlink:href="#m6085745822" y="201.151035"/>
     <use style="stroke:#000000;" x="136.729091" xlink:href="#m6085745822" y="414.378907"/>
     <use style="stroke:#000000;" x="302.438182" xlink:href="#m6085745822" y="238.114177"/>
     <use style="stroke:#000000;" x="302.438182" xlink:href="#m6085745822" y="289.018404"/>
     <use style="stroke:#000000;" x="207.747273" xlink:href="#m6085745822" y="290.677705"/>
     <use style="stroke:#000000;" x="207.747273" xlink:href="#m6085745822" y="480.168"/>
     <use style="stroke:#000000;" x="330.84545" xlink:href="#m6085745822" y="342.371041"/>
     <use style="stroke:#000000;" x="330.84545" xlink:href="#m6085745822" y="301.87482"/>
     <use style="stroke:#000000;" x="255.092727" xlink:href="#m6085745822" y="273.291814"/>
     <use style="stroke:#000000;" x="113.056364" xlink:href="#m6085745822" y="458.499623"/>
     <use style="stroke:#000000;" x="207.747273" xlink:href="#m6085745822" y="372.307189"/>
     <use style="stroke:#000000;" x="610.183636" xlink:href="#m6085745822" y="301.87482"/>
     <use style="stroke:#000000;" x="363.987282" xlink:href="#m6085745822" y="341.036687"/>
     <use style="stroke:#000000;" x="387.660009" xlink:href="#m6085745822" y="259.257083"/>
     <use style="stroke:#000000;" x="255.092727" xlink:href="#m6085745822" y="360.153834"/>
     <use style="stroke:#000000;" x="255.092727" xlink:href="#m6085745822" y="301.462557"/>
     <use style="stroke:#000000;" x="378.190905" xlink:href="#m6085745822" y="237.355045"/>
     <use style="stroke:#000000;" x="378.190905" xlink:href="#m6085745822" y="256.644058"/>
     <use style="stroke:#000000;" x="397.129091" xlink:href="#m6085745822" y="261.117909"/>
     <use style="stroke:#000000;" x="397.129091" xlink:href="#m6085745822" y="209.412397"/>
    </g>
   </g>
   <g id="PathCollection_10">
    <defs>
     <path d="M -5 5 
L 5 5 
L 5 -5 
L -5 -5 
z
" id="m76112a5010" style="stroke:#000000;"/>
    </defs>
    <g clip-path="url(#pe058ceef9b)">
     <use style="stroke:#000000;" x="349.783636" xlink:href="#m76112a5010" y="463.364757"/>
    </g>
   </g>
   <g id="line2d_65">
    <defs>
     <path d="M -9 9 
L 9 9 
L 9 -9 
L -9 -9 
z
" id="m93f383b749" style="stroke:#ff0000;stroke-linejoin:miter;stroke-width:1.5;"/>
    </defs>
    <g clip-path="url(#pe058ceef9b)">
     <use style="fill-opacity:0;stroke:#ff0000;stroke-linejoin:miter;stroke-width:1.5;" x="271.663632" xlink:href="#m93f383b749" y="276.427605"/>
    </g>
   </g>
   <g id="line2d_66">
    <g clip-path="url(#pe058ceef9b)">
     <use style="fill-opacity:0;stroke:#ff0000;stroke-linejoin:miter;stroke-width:1.5;" x="307.172723" xlink:href="#m93f383b749" y="214.869686"/>
    </g>
   </g>
   <g id="line2d_67">
    <g clip-path="url(#pe058ceef9b)">
     <use style="fill-opacity:0;stroke:#ff0000;stroke-linejoin:miter;stroke-width:1.5;" x="479.983636" xlink:href="#m93f383b749" y="149.768138"/>
    </g>
   </g>
   <g id="line2d_68">
    <g clip-path="url(#pe058ceef9b)">
     <use style="fill-opacity:0;stroke:#ff0000;stroke-linejoin:miter;stroke-width:1.5;" x="255.092727" xlink:href="#m93f383b749" y="304.173143"/>
     <use style="fill-opacity:0;stroke:#ff0000;stroke-linejoin:miter;stroke-width:1.5;" x="255.092727" xlink:href="#m93f383b749" y="407.138735"/>
     <use style="fill-opacity:0;stroke:#ff0000;stroke-linejoin:miter;stroke-width:1.5;" x="255.092727" xlink:href="#m93f383b749" y="280.618244"/>
     <use style="fill-opacity:0;stroke:#ff0000;stroke-linejoin:miter;stroke-width:1.5;" x="373.456364" xlink:href="#m93f383b749" y="239.237355"/>
    </g>
   </g>
   <g id="line2d_69">
    <g clip-path="url(#pe058ceef9b)">
     <use style="fill-opacity:0;stroke:#ff0000;stroke-linejoin:miter;stroke-width:1.5;" x="231.42" xlink:href="#m93f383b749" y="267.932395"/>
     <use style="fill-opacity:0;stroke:#ff0000;stroke-linejoin:miter;stroke-width:1.5;" x="136.729091" xlink:href="#m93f383b749" y="414.378907"/>
     <use style="fill-opacity:0;stroke:#ff0000;stroke-linejoin:miter;stroke-width:1.5;" x="302.438182" xlink:href="#m93f383b749" y="238.114177"/>
     <use style="fill-opacity:0;stroke:#ff0000;stroke-linejoin:miter;stroke-width:1.5;" x="302.438182" xlink:href="#m93f383b749" y="289.018404"/>
     <use style="fill-opacity:0;stroke:#ff0000;stroke-linejoin:miter;stroke-width:1.5;" x="330.84545" xlink:href="#m93f383b749" y="342.371041"/>
     <use style="fill-opacity:0;stroke:#ff0000;stroke-linejoin:miter;stroke-width:1.5;" x="330.84545" xlink:href="#m93f383b749" y="301.87482"/>
     <use style="fill-opacity:0;stroke:#ff0000;stroke-linejoin:miter;stroke-width:1.5;" x="113.056364" xlink:href="#m93f383b749" y="458.499623"/>
    </g>
   </g>
   <g id="patch_3">
    <path d="M 88.2 499.824 
L 88.2 67.392 
" style="fill:none;stroke:#000000;stroke-linecap:square;stroke-linejoin:miter;stroke-width:0.8;"/>
   </g>
   <g id="patch_4">
    <path d="M 635.04 499.824 
L 635.04 67.392 
" style="fill:none;stroke:#000000;stroke-linecap:square;stroke-linejoin:miter;stroke-width:0.8;"/>
   </g>
   <g id="patch_5">
    <path d="M 88.2 499.824 
L 635.04 499.824 
" style="fill:none;stroke:#000000;stroke-linecap:square;stroke-linejoin:miter;stroke-width:0.8;"/>
   </g>
   <g id="patch_6">
    <path d="M 88.2 67.392 
L 635.04 67.392 
" style="fill:none;stroke:#000000;stroke-linecap:square;stroke-linejoin:miter;stroke-width:0.8;"/>
   </g>
   <g id="text_10">
    <!-- Energy-efficiency vs. Pre-ADC Information Content -->
    <g transform="translate(204.536016 61.392)scale(0.15 -0.15)">
     <defs>
      <path d="M 2838 322 
Q 2838 231 2830 170 
Q 2822 109 2806 71 
Q 2791 34 2767 17 
Q 2744 0 2716 0 
L 684 0 
Q 581 0 511 61 
Q 441 122 441 259 
L 441 3784 
Q 441 3922 511 3983 
Q 581 4044 684 4044 
L 2703 4044 
Q 2731 4044 2753 4028 
Q 2775 4013 2790 3973 
Q 2806 3934 2814 3873 
Q 2822 3813 2822 3719 
Q 2822 3631 2814 3570 
Q 2806 3509 2790 3471 
Q 2775 3434 2753 3417 
Q 2731 3400 2703 3400 
L 1259 3400 
L 1259 2413 
L 2481 2413 
Q 2509 2413 2532 2395 
Q 2556 2378 2572 2342 
Q 2588 2306 2595 2245 
Q 2603 2184 2603 2097 
Q 2603 2006 2595 1947 
Q 2588 1888 2572 1852 
Q 2556 1816 2532 1800 
Q 2509 1784 2481 1784 
L 1259 1784 
L 1259 644 
L 2716 644 
Q 2744 644 2767 626 
Q 2791 609 2806 571 
Q 2822 534 2830 473 
Q 2838 413 2838 322 
z
" id="Calibri-Bold-45" transform="scale(0.015625)"/>
      <path d="M 3056 106 
Q 3056 75 3037 51 
Q 3019 28 2975 12 
Q 2931 -3 2854 -11 
Q 2778 -19 2666 -19 
Q 2550 -19 2473 -11 
Q 2397 -3 2353 12 
Q 2309 28 2290 51 
Q 2272 75 2272 106 
L 2272 1697 
Q 2272 1900 2242 2015 
Q 2213 2131 2156 2214 
Q 2100 2297 2011 2342 
Q 1922 2388 1803 2388 
Q 1653 2388 1500 2278 
Q 1347 2169 1181 1959 
L 1181 106 
Q 1181 75 1162 51 
Q 1144 28 1098 12 
Q 1053 -3 978 -11 
Q 903 -19 788 -19 
Q 672 -19 597 -11 
Q 522 -3 476 12 
Q 431 28 412 51 
Q 394 75 394 106 
L 394 2894 
Q 394 2925 409 2948 
Q 425 2972 465 2987 
Q 506 3003 570 3011 
Q 634 3019 731 3019 
Q 831 3019 897 3011 
Q 963 3003 998 2987 
Q 1034 2972 1050 2948 
Q 1066 2925 1066 2894 
L 1066 2572 
Q 1297 2822 1536 2947 
Q 1775 3072 2034 3072 
Q 2319 3072 2514 2978 
Q 2709 2884 2829 2723 
Q 2950 2563 3003 2347 
Q 3056 2131 3056 1828 
L 3056 106 
z
" id="Calibri-Bold-6e" transform="scale(0.015625)"/>
      <path d="M 2969 1581 
Q 2969 1438 2905 1369 
Q 2841 1300 2728 1300 
L 1031 1300 
Q 1031 1122 1073 976 
Q 1116 831 1208 729 
Q 1300 628 1445 575 
Q 1591 522 1794 522 
Q 2000 522 2156 551 
Q 2313 581 2427 617 
Q 2541 653 2616 683 
Q 2691 713 2738 713 
Q 2766 713 2784 702 
Q 2803 691 2815 662 
Q 2828 634 2833 582 
Q 2838 531 2838 453 
Q 2838 384 2834 336 
Q 2831 288 2825 253 
Q 2819 219 2806 195 
Q 2794 172 2773 150 
Q 2753 128 2662 90 
Q 2572 53 2431 17 
Q 2291 -19 2109 -45 
Q 1928 -72 1722 -72 
Q 1350 -72 1070 22 
Q 791 116 603 306 
Q 416 497 323 787 
Q 231 1078 231 1469 
Q 231 1841 328 2139 
Q 425 2438 609 2645 
Q 794 2853 1058 2962 
Q 1322 3072 1653 3072 
Q 2003 3072 2251 2969 
Q 2500 2866 2659 2683 
Q 2819 2500 2894 2250 
Q 2969 2000 2969 1706 
L 2969 1581 
z
M 2206 1806 
Q 2216 2138 2073 2327 
Q 1931 2516 1634 2516 
Q 1484 2516 1373 2459 
Q 1263 2403 1189 2308 
Q 1116 2213 1077 2083 
Q 1038 1953 1031 1806 
L 2206 1806 
z
" id="Calibri-Bold-65" transform="scale(0.015625)"/>
      <path d="M 2184 2634 
Q 2184 2522 2178 2450 
Q 2172 2378 2159 2337 
Q 2147 2297 2126 2281 
Q 2106 2266 2075 2266 
Q 2050 2266 2019 2277 
Q 1988 2288 1948 2300 
Q 1909 2313 1862 2323 
Q 1816 2334 1759 2334 
Q 1694 2334 1628 2307 
Q 1563 2281 1492 2225 
Q 1422 2169 1345 2075 
Q 1269 1981 1181 1844 
L 1181 106 
Q 1181 75 1162 51 
Q 1144 28 1098 12 
Q 1053 -3 978 -11 
Q 903 -19 788 -19 
Q 672 -19 597 -11 
Q 522 -3 476 12 
Q 431 28 412 51 
Q 394 75 394 106 
L 394 2894 
Q 394 2925 409 2948 
Q 425 2972 465 2987 
Q 506 3003 570 3011 
Q 634 3019 731 3019 
Q 831 3019 897 3011 
Q 963 3003 998 2987 
Q 1034 2972 1050 2948 
Q 1066 2925 1066 2894 
L 1066 2547 
Q 1175 2703 1272 2804 
Q 1369 2906 1456 2965 
Q 1544 3025 1631 3048 
Q 1719 3072 1806 3072 
Q 1847 3072 1894 3067 
Q 1941 3063 1991 3052 
Q 2041 3041 2078 3027 
Q 2116 3013 2133 2997 
Q 2150 2981 2158 2962 
Q 2166 2944 2172 2911 
Q 2178 2878 2181 2812 
Q 2184 2747 2184 2634 
z
" id="Calibri-Bold-72" transform="scale(0.015625)"/>
      <path d="M 2906 2700 
Q 2906 2550 2872 2478 
Q 2838 2406 2788 2406 
L 2459 2406 
Q 2528 2331 2558 2236 
Q 2588 2141 2588 2038 
Q 2588 1794 2506 1605 
Q 2425 1416 2273 1286 
Q 2122 1156 1908 1089 
Q 1694 1022 1431 1022 
Q 1297 1022 1175 1055 
Q 1053 1088 988 1131 
Q 950 1091 920 1034 
Q 891 978 891 909 
Q 891 819 970 761 
Q 1050 703 1194 697 
L 1872 672 
Q 2109 663 2295 605 
Q 2481 547 2607 442 
Q 2734 338 2801 191 
Q 2869 44 2869 -144 
Q 2869 -350 2778 -533 
Q 2688 -716 2506 -850 
Q 2325 -984 2051 -1062 
Q 1778 -1141 1413 -1141 
Q 1056 -1141 804 -1084 
Q 553 -1028 392 -928 
Q 231 -828 157 -689 
Q 84 -550 84 -384 
Q 84 -281 111 -187 
Q 138 -94 189 -8 
Q 241 78 316 156 
Q 391 234 488 306 
Q 353 378 279 501 
Q 206 625 206 772 
Q 206 956 290 1107 
Q 375 1259 509 1381 
Q 400 1491 334 1644 
Q 269 1797 269 2025 
Q 269 2269 355 2461 
Q 441 2653 594 2786 
Q 747 2919 959 2989 
Q 1172 3059 1428 3059 
Q 1559 3059 1679 3043 
Q 1800 3028 1903 3000 
L 2788 3000 
Q 2841 3000 2873 2931 
Q 2906 2863 2906 2700 
z
M 1897 2041 
Q 1897 2266 1772 2391 
Q 1647 2516 1419 2516 
Q 1303 2516 1215 2477 
Q 1128 2438 1070 2370 
Q 1013 2303 984 2214 
Q 956 2125 956 2028 
Q 956 1816 1081 1692 
Q 1206 1569 1428 1569 
Q 1547 1569 1634 1606 
Q 1722 1644 1780 1709 
Q 1838 1775 1867 1861 
Q 1897 1947 1897 2041 
z
M 2081 -184 
Q 2081 -44 1968 31 
Q 1856 106 1659 113 
L 1100 128 
Q 1019 69 970 14 
Q 922 -41 892 -91 
Q 863 -141 853 -187 
Q 844 -234 844 -284 
Q 844 -441 1001 -522 
Q 1159 -603 1447 -603 
Q 1625 -603 1747 -567 
Q 1869 -531 1944 -472 
Q 2019 -413 2050 -339 
Q 2081 -266 2081 -184 
z
" id="Calibri-Bold-67" transform="scale(0.015625)"/>
      <path d="M 2009 0 
L 1672 -988 
Q 1644 -1066 1519 -1100 
Q 1394 -1134 1153 -1134 
Q 1028 -1134 953 -1123 
Q 878 -1113 840 -1088 
Q 803 -1063 800 -1025 
Q 797 -988 819 -934 
L 1191 0 
Q 1150 19 1117 58 
Q 1084 97 1069 141 
L 109 2703 
Q 69 2813 69 2870 
Q 69 2928 106 2961 
Q 144 2994 233 3006 
Q 322 3019 469 3019 
Q 603 3019 681 3014 
Q 759 3009 803 2990 
Q 847 2972 869 2933 
Q 891 2894 913 2822 
L 1569 956 
L 1578 956 
L 2178 2859 
Q 2197 2941 2226 2967 
Q 2256 2994 2325 3006 
Q 2394 3019 2566 3019 
Q 2700 3019 2789 3006 
Q 2878 2994 2920 2959 
Q 2963 2925 2963 2867 
Q 2963 2809 2938 2731 
L 2009 0 
z
" id="Calibri-Bold-79" transform="scale(0.015625)"/>
      <path d="M 1775 1572 
Q 1775 1391 1740 1319 
Q 1706 1247 1631 1247 
L 331 1247 
Q 253 1247 218 1320 
Q 184 1394 184 1572 
Q 184 1747 218 1819 
Q 253 1891 331 1891 
L 1631 1891 
Q 1669 1891 1695 1875 
Q 1722 1859 1740 1821 
Q 1759 1784 1767 1721 
Q 1775 1659 1775 1572 
z
" id="Calibri-Bold-2d" transform="scale(0.015625)"/>
      <path d="M 2075 3956 
Q 2075 3866 2069 3811 
Q 2063 3756 2050 3726 
Q 2038 3697 2022 3686 
Q 2006 3675 1988 3675 
Q 1966 3675 1939 3686 
Q 1913 3697 1873 3709 
Q 1834 3722 1781 3733 
Q 1728 3744 1656 3744 
Q 1572 3744 1511 3717 
Q 1450 3691 1409 3633 
Q 1369 3575 1350 3483 
Q 1331 3391 1331 3256 
L 1331 3000 
L 1841 3000 
Q 1869 3000 1892 2984 
Q 1916 2969 1931 2933 
Q 1947 2897 1955 2834 
Q 1963 2772 1963 2681 
Q 1963 2509 1931 2436 
Q 1900 2363 1841 2363 
L 1331 2363 
L 1331 106 
Q 1331 75 1312 51 
Q 1294 28 1250 12 
Q 1206 -3 1128 -11 
Q 1050 -19 938 -19 
Q 825 -19 748 -11 
Q 672 -3 626 12 
Q 581 28 564 51 
Q 547 75 547 106 
L 547 2363 
L 197 2363 
Q 138 2363 108 2436 
Q 78 2509 78 2681 
Q 78 2772 86 2834 
Q 94 2897 108 2933 
Q 122 2969 145 2984 
Q 169 3000 200 3000 
L 547 3000 
L 547 3234 
Q 547 3519 603 3733 
Q 659 3947 779 4089 
Q 900 4231 1086 4303 
Q 1272 4375 1525 4375 
Q 1647 4375 1756 4354 
Q 1866 4334 1928 4311 
Q 1991 4288 2012 4267 
Q 2034 4247 2048 4208 
Q 2063 4169 2069 4108 
Q 2075 4047 2075 3956 
z
" id="Calibri-Bold-66" transform="scale(0.015625)"/>
      <path d="M 1181 106 
Q 1181 75 1162 51 
Q 1144 28 1098 12 
Q 1053 -3 978 -11 
Q 903 -19 788 -19 
Q 672 -19 597 -11 
Q 522 -3 476 12 
Q 431 28 412 51 
Q 394 75 394 106 
L 394 2888 
Q 394 2919 412 2942 
Q 431 2966 476 2983 
Q 522 3000 597 3009 
Q 672 3019 788 3019 
Q 903 3019 978 3009 
Q 1053 3000 1098 2983 
Q 1144 2966 1162 2942 
Q 1181 2919 1181 2888 
L 1181 106 
z
M 1241 3838 
Q 1241 3600 1144 3509 
Q 1047 3419 784 3419 
Q 519 3419 426 3506 
Q 334 3594 334 3822 
Q 334 4059 429 4151 
Q 525 4244 791 4244 
Q 1053 4244 1147 4155 
Q 1241 4066 1241 3838 
z
" id="Calibri-Bold-69" transform="scale(0.015625)"/>
      <path d="M 2503 550 
Q 2503 469 2498 414 
Q 2494 359 2486 321 
Q 2478 284 2467 261 
Q 2456 238 2418 202 
Q 2381 166 2290 114 
Q 2200 63 2084 22 
Q 1969 -19 1833 -44 
Q 1697 -69 1553 -69 
Q 1231 -69 982 31 
Q 734 131 565 326 
Q 397 522 311 803 
Q 225 1084 225 1447 
Q 225 1866 329 2170 
Q 434 2475 621 2675 
Q 809 2875 1065 2972 
Q 1322 3069 1628 3069 
Q 1753 3069 1873 3047 
Q 1994 3025 2098 2987 
Q 2203 2950 2286 2903 
Q 2369 2856 2403 2822 
Q 2438 2788 2452 2764 
Q 2466 2741 2473 2703 
Q 2481 2666 2486 2611 
Q 2491 2556 2491 2478 
Q 2491 2297 2459 2223 
Q 2428 2150 2378 2150 
Q 2325 2150 2265 2194 
Q 2206 2238 2125 2291 
Q 2044 2344 1931 2387 
Q 1819 2431 1663 2431 
Q 1356 2431 1193 2195 
Q 1031 1959 1031 1503 
Q 1031 1278 1072 1106 
Q 1113 934 1192 818 
Q 1272 703 1392 645 
Q 1513 588 1672 588 
Q 1834 588 1951 636 
Q 2069 684 2156 743 
Q 2244 803 2303 851 
Q 2363 900 2403 900 
Q 2431 900 2450 884 
Q 2469 869 2480 826 
Q 2491 784 2497 718 
Q 2503 653 2503 550 
z
" id="Calibri-Bold-63" transform="scale(0.015625)"/>
      <path id="Calibri-Bold-20" transform="scale(0.015625)"/>
      <path d="M 2959 2897 
Q 2959 2881 2957 2859 
Q 2956 2838 2951 2811 
Q 2947 2784 2939 2750 
Q 2931 2716 2919 2672 
L 2081 150 
Q 2066 97 2039 64 
Q 2013 31 1952 12 
Q 1891 -6 1786 -12 
Q 1681 -19 1513 -19 
Q 1347 -19 1242 -11 
Q 1138 -3 1078 15 
Q 1019 34 992 67 
Q 966 100 950 150 
L 113 2672 
Q 94 2734 83 2784 
Q 72 2834 70 2856 
Q 69 2878 69 2897 
Q 69 2928 86 2951 
Q 103 2975 147 2990 
Q 191 3006 267 3012 
Q 344 3019 459 3019 
Q 588 3019 666 3011 
Q 744 3003 789 2989 
Q 834 2975 853 2948 
Q 872 2922 884 2884 
L 1519 838 
L 1538 759 
L 1556 838 
L 2181 2884 
Q 2191 2922 2211 2948 
Q 2231 2975 2275 2989 
Q 2319 3003 2392 3011 
Q 2466 3019 2584 3019 
Q 2700 3019 2773 3012 
Q 2847 3006 2887 2990 
Q 2928 2975 2943 2951 
Q 2959 2928 2959 2897 
z
" id="Calibri-Bold-76" transform="scale(0.015625)"/>
      <path d="M 2356 894 
Q 2356 656 2267 475 
Q 2178 294 2015 172 
Q 1853 50 1631 -11 
Q 1409 -72 1150 -72 
Q 994 -72 851 -48 
Q 709 -25 596 11 
Q 484 47 409 84 
Q 334 122 300 155 
Q 266 188 247 258 
Q 228 328 228 466 
Q 228 556 234 611 
Q 241 666 253 698 
Q 266 731 284 742 
Q 303 753 331 753 
Q 366 753 433 714 
Q 500 675 600 628 
Q 700 581 833 540 
Q 966 500 1134 500 
Q 1241 500 1323 522 
Q 1406 544 1467 584 
Q 1528 625 1559 687 
Q 1591 750 1591 831 
Q 1591 925 1533 992 
Q 1475 1059 1379 1109 
Q 1284 1159 1164 1203 
Q 1044 1247 917 1300 
Q 791 1353 670 1422 
Q 550 1491 454 1591 
Q 359 1691 301 1831 
Q 244 1972 244 2169 
Q 244 2369 322 2536 
Q 400 2703 547 2822 
Q 694 2941 905 3006 
Q 1116 3072 1378 3072 
Q 1509 3072 1632 3053 
Q 1756 3034 1856 3006 
Q 1956 2978 2025 2945 
Q 2094 2913 2123 2889 
Q 2153 2866 2165 2842 
Q 2178 2819 2184 2786 
Q 2191 2753 2195 2704 
Q 2200 2656 2200 2584 
Q 2200 2500 2195 2447 
Q 2191 2394 2180 2362 
Q 2169 2331 2150 2320 
Q 2131 2309 2106 2309 
Q 2078 2309 2018 2342 
Q 1959 2375 1870 2412 
Q 1781 2450 1664 2483 
Q 1547 2516 1397 2516 
Q 1291 2516 1212 2494 
Q 1134 2472 1084 2431 
Q 1034 2391 1009 2336 
Q 984 2281 984 2219 
Q 984 2122 1043 2056 
Q 1103 1991 1200 1941 
Q 1297 1891 1420 1847 
Q 1544 1803 1670 1751 
Q 1797 1700 1920 1631 
Q 2044 1563 2141 1463 
Q 2238 1363 2297 1223 
Q 2356 1084 2356 894 
z
" id="Calibri-Bold-73" transform="scale(0.015625)"/>
      <path d="M 1319 450 
Q 1319 159 1217 59 
Q 1116 -41 853 -41 
Q 591 -41 491 57 
Q 391 156 391 431 
Q 391 725 492 825 
Q 594 925 859 925 
Q 1119 925 1219 826 
Q 1319 728 1319 450 
z
" id="Calibri-Bold-2e" transform="scale(0.015625)"/>
      <path d="M 3209 2816 
Q 3209 2475 3103 2212 
Q 2997 1950 2794 1770 
Q 2591 1591 2295 1497 
Q 2000 1403 1600 1403 
L 1263 1403 
L 1263 113 
Q 1263 81 1242 56 
Q 1222 31 1175 15 
Q 1128 0 1050 -9 
Q 972 -19 850 -19 
Q 731 -19 651 -9 
Q 572 0 525 15 
Q 478 31 459 56 
Q 441 81 441 113 
L 441 3750 
Q 441 3897 517 3970 
Q 594 4044 719 4044 
L 1672 4044 
Q 1816 4044 1945 4033 
Q 2075 4022 2256 3986 
Q 2438 3950 2623 3853 
Q 2809 3756 2940 3607 
Q 3072 3459 3140 3261 
Q 3209 3063 3209 2816 
z
M 2350 2756 
Q 2350 2969 2275 3106 
Q 2200 3244 2090 3309 
Q 1981 3375 1861 3392 
Q 1741 3409 1613 3409 
L 1263 3409 
L 1263 2038 
L 1631 2038 
Q 1828 2038 1961 2091 
Q 2094 2144 2178 2239 
Q 2263 2334 2306 2467 
Q 2350 2600 2350 2756 
z
" id="Calibri-Bold-50" transform="scale(0.015625)"/>
      <path d="M 3753 306 
Q 3791 194 3800 128 
Q 3809 63 3775 30 
Q 3741 -3 3653 -11 
Q 3566 -19 3413 -19 
Q 3253 -19 3164 -14 
Q 3075 -9 3028 5 
Q 2981 19 2962 44 
Q 2944 69 2931 109 
L 2659 922 
L 1141 922 
L 884 131 
Q 872 88 851 58 
Q 831 28 786 11 
Q 741 -6 658 -12 
Q 575 -19 441 -19 
Q 297 -19 215 -9 
Q 134 0 103 36 
Q 72 72 81 137 
Q 91 203 128 313 
L 1375 3900 
Q 1394 3953 1419 3986 
Q 1444 4019 1498 4036 
Q 1553 4053 1650 4058 
Q 1747 4063 1906 4063 
Q 2091 4063 2200 4058 
Q 2309 4053 2370 4036 
Q 2431 4019 2457 3984 
Q 2484 3950 2503 3891 
L 3753 306 
z
M 1897 3272 
L 1894 3272 
L 1322 1553 
L 2469 1553 
L 1897 3272 
z
" id="Calibri-Bold-41" transform="scale(0.015625)"/>
      <path d="M 3800 2081 
Q 3800 1525 3654 1129 
Q 3509 734 3237 484 
Q 2966 234 2577 117 
Q 2188 0 1650 0 
L 684 0 
Q 581 0 511 61 
Q 441 122 441 259 
L 441 3784 
Q 441 3922 511 3983 
Q 581 4044 684 4044 
L 1722 4044 
Q 2263 4044 2639 3917 
Q 3016 3791 3273 3542 
Q 3531 3294 3665 2928 
Q 3800 2563 3800 2081 
z
M 2950 2053 
Q 2950 2341 2883 2587 
Q 2816 2834 2667 3015 
Q 2519 3197 2286 3298 
Q 2053 3400 1675 3400 
L 1259 3400 
L 1259 650 
L 1688 650 
Q 2025 650 2256 737 
Q 2488 825 2642 1001 
Q 2797 1178 2873 1440 
Q 2950 1703 2950 2053 
z
" id="Calibri-Bold-44" transform="scale(0.015625)"/>
      <path d="M 3238 613 
Q 3238 534 3233 479 
Q 3228 425 3218 386 
Q 3209 347 3193 319 
Q 3178 291 3143 255 
Q 3109 219 3011 162 
Q 2913 106 2770 54 
Q 2628 3 2445 -31 
Q 2263 -66 2050 -66 
Q 1634 -66 1300 62 
Q 966 191 731 445 
Q 497 700 372 1081 
Q 247 1463 247 1969 
Q 247 2484 384 2884 
Q 522 3284 769 3556 
Q 1016 3828 1361 3968 
Q 1706 4109 2122 4109 
Q 2291 4109 2447 4081 
Q 2603 4053 2736 4008 
Q 2869 3963 2975 3903 
Q 3081 3844 3123 3801 
Q 3166 3759 3181 3731 
Q 3197 3703 3206 3659 
Q 3216 3616 3220 3556 
Q 3225 3497 3225 3409 
Q 3225 3316 3219 3250 
Q 3213 3184 3197 3143 
Q 3181 3103 3159 3084 
Q 3138 3066 3109 3066 
Q 3063 3066 2991 3120 
Q 2919 3175 2805 3242 
Q 2691 3309 2533 3364 
Q 2375 3419 2156 3419 
Q 1916 3419 1727 3320 
Q 1538 3222 1405 3039 
Q 1272 2856 1203 2597 
Q 1134 2338 1134 2013 
Q 1134 1656 1207 1395 
Q 1281 1134 1417 965 
Q 1553 797 1745 714 
Q 1938 631 2178 631 
Q 2397 631 2556 682 
Q 2716 734 2830 796 
Q 2944 859 3017 909 
Q 3091 959 3131 959 
Q 3163 959 3181 946 
Q 3200 934 3212 896 
Q 3225 859 3231 792 
Q 3238 725 3238 613 
z
" id="Calibri-Bold-43" transform="scale(0.015625)"/>
      <path d="M 1266 113 
Q 1266 81 1245 56 
Q 1225 31 1178 15 
Q 1131 0 1053 -9 
Q 975 -19 853 -19 
Q 734 -19 654 -9 
Q 575 0 528 15 
Q 481 31 461 56 
Q 441 81 441 113 
L 441 3931 
Q 441 3963 461 3988 
Q 481 4013 529 4028 
Q 578 4044 656 4053 
Q 734 4063 853 4063 
Q 975 4063 1053 4053 
Q 1131 4044 1178 4028 
Q 1225 4013 1245 3988 
Q 1266 3963 1266 3931 
L 1266 113 
z
" id="Calibri-Bold-49" transform="scale(0.015625)"/>
      <path d="M 3213 1528 
Q 3213 1172 3119 878 
Q 3025 584 2834 371 
Q 2644 159 2356 43 
Q 2069 -72 1684 -72 
Q 1313 -72 1038 31 
Q 763 134 581 331 
Q 400 528 312 815 
Q 225 1103 225 1472 
Q 225 1828 320 2123 
Q 416 2419 606 2630 
Q 797 2841 1083 2956 
Q 1369 3072 1753 3072 
Q 2128 3072 2403 2970 
Q 2678 2869 2858 2672 
Q 3038 2475 3125 2187 
Q 3213 1900 3213 1528 
z
M 2403 1497 
Q 2403 1703 2370 1876 
Q 2338 2050 2259 2178 
Q 2181 2306 2051 2378 
Q 1922 2450 1725 2450 
Q 1550 2450 1419 2386 
Q 1288 2322 1203 2198 
Q 1119 2075 1076 1901 
Q 1034 1728 1034 1506 
Q 1034 1300 1068 1126 
Q 1103 953 1179 825 
Q 1256 697 1387 626 
Q 1519 556 1713 556 
Q 1891 556 2022 620 
Q 2153 684 2237 806 
Q 2322 928 2362 1101 
Q 2403 1275 2403 1497 
z
" id="Calibri-Bold-6f" transform="scale(0.015625)"/>
      <path d="M 4828 106 
Q 4828 75 4809 51 
Q 4791 28 4747 12 
Q 4703 -3 4628 -11 
Q 4553 -19 4438 -19 
Q 4319 -19 4244 -11 
Q 4169 -3 4123 12 
Q 4078 28 4061 51 
Q 4044 75 4044 106 
L 4044 1759 
Q 4044 1900 4017 2015 
Q 3991 2131 3936 2214 
Q 3881 2297 3798 2342 
Q 3716 2388 3600 2388 
Q 3459 2388 3315 2278 
Q 3172 2169 3003 1959 
L 3003 106 
Q 3003 75 2984 51 
Q 2966 28 2920 12 
Q 2875 -3 2800 -11 
Q 2725 -19 2613 -19 
Q 2497 -19 2422 -11 
Q 2347 -3 2301 12 
Q 2256 28 2237 51 
Q 2219 75 2219 106 
L 2219 1759 
Q 2219 1900 2192 2015 
Q 2166 2131 2112 2214 
Q 2059 2297 1975 2342 
Q 1891 2388 1778 2388 
Q 1634 2388 1490 2278 
Q 1347 2169 1181 1959 
L 1181 106 
Q 1181 75 1162 51 
Q 1144 28 1098 12 
Q 1053 -3 978 -11 
Q 903 -19 788 -19 
Q 672 -19 597 -11 
Q 522 -3 476 12 
Q 431 28 412 51 
Q 394 75 394 106 
L 394 2894 
Q 394 2925 409 2948 
Q 425 2972 465 2987 
Q 506 3003 570 3011 
Q 634 3019 731 3019 
Q 831 3019 897 3011 
Q 963 3003 998 2987 
Q 1034 2972 1050 2948 
Q 1066 2925 1066 2894 
L 1066 2572 
Q 1297 2822 1526 2947 
Q 1756 3072 2006 3072 
Q 2178 3072 2315 3036 
Q 2453 3000 2561 2933 
Q 2669 2866 2747 2772 
Q 2825 2678 2878 2563 
Q 3003 2697 3123 2794 
Q 3244 2891 3361 2952 
Q 3478 3013 3595 3042 
Q 3713 3072 3834 3072 
Q 4113 3072 4303 2978 
Q 4494 2884 4611 2723 
Q 4728 2563 4778 2347 
Q 4828 2131 4828 1891 
L 4828 106 
z
" id="Calibri-Bold-6d" transform="scale(0.015625)"/>
      <path d="M 2769 97 
Q 2769 53 2737 28 
Q 2706 3 2639 -8 
Q 2572 -19 2441 -19 
Q 2300 -19 2236 -8 
Q 2172 3 2145 28 
Q 2119 53 2119 97 
L 2119 319 
Q 1947 134 1726 31 
Q 1506 -72 1238 -72 
Q 1016 -72 830 -14 
Q 644 44 508 158 
Q 372 272 297 440 
Q 222 609 222 834 
Q 222 1078 317 1258 
Q 413 1438 602 1555 
Q 791 1672 1072 1728 
Q 1353 1784 1725 1784 
L 1997 1784 
L 1997 1953 
Q 1997 2084 1970 2182 
Q 1944 2281 1883 2347 
Q 1822 2413 1720 2444 
Q 1619 2475 1469 2475 
Q 1272 2475 1117 2431 
Q 963 2388 844 2334 
Q 725 2281 645 2237 
Q 566 2194 516 2194 
Q 481 2194 454 2216 
Q 428 2238 411 2278 
Q 394 2319 384 2378 
Q 375 2438 375 2509 
Q 375 2606 390 2662 
Q 406 2719 450 2764 
Q 494 2809 603 2864 
Q 713 2919 859 2966 
Q 1006 3013 1179 3042 
Q 1353 3072 1538 3072 
Q 1866 3072 2098 3008 
Q 2331 2944 2481 2811 
Q 2631 2678 2700 2468 
Q 2769 2259 2769 1972 
L 2769 97 
z
M 1997 1291 
L 1697 1291 
Q 1506 1291 1372 1262 
Q 1238 1234 1153 1178 
Q 1069 1122 1030 1042 
Q 991 963 991 859 
Q 991 684 1102 584 
Q 1213 484 1409 484 
Q 1575 484 1714 568 
Q 1853 653 1997 816 
L 1997 1291 
z
" id="Calibri-Bold-61" transform="scale(0.015625)"/>
      <path d="M 2044 381 
Q 2044 244 2026 170 
Q 2009 97 1981 67 
Q 1953 38 1898 14 
Q 1844 -9 1770 -26 
Q 1697 -44 1611 -53 
Q 1525 -63 1438 -63 
Q 1203 -63 1031 -3 
Q 859 56 746 179 
Q 634 303 581 490 
Q 528 678 528 934 
L 528 2363 
L 194 2363 
Q 134 2363 103 2436 
Q 72 2509 72 2681 
Q 72 2772 80 2834 
Q 88 2897 103 2933 
Q 119 2969 142 2984 
Q 166 3000 197 3000 
L 528 3000 
L 528 3622 
Q 528 3653 545 3678 
Q 563 3703 608 3720 
Q 653 3738 729 3745 
Q 806 3753 919 3753 
Q 1034 3753 1111 3745 
Q 1188 3738 1231 3720 
Q 1275 3703 1294 3678 
Q 1313 3653 1313 3622 
L 1313 3000 
L 1919 3000 
Q 1950 3000 1973 2984 
Q 1997 2969 2012 2933 
Q 2028 2897 2036 2834 
Q 2044 2772 2044 2681 
Q 2044 2509 2012 2436 
Q 1981 2363 1922 2363 
L 1313 2363 
L 1313 1053 
Q 1313 825 1384 711 
Q 1456 597 1641 597 
Q 1703 597 1753 608 
Q 1803 619 1842 633 
Q 1881 647 1907 658 
Q 1934 669 1956 669 
Q 1975 669 1992 658 
Q 2009 647 2018 614 
Q 2028 581 2036 525 
Q 2044 469 2044 381 
z
" id="Calibri-Bold-74" transform="scale(0.015625)"/>
     </defs>
     <use xlink:href="#Calibri-Bold-45"/>
     <use x="48.779297" xlink:href="#Calibri-Bold-6e"/>
     <use x="102.441406" xlink:href="#Calibri-Bold-65"/>
     <use x="152.783203" xlink:href="#Calibri-Bold-72"/>
     <use x="188.330078" xlink:href="#Calibri-Bold-67"/>
     <use x="235.742188" xlink:href="#Calibri-Bold-79"/>
     <use x="283.105469" xlink:href="#Calibri-Bold-2d"/>
     <use x="313.720703" xlink:href="#Calibri-Bold-65"/>
     <use x="364.0625" xlink:href="#Calibri-Bold-66"/>
     <use x="395.703125" xlink:href="#Calibri-Bold-66"/>
     <use x="427.34375" xlink:href="#Calibri-Bold-69"/>
     <use x="451.904297" xlink:href="#Calibri-Bold-63"/>
     <use x="493.75" xlink:href="#Calibri-Bold-69"/>
     <use x="518.310547" xlink:href="#Calibri-Bold-65"/>
     <use x="568.652344" xlink:href="#Calibri-Bold-6e"/>
     <use x="622.314453" xlink:href="#Calibri-Bold-63"/>
     <use x="664.160156" xlink:href="#Calibri-Bold-79"/>
     <use x="711.523438" xlink:href="#Calibri-Bold-20"/>
     <use x="734.130859" xlink:href="#Calibri-Bold-76"/>
     <use x="781.445312" xlink:href="#Calibri-Bold-73"/>
     <use x="821.337891" xlink:href="#Calibri-Bold-2e"/>
     <use x="848.046875" xlink:href="#Calibri-Bold-20"/>
     <use x="870.654297" xlink:href="#Calibri-Bold-50"/>
     <use x="923.876953" xlink:href="#Calibri-Bold-72"/>
     <use x="959.423828" xlink:href="#Calibri-Bold-65"/>
     <use x="1009.765625" xlink:href="#Calibri-Bold-2d"/>
     <use x="1040.380859" xlink:href="#Calibri-Bold-41"/>
     <use x="1100.976562" xlink:href="#Calibri-Bold-44"/>
     <use x="1164.013672" xlink:href="#Calibri-Bold-43"/>
     <use x="1216.943359" xlink:href="#Calibri-Bold-20"/>
     <use x="1239.550781" xlink:href="#Calibri-Bold-49"/>
     <use x="1266.210938" xlink:href="#Calibri-Bold-6e"/>
     <use x="1319.873047" xlink:href="#Calibri-Bold-66"/>
     <use x="1351.513672" xlink:href="#Calibri-Bold-6f"/>
     <use x="1405.273438" xlink:href="#Calibri-Bold-72"/>
     <use x="1440.820312" xlink:href="#Calibri-Bold-6d"/>
     <use x="1522.167969" xlink:href="#Calibri-Bold-61"/>
     <use x="1571.533203" xlink:href="#Calibri-Bold-74"/>
     <use x="1606.201172" xlink:href="#Calibri-Bold-69"/>
     <use x="1630.761719" xlink:href="#Calibri-Bold-6f"/>
     <use x="1684.521484" xlink:href="#Calibri-Bold-6e"/>
     <use x="1738.183594" xlink:href="#Calibri-Bold-20"/>
     <use x="1760.791016" xlink:href="#Calibri-Bold-43"/>
     <use x="1813.720703" xlink:href="#Calibri-Bold-6f"/>
     <use x="1867.480469" xlink:href="#Calibri-Bold-6e"/>
     <use x="1921.142578" xlink:href="#Calibri-Bold-74"/>
     <use x="1955.810547" xlink:href="#Calibri-Bold-65"/>
     <use x="2006.152344" xlink:href="#Calibri-Bold-6e"/>
     <use x="2059.814453" xlink:href="#Calibri-Bold-74"/>
    </g>
   </g>
   <g id="legend_1">
    <g id="patch_7">
     <path d="M 554.1 493.824 
L 626.64 493.824 
Q 629.04 493.824 629.04 491.424 
L 629.04 327.2865 
Q 629.04 324.8865 626.64 324.8865 
L 554.1 324.8865 
Q 551.7 324.8865 551.7 327.2865 
L 551.7 491.424 
Q 551.7 493.824 554.1 493.824 
z
" style="fill:#ffffff;opacity:0.8;stroke:#cccccc;stroke-linejoin:miter;"/>
    </g>
    <g id="PathCollection_11">
     <g>
      <use style="fill:#ff0000;stroke:#ff0000;" x="568.5" xlink:href="#me00b8b91d6" y="334.9365"/>
     </g>
    </g>
    <g id="text_11">
     <!-- 5nm -->
     <g transform="translate(590.1 338.0865)scale(0.12 -0.12)">
      <defs>
       <path d="M 2900 78 
Q 2900 53 2887 36 
Q 2875 19 2847 6 
Q 2819 -6 2769 -12 
Q 2719 -19 2644 -19 
Q 2566 -19 2516 -12 
Q 2466 -6 2437 6 
Q 2409 19 2396 36 
Q 2384 53 2384 78 
L 2384 1725 
Q 2384 1966 2346 2112 
Q 2309 2259 2237 2365 
Q 2166 2472 2052 2528 
Q 1938 2584 1788 2584 
Q 1594 2584 1400 2446 
Q 1206 2309 994 2044 
L 994 78 
Q 994 53 981 36 
Q 969 19 941 6 
Q 913 -6 863 -12 
Q 813 -19 734 -19 
Q 659 -19 609 -12 
Q 559 -6 529 6 
Q 500 19 489 36 
Q 478 53 478 78 
L 478 2891 
Q 478 2916 487 2933 
Q 497 2950 525 2964 
Q 553 2978 597 2983 
Q 641 2988 713 2988 
Q 781 2988 826 2983 
Q 872 2978 897 2964 
Q 922 2950 933 2933 
Q 944 2916 944 2891 
L 944 2519 
Q 1181 2784 1417 2907 
Q 1653 3031 1894 3031 
Q 2175 3031 2367 2936 
Q 2559 2841 2678 2681 
Q 2797 2522 2848 2308 
Q 2900 2094 2900 1794 
L 2900 78 
z
" id="Calibri-6e" transform="scale(0.015625)"/>
       <path d="M 4650 78 
Q 4650 53 4637 36 
Q 4625 19 4597 6 
Q 4569 -6 4519 -12 
Q 4469 -19 4394 -19 
Q 4316 -19 4266 -12 
Q 4216 -6 4186 6 
Q 4156 19 4143 36 
Q 4131 53 4131 78 
L 4131 1788 
Q 4131 1966 4100 2112 
Q 4069 2259 4000 2365 
Q 3931 2472 3825 2528 
Q 3719 2584 3575 2584 
Q 3397 2584 3217 2446 
Q 3038 2309 2822 2044 
L 2822 78 
Q 2822 53 2809 36 
Q 2797 19 2767 6 
Q 2738 -6 2688 -12 
Q 2638 -19 2563 -19 
Q 2491 -19 2439 -12 
Q 2388 -6 2358 6 
Q 2328 19 2317 36 
Q 2306 53 2306 78 
L 2306 1788 
Q 2306 1966 2272 2112 
Q 2238 2259 2169 2365 
Q 2100 2472 1995 2528 
Q 1891 2584 1747 2584 
Q 1569 2584 1387 2446 
Q 1206 2309 994 2044 
L 994 78 
Q 994 53 981 36 
Q 969 19 941 6 
Q 913 -6 863 -12 
Q 813 -19 734 -19 
Q 659 -19 609 -12 
Q 559 -6 529 6 
Q 500 19 489 36 
Q 478 53 478 78 
L 478 2891 
Q 478 2916 487 2933 
Q 497 2950 525 2964 
Q 553 2978 597 2983 
Q 641 2988 713 2988 
Q 781 2988 826 2983 
Q 872 2978 897 2964 
Q 922 2950 933 2933 
Q 944 2916 944 2891 
L 944 2519 
Q 1181 2784 1404 2907 
Q 1628 3031 1856 3031 
Q 2031 3031 2170 2990 
Q 2309 2950 2415 2876 
Q 2522 2803 2597 2701 
Q 2672 2600 2722 2475 
Q 2863 2628 2989 2734 
Q 3116 2841 3233 2906 
Q 3350 2972 3461 3001 
Q 3572 3031 3684 3031 
Q 3956 3031 4140 2936 
Q 4325 2841 4439 2681 
Q 4553 2522 4601 2308 
Q 4650 2094 4650 1856 
L 4650 78 
z
" id="Calibri-6d" transform="scale(0.015625)"/>
      </defs>
      <use xlink:href="#Calibri-35"/>
      <use x="50.683594" xlink:href="#Calibri-6e"/>
      <use x="103.222656" xlink:href="#Calibri-6d"/>
     </g>
    </g>
    <g id="PathCollection_12">
     <g>
      <use style="fill:#ff0000;stroke:#ff0000;" x="568.5" xlink:href="#m71f3e492d1" y="351.47025"/>
     </g>
    </g>
    <g id="text_12">
     <!-- 7nm -->
     <g transform="translate(590.1 354.62025)scale(0.12 -0.12)">
      <defs>
       <path d="M 2947 3813 
Q 2947 3756 2942 3711 
Q 2938 3666 2930 3623 
Q 2922 3581 2908 3542 
Q 2894 3503 2875 3459 
L 1419 103 
Q 1403 66 1379 42 
Q 1356 19 1320 5 
Q 1284 -9 1228 -14 
Q 1172 -19 1091 -19 
Q 984 -19 925 -9 
Q 866 0 839 20 
Q 813 41 816 70 
Q 819 100 838 141 
L 2369 3572 
L 428 3572 
Q 369 3572 339 3634 
Q 309 3697 309 3809 
Q 309 3869 317 3912 
Q 325 3956 340 3986 
Q 356 4016 378 4030 
Q 400 4044 428 4044 
L 2784 4044 
Q 2828 4044 2861 4034 
Q 2894 4025 2911 3997 
Q 2928 3969 2937 3925 
Q 2947 3881 2947 3813 
z
" id="Calibri-37" transform="scale(0.015625)"/>
      </defs>
      <use xlink:href="#Calibri-37"/>
      <use x="50.683594" xlink:href="#Calibri-6e"/>
      <use x="103.222656" xlink:href="#Calibri-6d"/>
     </g>
    </g>
    <g id="PathCollection_13">
     <g>
      <use style="fill:#7cfc00;stroke:#7cfc00;" x="568.5" xlink:href="#md610fb1978" y="368.004"/>
     </g>
    </g>
    <g id="text_13">
     <!-- 12nm -->
     <g transform="translate(590.1 371.154)scale(0.12 -0.12)">
      <use xlink:href="#Calibri-31"/>
      <use x="50.683594" xlink:href="#Calibri-32"/>
      <use x="101.367188" xlink:href="#Calibri-6e"/>
      <use x="153.90625" xlink:href="#Calibri-6d"/>
     </g>
    </g>
    <g id="PathCollection_14">
     <g>
      <use style="fill:#7cfc00;stroke:#7cfc00;" x="568.5" xlink:href="#m7ea7330409" y="384.53775"/>
     </g>
    </g>
    <g id="text_14">
     <!-- 16nm -->
     <g transform="translate(590.1 387.68775)scale(0.12 -0.12)">
      <defs>
       <path d="M 2991 1309 
Q 2991 1044 2909 795 
Q 2828 547 2659 358 
Q 2491 169 2231 55 
Q 1972 -59 1619 -59 
Q 1366 -59 1172 3 
Q 978 66 834 181 
Q 691 297 595 465 
Q 500 634 442 850 
Q 384 1066 359 1322 
Q 334 1578 334 1872 
Q 334 2131 362 2397 
Q 391 2663 462 2909 
Q 534 3156 657 3373 
Q 781 3591 967 3752 
Q 1153 3913 1412 4006 
Q 1672 4100 2016 4100 
Q 2131 4100 2250 4086 
Q 2369 4072 2469 4048 
Q 2569 4025 2637 3997 
Q 2706 3969 2728 3951 
Q 2750 3934 2761 3914 
Q 2772 3894 2778 3870 
Q 2784 3847 2787 3817 
Q 2791 3788 2791 3744 
Q 2791 3688 2789 3647 
Q 2788 3606 2777 3581 
Q 2766 3556 2748 3543 
Q 2731 3531 2703 3531 
Q 2669 3531 2609 3553 
Q 2550 3575 2465 3601 
Q 2381 3628 2261 3650 
Q 2141 3672 1981 3672 
Q 1691 3672 1481 3553 
Q 1272 3434 1139 3234 
Q 1006 3034 942 2770 
Q 878 2506 869 2219 
Q 950 2266 1051 2312 
Q 1153 2359 1273 2396 
Q 1394 2434 1528 2457 
Q 1663 2481 1816 2481 
Q 2144 2481 2369 2392 
Q 2594 2303 2733 2145 
Q 2872 1988 2931 1773 
Q 2991 1559 2991 1309 
z
M 2447 1259 
Q 2447 1441 2411 1589 
Q 2375 1738 2290 1841 
Q 2206 1944 2065 2000 
Q 1925 2056 1719 2056 
Q 1603 2056 1487 2036 
Q 1372 2016 1264 1980 
Q 1156 1944 1057 1895 
Q 959 1847 878 1791 
Q 878 1388 929 1116 
Q 981 844 1079 680 
Q 1178 516 1325 445 
Q 1472 375 1669 375 
Q 1869 375 2016 450 
Q 2163 525 2259 651 
Q 2356 778 2401 936 
Q 2447 1094 2447 1259 
z
" id="Calibri-36" transform="scale(0.015625)"/>
      </defs>
      <use xlink:href="#Calibri-31"/>
      <use x="50.683594" xlink:href="#Calibri-36"/>
      <use x="101.367188" xlink:href="#Calibri-6e"/>
      <use x="153.90625" xlink:href="#Calibri-6d"/>
     </g>
    </g>
    <g id="PathCollection_15">
     <g>
      <use style="fill:#0000ff;stroke:#0000ff;" x="568.5" xlink:href="#m261e8a5cbd" y="401.0715"/>
     </g>
    </g>
    <g id="text_15">
     <!-- 22nm -->
     <g transform="translate(590.1 404.2215)scale(0.12 -0.12)">
      <use xlink:href="#Calibri-32"/>
      <use x="50.683594" xlink:href="#Calibri-32"/>
      <use x="101.367188" xlink:href="#Calibri-6e"/>
      <use x="153.90625" xlink:href="#Calibri-6d"/>
     </g>
    </g>
    <g id="PathCollection_16">
     <g>
      <use style="fill:#0000ff;stroke:#0000ff;" x="568.5" xlink:href="#m87ec726a48" y="417.60525"/>
     </g>
    </g>
    <g id="text_16">
     <!-- 28nm -->
     <g transform="translate(590.1 420.75525)scale(0.12 -0.12)">
      <defs>
       <path d="M 2981 1038 
Q 2981 775 2887 570 
Q 2794 366 2617 225 
Q 2441 84 2181 12 
Q 1922 -59 1588 -59 
Q 1275 -59 1028 6 
Q 781 72 609 200 
Q 438 328 347 515 
Q 256 703 256 944 
Q 256 1134 318 1293 
Q 381 1453 498 1587 
Q 616 1722 787 1839 
Q 959 1956 1175 2063 
Q 988 2159 844 2267 
Q 700 2375 600 2501 
Q 500 2628 448 2772 
Q 397 2916 397 3084 
Q 397 3297 473 3483 
Q 550 3669 704 3806 
Q 859 3944 1098 4023 
Q 1338 4103 1656 4103 
Q 1963 4103 2186 4029 
Q 2409 3956 2554 3829 
Q 2700 3703 2769 3531 
Q 2838 3359 2838 3163 
Q 2838 3003 2786 2856 
Q 2734 2709 2634 2578 
Q 2534 2447 2389 2333 
Q 2244 2219 2056 2119 
Q 2278 2009 2451 1893 
Q 2625 1778 2742 1645 
Q 2859 1513 2920 1364 
Q 2981 1216 2981 1038 
z
M 2306 3113 
Q 2306 3244 2261 3350 
Q 2216 3456 2128 3531 
Q 2041 3606 1911 3645 
Q 1781 3684 1616 3684 
Q 1278 3684 1104 3531 
Q 931 3378 931 3113 
Q 931 2991 973 2886 
Q 1016 2781 1105 2687 
Q 1194 2594 1330 2505 
Q 1466 2416 1653 2319 
Q 1969 2481 2137 2678 
Q 2306 2875 2306 3113 
z
M 2438 981 
Q 2438 1125 2384 1242 
Q 2331 1359 2223 1461 
Q 2116 1563 1955 1658 
Q 1794 1753 1581 1856 
Q 1384 1759 1236 1662 
Q 1088 1566 992 1462 
Q 897 1359 848 1245 
Q 800 1131 800 994 
Q 800 691 1008 525 
Q 1216 359 1628 359 
Q 2028 359 2233 526 
Q 2438 694 2438 981 
z
" id="Calibri-38" transform="scale(0.015625)"/>
      </defs>
      <use xlink:href="#Calibri-32"/>
      <use x="50.683594" xlink:href="#Calibri-38"/>
      <use x="101.367188" xlink:href="#Calibri-6e"/>
      <use x="153.90625" xlink:href="#Calibri-6d"/>
     </g>
    </g>
    <g id="PathCollection_17">
     <g>
      <use style="fill:#00ffff;stroke:#00ffff;" x="568.5" xlink:href="#mc66eba6942" y="434.139"/>
     </g>
    </g>
    <g id="text_17">
     <!-- 45nm -->
     <g transform="translate(590.1 437.289)scale(0.12 -0.12)">
      <use xlink:href="#Calibri-34"/>
      <use x="50.683594" xlink:href="#Calibri-35"/>
      <use x="101.367188" xlink:href="#Calibri-6e"/>
      <use x="153.90625" xlink:href="#Calibri-6d"/>
     </g>
    </g>
    <g id="PathCollection_18">
     <g>
      <use style="fill:#00ffff;stroke:#00ffff;" x="568.5" xlink:href="#m8ab8c1c1db" y="450.67275"/>
     </g>
    </g>
    <g id="text_18">
     <!-- 55nm -->
     <g transform="translate(590.1 453.82275)scale(0.12 -0.12)">
      <use xlink:href="#Calibri-35"/>
      <use x="50.683594" xlink:href="#Calibri-35"/>
      <use x="101.367188" xlink:href="#Calibri-6e"/>
      <use x="153.90625" xlink:href="#Calibri-6d"/>
     </g>
    </g>
    <g id="PathCollection_19">
     <g>
      <use style="stroke:#000000;" x="568.5" xlink:href="#m6085745822" y="467.2065"/>
     </g>
    </g>
    <g id="text_19">
     <!-- 65nm -->
     <g transform="translate(590.1 470.3565)scale(0.12 -0.12)">
      <use xlink:href="#Calibri-36"/>
      <use x="50.683594" xlink:href="#Calibri-35"/>
      <use x="101.367188" xlink:href="#Calibri-6e"/>
      <use x="153.90625" xlink:href="#Calibri-6d"/>
     </g>
    </g>
    <g id="PathCollection_20">
     <g>
      <use style="stroke:#000000;" x="568.5" xlink:href="#m76112a5010" y="483.74025"/>
     </g>
    </g>
    <g id="text_20">
     <!-- 180nm -->
     <g transform="translate(590.1 486.89025)scale(0.12 -0.12)">
      <use xlink:href="#Calibri-31"/>
      <use x="50.683594" xlink:href="#Calibri-38"/>
      <use x="101.367188" xlink:href="#Calibri-30"/>
      <use x="152.050781" xlink:href="#Calibri-6e"/>
      <use x="204.589844" xlink:href="#Calibri-6d"/>
     </g>
    </g>
   </g>
  </g>
 </g>
 <defs>
  <clipPath id="pe058ceef9b">
   <rect height="432.432" width="546.84" x="88.2" y="67.392"/>
  </clipPath>
 </defs>
</svg>
