<?xml version="1.0" encoding="utf-8" standalone="no"?>
<!DOCTYPE svg PUBLIC "-//W3C//DTD SVG 1.1//EN"
  "http://www.w3.org/Graphics/SVG/1.1/DTD/svg11.dtd">
<svg height="561.6pt" version="1.1" viewBox="0 0 705.6 561.6" width="705.6pt" xmlns="http://www.w3.org/2000/svg" xmlns:xlink="http://www.w3.org/1999/xlink">
 <metadata>
  <rdf:RDF xmlns:cc="http://creativecommons.org/ns#" xmlns:dc="http://purl.org/dc/elements/1.1/" xmlns:rdf="http://www.w3.org/1999/02/22-rdf-syntax-ns#">
   <cc:Work>
    <dc:type rdf:resource="http://purl.org/dc/dcmitype/StillImage"/>
    <dc:date>2022-09-30T15:36:03.600700</dc:date>
    <dc:format>image/svg+xml</dc:format>
    <dc:creator>
     <cc:Agent>
      <dc:title>Matplotlib v3.4.1, https://matplotlib.org/</dc:title>
     </cc:Agent>
    </dc:creator>
   </cc:Work>
  </rdf:RDF>
 </metadata>
 <defs>
  <style type="text/css">*{stroke-linecap:butt;stroke-linejoin:round;}</style>
 </defs>
 <g id="figure_1">
  <g id="patch_1">
   <path d="M 0 561.6 
L 705.6 561.6 
L 705.6 0 
L 0 0 
z
" style="fill:#ffffff;"/>
  </g>
  <g id="axes_1">
   <g id="patch_2">
    <path d="M 88.2 499.824 
L 635.04 499.824 
L 635.04 67.392 
L 88.2 67.392 
z
" style="fill:#ffffff;"/>
   </g>
   <g id="matplotlib.axis_1">
    <g id="xtick_1">
     <g id="line2d_1">
      <path clip-path="url(#p0fd0b71814)" d="M 113.056364 499.824 
L 113.056364 67.392 
" style="fill:none;stroke:#b0b0b0;stroke-dasharray:0.8,1.32;stroke-dashoffset:0;stroke-opacity:0.4;stroke-width:0.8;"/>
     </g>
     <g id="line2d_2">
      <defs>
       <path d="M 0 0 
L 0 3.5 
" id="m6d2a692910" style="stroke:#000000;stroke-width:0.8;"/>
      </defs>
      <g>
       <use style="stroke:#000000;stroke-width:0.8;" x="113.056364" xlink:href="#m6d2a692910" y="499.824"/>
      </g>
     </g>
     <g id="text_1">
      <!-- 0 -->
      <g transform="translate(110.521989 513.625563)scale(0.1 -0.1)">
       <defs>
        <path d="M 3022 2031 
Q 3022 1566 2948 1181 
Q 2875 797 2704 520 
Q 2534 244 2259 92 
Q 1984 -59 1581 -59 
Q 1200 -59 939 77 
Q 678 213 518 477 
Q 359 741 292 1127 
Q 225 1513 225 2013 
Q 225 2475 300 2861 
Q 375 3247 544 3523 
Q 713 3800 988 3951 
Q 1263 4103 1663 4103 
Q 2047 4103 2308 3967 
Q 2569 3831 2728 3567 
Q 2888 3303 2955 2917 
Q 3022 2531 3022 2031 
z
M 2472 1994 
Q 2472 2297 2450 2537 
Q 2428 2778 2386 2962 
Q 2344 3147 2276 3280 
Q 2209 3413 2115 3498 
Q 2022 3584 1901 3623 
Q 1781 3663 1631 3663 
Q 1366 3663 1200 3538 
Q 1034 3413 939 3194 
Q 844 2975 809 2681 
Q 775 2388 775 2050 
Q 775 1597 822 1280 
Q 869 963 970 763 
Q 1072 563 1230 472 
Q 1388 381 1613 381 
Q 1788 381 1920 437 
Q 2053 494 2148 598 
Q 2244 703 2306 850 
Q 2369 997 2406 1175 
Q 2444 1353 2458 1561 
Q 2472 1769 2472 1994 
z
" id="Calibri-30" transform="scale(0.015625)"/>
       </defs>
       <use xlink:href="#Calibri-30"/>
      </g>
     </g>
    </g>
    <g id="xtick_2">
     <g id="line2d_3">
      <path clip-path="url(#p0fd0b71814)" d="M 221.12751 499.824 
L 221.12751 67.392 
" style="fill:none;stroke:#b0b0b0;stroke-dasharray:0.8,1.32;stroke-dashoffset:0;stroke-opacity:0.4;stroke-width:0.8;"/>
     </g>
     <g id="line2d_4">
      <g>
       <use style="stroke:#000000;stroke-width:0.8;" x="221.12751" xlink:href="#m6d2a692910" y="499.824"/>
      </g>
     </g>
     <g id="text_2">
      <!-- 5 -->
      <g transform="translate(218.593135 513.625563)scale(0.1 -0.1)">
       <defs>
        <path d="M 2869 1300 
Q 2869 975 2759 722 
Q 2650 469 2450 295 
Q 2250 122 1973 31 
Q 1697 -59 1359 -59 
Q 1172 -59 1003 -32 
Q 834 -6 703 33 
Q 572 72 487 109 
Q 403 147 379 169 
Q 356 191 347 209 
Q 338 228 330 254 
Q 322 281 319 322 
Q 316 363 316 419 
Q 316 472 320 514 
Q 325 556 337 582 
Q 350 609 367 621 
Q 384 634 406 634 
Q 438 634 503 595 
Q 569 556 680 511 
Q 791 466 955 425 
Q 1119 384 1344 384 
Q 1553 384 1728 434 
Q 1903 484 2029 590 
Q 2156 697 2228 858 
Q 2300 1019 2300 1250 
Q 2300 1444 2239 1592 
Q 2178 1741 2051 1839 
Q 1925 1938 1731 1986 
Q 1538 2034 1269 2034 
Q 1078 2034 940 2015 
Q 803 1997 684 1997 
Q 597 1997 559 2037 
Q 522 2078 522 2194 
L 522 3841 
Q 522 3944 570 3994 
Q 619 4044 709 4044 
L 2500 4044 
Q 2525 4044 2548 4030 
Q 2572 4016 2587 3987 
Q 2603 3959 2611 3915 
Q 2619 3872 2619 3813 
Q 2619 3700 2587 3637 
Q 2556 3575 2500 3575 
L 991 3575 
L 991 2441 
Q 1100 2456 1214 2459 
Q 1328 2463 1478 2463 
Q 1825 2463 2084 2380 
Q 2344 2297 2517 2145 
Q 2691 1994 2780 1778 
Q 2869 1563 2869 1300 
z
" id="Calibri-35" transform="scale(0.015625)"/>
       </defs>
       <use xlink:href="#Calibri-35"/>
      </g>
     </g>
    </g>
    <g id="xtick_3">
     <g id="line2d_5">
      <path clip-path="url(#p0fd0b71814)" d="M 329.198656 499.824 
L 329.198656 67.392 
" style="fill:none;stroke:#b0b0b0;stroke-dasharray:0.8,1.32;stroke-dashoffset:0;stroke-opacity:0.4;stroke-width:0.8;"/>
     </g>
     <g id="line2d_6">
      <g>
       <use style="stroke:#000000;stroke-width:0.8;" x="329.198656" xlink:href="#m6d2a692910" y="499.824"/>
      </g>
     </g>
     <g id="text_3">
      <!-- 10 -->
      <g transform="translate(324.129906 513.625563)scale(0.1 -0.1)">
       <defs>
        <path d="M 2897 213 
Q 2897 153 2887 112 
Q 2878 72 2862 47 
Q 2847 22 2826 11 
Q 2806 0 2784 0 
L 672 0 
Q 650 0 631 11 
Q 613 22 595 47 
Q 578 72 568 112 
Q 559 153 559 213 
Q 559 269 568 309 
Q 578 350 592 376 
Q 606 403 626 417 
Q 647 431 672 431 
L 1516 431 
L 1516 3506 
L 734 3041 
Q 675 3009 639 3003 
Q 603 2997 581 3017 
Q 559 3038 551 3084 
Q 544 3131 544 3203 
Q 544 3256 548 3293 
Q 553 3331 562 3356 
Q 572 3381 589 3400 
Q 606 3419 634 3438 
L 1566 4034 
Q 1578 4044 1597 4050 
Q 1616 4056 1644 4062 
Q 1672 4069 1709 4070 
Q 1747 4072 1803 4072 
Q 1878 4072 1928 4065 
Q 1978 4059 2006 4048 
Q 2034 4038 2043 4020 
Q 2053 4003 2053 3984 
L 2053 431 
L 2784 431 
Q 2809 431 2831 417 
Q 2853 403 2867 376 
Q 2881 350 2889 309 
Q 2897 269 2897 213 
z
" id="Calibri-31" transform="scale(0.015625)"/>
       </defs>
       <use xlink:href="#Calibri-31"/>
       <use x="50.683594" xlink:href="#Calibri-30"/>
      </g>
     </g>
    </g>
    <g id="xtick_4">
     <g id="line2d_7">
      <path clip-path="url(#p0fd0b71814)" d="M 437.269802 499.824 
L 437.269802 67.392 
" style="fill:none;stroke:#b0b0b0;stroke-dasharray:0.8,1.32;stroke-dashoffset:0;stroke-opacity:0.4;stroke-width:0.8;"/>
     </g>
     <g id="line2d_8">
      <g>
       <use style="stroke:#000000;stroke-width:0.8;" x="437.269802" xlink:href="#m6d2a692910" y="499.824"/>
      </g>
     </g>
     <g id="text_4">
      <!-- 15 -->
      <g transform="translate(432.201052 513.625563)scale(0.1 -0.1)">
       <use xlink:href="#Calibri-31"/>
       <use x="50.683594" xlink:href="#Calibri-35"/>
      </g>
     </g>
    </g>
    <g id="xtick_5">
     <g id="line2d_9">
      <path clip-path="url(#p0fd0b71814)" d="M 545.340949 499.824 
L 545.340949 67.392 
" style="fill:none;stroke:#b0b0b0;stroke-dasharray:0.8,1.32;stroke-dashoffset:0;stroke-opacity:0.4;stroke-width:0.8;"/>
     </g>
     <g id="line2d_10">
      <g>
       <use style="stroke:#000000;stroke-width:0.8;" x="545.340949" xlink:href="#m6d2a692910" y="499.824"/>
      </g>
     </g>
     <g id="text_5">
      <!-- 20 -->
      <g transform="translate(540.272199 513.625563)scale(0.1 -0.1)">
       <defs>
        <path d="M 2888 231 
Q 2888 175 2880 131 
Q 2872 88 2858 58 
Q 2844 28 2820 14 
Q 2797 0 2769 0 
L 534 0 
Q 491 0 458 11 
Q 425 22 401 47 
Q 378 72 367 119 
Q 356 166 356 234 
Q 356 297 361 344 
Q 366 391 381 427 
Q 397 463 420 498 
Q 444 534 481 575 
L 1266 1406 
Q 1538 1694 1702 1922 
Q 1866 2150 1955 2337 
Q 2044 2525 2072 2678 
Q 2100 2831 2100 2966 
Q 2100 3100 2056 3220 
Q 2013 3341 1930 3431 
Q 1847 3522 1722 3575 
Q 1597 3628 1434 3628 
Q 1244 3628 1092 3575 
Q 941 3522 827 3459 
Q 713 3397 636 3344 
Q 559 3291 522 3291 
Q 500 3291 483 3303 
Q 466 3316 455 3344 
Q 444 3372 437 3419 
Q 431 3466 431 3531 
Q 431 3578 434 3612 
Q 438 3647 445 3672 
Q 453 3697 465 3719 
Q 478 3741 515 3773 
Q 553 3806 645 3862 
Q 738 3919 877 3973 
Q 1016 4028 1183 4065 
Q 1350 4103 1534 4103 
Q 1828 4103 2048 4020 
Q 2269 3938 2414 3794 
Q 2559 3650 2631 3459 
Q 2703 3269 2703 3053 
Q 2703 2859 2668 2667 
Q 2634 2475 2523 2251 
Q 2413 2028 2203 1754 
Q 1994 1481 1647 1125 
L 1006 456 
L 2766 456 
Q 2791 456 2814 442 
Q 2838 428 2855 400 
Q 2872 372 2880 330 
Q 2888 288 2888 231 
z
" id="Calibri-32" transform="scale(0.015625)"/>
       </defs>
       <use xlink:href="#Calibri-32"/>
       <use x="50.683594" xlink:href="#Calibri-30"/>
      </g>
     </g>
    </g>
    <g id="text_6">
     <!-- $B_{I(col)}$ (bits) -->
     <g transform="translate(325.77 530.353687)scale(0.15 -0.15)">
      <defs>
       <path d="M 1081 4666 
L 2694 4666 
Q 3350 4666 3675 4422 
Q 4000 4178 4000 3688 
Q 4000 3238 3720 2911 
Q 3441 2584 2988 2516 
Q 3375 2428 3569 2181 
Q 3763 1934 3763 1522 
Q 3763 819 3242 409 
Q 2722 0 1819 0 
L 172 0 
L 1081 4666 
z
M 1234 2228 
L 903 519 
L 1919 519 
Q 2491 519 2800 781 
Q 3109 1044 3109 1522 
Q 3109 1891 2904 2059 
Q 2700 2228 2247 2228 
L 1234 2228 
z
M 1606 4147 
L 1331 2741 
L 2272 2741 
Q 2775 2741 3058 2959 
Q 3341 3178 3341 3566 
Q 3341 3869 3150 4008 
Q 2959 4147 2541 4147 
L 1606 4147 
z
" id="DejaVuSans-Oblique-42" transform="scale(0.015625)"/>
       <path d="M 1081 4666 
L 1716 4666 
L 806 0 
L 172 0 
L 1081 4666 
z
" id="DejaVuSans-Oblique-49" transform="scale(0.015625)"/>
       <path d="M 1984 4856 
Q 1566 4138 1362 3434 
Q 1159 2731 1159 2009 
Q 1159 1288 1364 580 
Q 1569 -128 1984 -844 
L 1484 -844 
Q 1016 -109 783 600 
Q 550 1309 550 2009 
Q 550 2706 781 3412 
Q 1013 4119 1484 4856 
L 1984 4856 
z
" id="DejaVuSans-28" transform="scale(0.015625)"/>
       <path d="M 3431 3366 
L 3316 2797 
Q 3109 2947 2876 3022 
Q 2644 3097 2394 3097 
Q 2119 3097 1870 3000 
Q 1622 2903 1453 2725 
Q 1184 2453 1037 2087 
Q 891 1722 891 1331 
Q 891 859 1127 628 
Q 1363 397 1844 397 
Q 2081 397 2348 469 
Q 2616 541 2906 684 
L 2797 116 
Q 2547 13 2283 -39 
Q 2019 -91 1741 -91 
Q 1044 -91 669 257 
Q 294 606 294 1253 
Q 294 1797 489 2255 
Q 684 2713 1069 3078 
Q 1331 3328 1684 3456 
Q 2038 3584 2456 3584 
Q 2700 3584 2940 3529 
Q 3181 3475 3431 3366 
z
" id="DejaVuSans-Oblique-63" transform="scale(0.015625)"/>
       <path d="M 1625 -91 
Q 1009 -91 651 289 
Q 294 669 294 1325 
Q 294 1706 417 2101 
Q 541 2497 738 2766 
Q 1047 3184 1428 3384 
Q 1809 3584 2291 3584 
Q 2888 3584 3255 3212 
Q 3622 2841 3622 2241 
Q 3622 1825 3500 1412 
Q 3378 1000 3181 728 
Q 2875 309 2494 109 
Q 2113 -91 1625 -91 
z
M 891 1344 
Q 891 869 1089 633 
Q 1288 397 1691 397 
Q 2269 397 2648 901 
Q 3028 1406 3028 2181 
Q 3028 2634 2825 2865 
Q 2622 3097 2228 3097 
Q 1903 3097 1650 2945 
Q 1397 2794 1197 2484 
Q 1050 2253 970 1956 
Q 891 1659 891 1344 
z
" id="DejaVuSans-Oblique-6f" transform="scale(0.015625)"/>
       <path d="M 1172 4863 
L 1747 4863 
L 800 0 
L 225 0 
L 1172 4863 
z
" id="DejaVuSans-Oblique-6c" transform="scale(0.015625)"/>
       <path d="M 513 4856 
L 1013 4856 
Q 1481 4119 1714 3412 
Q 1947 2706 1947 2009 
Q 1947 1309 1714 600 
Q 1481 -109 1013 -844 
L 513 -844 
Q 928 -128 1133 580 
Q 1338 1288 1338 2009 
Q 1338 2731 1133 3434 
Q 928 4138 513 4856 
z
" id="DejaVuSans-29" transform="scale(0.015625)"/>
       <path id="Calibri-20" transform="scale(0.015625)"/>
       <path d="M 1547 4306 
Q 1250 3678 1104 3017 
Q 959 2356 959 1688 
Q 959 1016 1107 356 
Q 1256 -303 1541 -938 
Q 1556 -975 1557 -1001 
Q 1559 -1028 1537 -1045 
Q 1516 -1063 1470 -1070 
Q 1425 -1078 1347 -1078 
Q 1291 -1078 1250 -1075 
Q 1209 -1072 1179 -1062 
Q 1150 -1053 1131 -1040 
Q 1113 -1028 1103 -1013 
Q 934 -694 806 -367 
Q 678 -41 590 296 
Q 503 634 459 979 
Q 416 1325 416 1678 
Q 416 2031 464 2375 
Q 513 2719 602 3058 
Q 691 3397 819 3725 
Q 947 4053 1106 4375 
Q 1109 4388 1123 4397 
Q 1138 4406 1163 4415 
Q 1188 4425 1231 4429 
Q 1275 4434 1344 4434 
Q 1416 4434 1459 4425 
Q 1503 4416 1528 4400 
Q 1553 4384 1556 4359 
Q 1559 4334 1547 4306 
z
" id="Calibri-28" transform="scale(0.015625)"/>
       <path d="M 3066 1522 
Q 3066 1156 2986 864 
Q 2906 572 2751 365 
Q 2597 159 2372 50 
Q 2147 -59 1856 -59 
Q 1722 -59 1608 -32 
Q 1494 -6 1384 53 
Q 1275 113 1165 203 
Q 1056 294 934 422 
L 934 78 
Q 934 53 921 34 
Q 909 16 881 5 
Q 853 -6 811 -12 
Q 769 -19 703 -19 
Q 641 -19 597 -12 
Q 553 -6 525 5 
Q 497 16 487 34 
Q 478 53 478 78 
L 478 4253 
Q 478 4278 489 4297 
Q 500 4316 529 4328 
Q 559 4341 609 4347 
Q 659 4353 734 4353 
Q 813 4353 863 4347 
Q 913 4341 941 4328 
Q 969 4316 981 4297 
Q 994 4278 994 4253 
L 994 2569 
Q 1119 2697 1236 2784 
Q 1353 2872 1465 2926 
Q 1578 2981 1690 3006 
Q 1803 3031 1928 3031 
Q 2234 3031 2451 2909 
Q 2669 2788 2805 2583 
Q 2941 2378 3003 2103 
Q 3066 1828 3066 1522 
z
M 2522 1463 
Q 2522 1678 2489 1881 
Q 2456 2084 2375 2240 
Q 2294 2397 2159 2492 
Q 2025 2588 1825 2588 
Q 1725 2588 1628 2559 
Q 1531 2531 1431 2465 
Q 1331 2400 1223 2297 
Q 1116 2194 994 2038 
L 994 916 
Q 1206 656 1400 520 
Q 1594 384 1803 384 
Q 1997 384 2134 478 
Q 2272 572 2358 726 
Q 2444 881 2483 1073 
Q 2522 1266 2522 1463 
z
" id="Calibri-62" transform="scale(0.015625)"/>
       <path d="M 994 78 
Q 994 53 981 36 
Q 969 19 941 6 
Q 913 -6 863 -12 
Q 813 -19 734 -19 
Q 659 -19 609 -12 
Q 559 -6 529 6 
Q 500 19 489 36 
Q 478 53 478 78 
L 478 2891 
Q 478 2913 489 2931 
Q 500 2950 529 2962 
Q 559 2975 609 2981 
Q 659 2988 734 2988 
Q 813 2988 863 2981 
Q 913 2975 941 2962 
Q 969 2950 981 2931 
Q 994 2913 994 2891 
L 994 78 
z
M 1053 3841 
Q 1053 3659 984 3593 
Q 916 3528 731 3528 
Q 550 3528 483 3592 
Q 416 3656 416 3834 
Q 416 4016 484 4081 
Q 553 4147 738 4147 
Q 919 4147 986 4083 
Q 1053 4019 1053 3841 
z
" id="Calibri-69" transform="scale(0.015625)"/>
       <path d="M 1941 284 
Q 1941 194 1928 141 
Q 1916 88 1891 63 
Q 1866 38 1816 16 
Q 1766 -6 1702 -20 
Q 1638 -34 1566 -43 
Q 1494 -53 1422 -53 
Q 1203 -53 1047 5 
Q 891 63 791 180 
Q 691 297 645 476 
Q 600 656 600 900 
L 600 2544 
L 206 2544 
Q 159 2544 131 2594 
Q 103 2644 103 2756 
Q 103 2816 111 2856 
Q 119 2897 131 2923 
Q 144 2950 164 2961 
Q 184 2972 209 2972 
L 600 2972 
L 600 3641 
Q 600 3663 611 3681 
Q 622 3700 651 3714 
Q 681 3728 731 3734 
Q 781 3741 856 3741 
Q 934 3741 984 3734 
Q 1034 3728 1062 3714 
Q 1091 3700 1103 3681 
Q 1116 3663 1116 3641 
L 1116 2972 
L 1838 2972 
Q 1863 2972 1881 2961 
Q 1900 2950 1914 2923 
Q 1928 2897 1934 2856 
Q 1941 2816 1941 2756 
Q 1941 2644 1912 2594 
Q 1884 2544 1838 2544 
L 1116 2544 
L 1116 975 
Q 1116 684 1202 536 
Q 1288 388 1509 388 
Q 1581 388 1637 402 
Q 1694 416 1737 431 
Q 1781 447 1812 461 
Q 1844 475 1869 475 
Q 1884 475 1898 467 
Q 1913 459 1920 437 
Q 1928 416 1934 378 
Q 1941 341 1941 284 
z
" id="Calibri-74" transform="scale(0.015625)"/>
       <path d="M 2244 844 
Q 2244 628 2164 459 
Q 2084 291 1937 175 
Q 1791 59 1587 0 
Q 1384 -59 1141 -59 
Q 991 -59 855 -36 
Q 719 -13 611 23 
Q 503 59 428 98 
Q 353 138 318 169 
Q 284 200 268 256 
Q 253 313 253 409 
Q 253 469 259 509 
Q 266 550 275 575 
Q 284 600 301 611 
Q 319 622 341 622 
Q 375 622 442 580 
Q 509 538 607 488 
Q 706 438 840 395 
Q 975 353 1150 353 
Q 1281 353 1387 381 
Q 1494 409 1572 464 
Q 1650 519 1692 603 
Q 1734 688 1734 803 
Q 1734 922 1673 1003 
Q 1613 1084 1513 1146 
Q 1413 1209 1288 1257 
Q 1163 1306 1030 1359 
Q 897 1413 770 1480 
Q 644 1547 544 1644 
Q 444 1741 383 1875 
Q 322 2009 322 2197 
Q 322 2363 386 2514 
Q 450 2666 578 2780 
Q 706 2894 898 2962 
Q 1091 3031 1347 3031 
Q 1459 3031 1571 3012 
Q 1684 2994 1775 2966 
Q 1866 2938 1930 2905 
Q 1994 2872 2026 2847 
Q 2059 2822 2070 2803 
Q 2081 2784 2086 2761 
Q 2091 2738 2095 2703 
Q 2100 2669 2100 2619 
Q 2100 2566 2095 2527 
Q 2091 2488 2080 2463 
Q 2069 2438 2053 2427 
Q 2038 2416 2019 2416 
Q 1991 2416 1937 2450 
Q 1884 2484 1800 2523 
Q 1716 2563 1602 2597 
Q 1488 2631 1341 2631 
Q 1209 2631 1109 2601 
Q 1009 2572 945 2517 
Q 881 2463 848 2388 
Q 816 2313 816 2225 
Q 816 2103 878 2020 
Q 941 1938 1041 1875 
Q 1141 1813 1269 1763 
Q 1397 1713 1530 1659 
Q 1663 1606 1792 1540 
Q 1922 1475 2022 1381 
Q 2122 1288 2183 1156 
Q 2244 1025 2244 844 
z
" id="Calibri-73" transform="scale(0.015625)"/>
       <path d="M 1522 1678 
Q 1522 1325 1478 979 
Q 1434 634 1346 296 
Q 1259 -41 1132 -367 
Q 1006 -694 838 -1013 
Q 828 -1028 809 -1040 
Q 791 -1053 761 -1062 
Q 731 -1072 690 -1075 
Q 650 -1078 594 -1078 
Q 513 -1078 467 -1070 
Q 422 -1063 401 -1045 
Q 381 -1028 382 -1001 
Q 384 -975 400 -938 
Q 688 -306 834 355 
Q 981 1016 981 1688 
Q 981 2356 834 3017 
Q 688 3678 394 4306 
Q 381 4334 384 4359 
Q 388 4384 413 4400 
Q 438 4416 481 4425 
Q 525 4434 597 4434 
Q 663 4434 706 4429 
Q 750 4425 776 4415 
Q 803 4406 815 4397 
Q 828 4388 834 4375 
Q 1156 3734 1339 3057 
Q 1522 2381 1522 1678 
z
" id="Calibri-29" transform="scale(0.015625)"/>
      </defs>
      <use transform="translate(0 0.09375)" xlink:href="#DejaVuSans-Oblique-42"/>
      <use transform="translate(68.603516 -16.3125)scale(0.7)" xlink:href="#DejaVuSans-Oblique-49"/>
      <use transform="translate(89.248047 -16.3125)scale(0.7)" xlink:href="#DejaVuSans-28"/>
      <use transform="translate(116.557617 -16.3125)scale(0.7)" xlink:href="#DejaVuSans-Oblique-63"/>
      <use transform="translate(155.043945 -16.3125)scale(0.7)" xlink:href="#DejaVuSans-Oblique-6f"/>
      <use transform="translate(197.871094 -16.3125)scale(0.7)" xlink:href="#DejaVuSans-Oblique-6c"/>
      <use transform="translate(217.319336 -16.3125)scale(0.7)" xlink:href="#DejaVuSans-29"/>
      <use transform="translate(247.363281 0.09375)" xlink:href="#Calibri-20"/>
      <use transform="translate(268.845703 0.09375)" xlink:href="#Calibri-28"/>
      <use transform="translate(299.167969 0.09375)" xlink:href="#Calibri-62"/>
      <use transform="translate(351.707031 0.09375)" xlink:href="#Calibri-69"/>
      <use transform="translate(374.65625 0.09375)" xlink:href="#Calibri-74"/>
      <use transform="translate(408.152344 0.09375)" xlink:href="#Calibri-73"/>
      <use transform="translate(447.263672 0.09375)" xlink:href="#Calibri-29"/>
     </g>
    </g>
   </g>
   <g id="matplotlib.axis_2">
    <g id="ytick_1">
     <g id="line2d_11">
      <path clip-path="url(#p0fd0b71814)" d="M 88.2 480.168 
L 635.04 480.168 
" style="fill:none;stroke:#b0b0b0;stroke-dasharray:0.8,1.32;stroke-dashoffset:0;stroke-opacity:0.4;stroke-width:0.8;"/>
     </g>
     <g id="line2d_12">
      <defs>
       <path d="M 0 0 
L -3.5 0 
" id="mfdd012052e" style="stroke:#000000;stroke-width:0.8;"/>
      </defs>
      <g>
       <use style="stroke:#000000;stroke-width:0.8;" x="88.2" xlink:href="#mfdd012052e" y="480.168"/>
      </g>
     </g>
     <g id="text_7">
      <!-- 0 -->
      <g transform="translate(76.13125 483.568781)scale(0.1 -0.1)">
       <use xlink:href="#Calibri-30"/>
      </g>
     </g>
    </g>
    <g id="ytick_2">
     <g id="line2d_13">
      <path clip-path="url(#p0fd0b71814)" d="M 88.2 408.691636 
L 635.04 408.691636 
" style="fill:none;stroke:#b0b0b0;stroke-dasharray:0.8,1.32;stroke-dashoffset:0;stroke-opacity:0.4;stroke-width:0.8;"/>
     </g>
     <g id="line2d_14">
      <g>
       <use style="stroke:#000000;stroke-width:0.8;" x="88.2" xlink:href="#mfdd012052e" y="408.691636"/>
      </g>
     </g>
     <g id="text_8">
      <!-- 2 -->
      <g transform="translate(76.13125 412.092418)scale(0.1 -0.1)">
       <use xlink:href="#Calibri-32"/>
      </g>
     </g>
    </g>
    <g id="ytick_3">
     <g id="line2d_15">
      <path clip-path="url(#p0fd0b71814)" d="M 88.2 337.215273 
L 635.04 337.215273 
" style="fill:none;stroke:#b0b0b0;stroke-dasharray:0.8,1.32;stroke-dashoffset:0;stroke-opacity:0.4;stroke-width:0.8;"/>
     </g>
     <g id="line2d_16">
      <g>
       <use style="stroke:#000000;stroke-width:0.8;" x="88.2" xlink:href="#mfdd012052e" y="337.215273"/>
      </g>
     </g>
     <g id="text_9">
      <!-- 4 -->
      <g transform="translate(76.13125 340.616054)scale(0.1 -0.1)">
       <defs>
        <path d="M 3059 1150 
Q 3059 1047 3028 987 
Q 2997 928 2941 928 
L 2484 928 
L 2484 78 
Q 2484 53 2471 36 
Q 2459 19 2428 6 
Q 2397 -6 2347 -12 
Q 2297 -19 2219 -19 
Q 2144 -19 2094 -12 
Q 2044 -6 2014 6 
Q 1984 19 1973 36 
Q 1963 53 1963 78 
L 1963 928 
L 294 928 
Q 256 928 231 937 
Q 206 947 186 972 
Q 166 997 158 1044 
Q 150 1091 150 1166 
Q 150 1225 153 1272 
Q 156 1319 165 1358 
Q 175 1397 190 1433 
Q 206 1469 228 1509 
L 1684 3966 
Q 1700 3991 1729 4009 
Q 1759 4028 1806 4040 
Q 1853 4053 1922 4058 
Q 1991 4063 2084 4063 
Q 2188 4063 2264 4055 
Q 2341 4047 2387 4034 
Q 2434 4022 2459 4001 
Q 2484 3981 2484 3953 
L 2484 1372 
L 2941 1372 
Q 2994 1372 3026 1317 
Q 3059 1263 3059 1150 
z
M 1963 3591 
L 1956 3591 
L 641 1372 
L 1963 1372 
L 1963 3591 
z
" id="Calibri-34" transform="scale(0.015625)"/>
       </defs>
       <use xlink:href="#Calibri-34"/>
      </g>
     </g>
    </g>
    <g id="ytick_4">
     <g id="line2d_17">
      <path clip-path="url(#p0fd0b71814)" d="M 88.2 265.738909 
L 635.04 265.738909 
" style="fill:none;stroke:#b0b0b0;stroke-dasharray:0.8,1.32;stroke-dashoffset:0;stroke-opacity:0.4;stroke-width:0.8;"/>
     </g>
     <g id="line2d_18">
      <g>
       <use style="stroke:#000000;stroke-width:0.8;" x="88.2" xlink:href="#mfdd012052e" y="265.738909"/>
      </g>
     </g>
     <g id="text_10">
      <!-- 6 -->
      <g transform="translate(76.13125 269.13969)scale(0.1 -0.1)">
       <defs>
        <path d="M 2991 1309 
Q 2991 1044 2909 795 
Q 2828 547 2659 358 
Q 2491 169 2231 55 
Q 1972 -59 1619 -59 
Q 1366 -59 1172 3 
Q 978 66 834 181 
Q 691 297 595 465 
Q 500 634 442 850 
Q 384 1066 359 1322 
Q 334 1578 334 1872 
Q 334 2131 362 2397 
Q 391 2663 462 2909 
Q 534 3156 657 3373 
Q 781 3591 967 3752 
Q 1153 3913 1412 4006 
Q 1672 4100 2016 4100 
Q 2131 4100 2250 4086 
Q 2369 4072 2469 4048 
Q 2569 4025 2637 3997 
Q 2706 3969 2728 3951 
Q 2750 3934 2761 3914 
Q 2772 3894 2778 3870 
Q 2784 3847 2787 3817 
Q 2791 3788 2791 3744 
Q 2791 3688 2789 3647 
Q 2788 3606 2777 3581 
Q 2766 3556 2748 3543 
Q 2731 3531 2703 3531 
Q 2669 3531 2609 3553 
Q 2550 3575 2465 3601 
Q 2381 3628 2261 3650 
Q 2141 3672 1981 3672 
Q 1691 3672 1481 3553 
Q 1272 3434 1139 3234 
Q 1006 3034 942 2770 
Q 878 2506 869 2219 
Q 950 2266 1051 2312 
Q 1153 2359 1273 2396 
Q 1394 2434 1528 2457 
Q 1663 2481 1816 2481 
Q 2144 2481 2369 2392 
Q 2594 2303 2733 2145 
Q 2872 1988 2931 1773 
Q 2991 1559 2991 1309 
z
M 2447 1259 
Q 2447 1441 2411 1589 
Q 2375 1738 2290 1841 
Q 2206 1944 2065 2000 
Q 1925 2056 1719 2056 
Q 1603 2056 1487 2036 
Q 1372 2016 1264 1980 
Q 1156 1944 1057 1895 
Q 959 1847 878 1791 
Q 878 1388 929 1116 
Q 981 844 1079 680 
Q 1178 516 1325 445 
Q 1472 375 1669 375 
Q 1869 375 2016 450 
Q 2163 525 2259 651 
Q 2356 778 2401 936 
Q 2447 1094 2447 1259 
z
" id="Calibri-36" transform="scale(0.015625)"/>
       </defs>
       <use xlink:href="#Calibri-36"/>
      </g>
     </g>
    </g>
    <g id="ytick_5">
     <g id="line2d_19">
      <path clip-path="url(#p0fd0b71814)" d="M 88.2 194.262545 
L 635.04 194.262545 
" style="fill:none;stroke:#b0b0b0;stroke-dasharray:0.8,1.32;stroke-dashoffset:0;stroke-opacity:0.4;stroke-width:0.8;"/>
     </g>
     <g id="line2d_20">
      <g>
       <use style="stroke:#000000;stroke-width:0.8;" x="88.2" xlink:href="#mfdd012052e" y="194.262545"/>
      </g>
     </g>
     <g id="text_11">
      <!-- 8 -->
      <g transform="translate(76.13125 197.663327)scale(0.1 -0.1)">
       <defs>
        <path d="M 2981 1038 
Q 2981 775 2887 570 
Q 2794 366 2617 225 
Q 2441 84 2181 12 
Q 1922 -59 1588 -59 
Q 1275 -59 1028 6 
Q 781 72 609 200 
Q 438 328 347 515 
Q 256 703 256 944 
Q 256 1134 318 1293 
Q 381 1453 498 1587 
Q 616 1722 787 1839 
Q 959 1956 1175 2063 
Q 988 2159 844 2267 
Q 700 2375 600 2501 
Q 500 2628 448 2772 
Q 397 2916 397 3084 
Q 397 3297 473 3483 
Q 550 3669 704 3806 
Q 859 3944 1098 4023 
Q 1338 4103 1656 4103 
Q 1963 4103 2186 4029 
Q 2409 3956 2554 3829 
Q 2700 3703 2769 3531 
Q 2838 3359 2838 3163 
Q 2838 3003 2786 2856 
Q 2734 2709 2634 2578 
Q 2534 2447 2389 2333 
Q 2244 2219 2056 2119 
Q 2278 2009 2451 1893 
Q 2625 1778 2742 1645 
Q 2859 1513 2920 1364 
Q 2981 1216 2981 1038 
z
M 2306 3113 
Q 2306 3244 2261 3350 
Q 2216 3456 2128 3531 
Q 2041 3606 1911 3645 
Q 1781 3684 1616 3684 
Q 1278 3684 1104 3531 
Q 931 3378 931 3113 
Q 931 2991 973 2886 
Q 1016 2781 1105 2687 
Q 1194 2594 1330 2505 
Q 1466 2416 1653 2319 
Q 1969 2481 2137 2678 
Q 2306 2875 2306 3113 
z
M 2438 981 
Q 2438 1125 2384 1242 
Q 2331 1359 2223 1461 
Q 2116 1563 1955 1658 
Q 1794 1753 1581 1856 
Q 1384 1759 1236 1662 
Q 1088 1566 992 1462 
Q 897 1359 848 1245 
Q 800 1131 800 994 
Q 800 691 1008 525 
Q 1216 359 1628 359 
Q 2028 359 2233 526 
Q 2438 694 2438 981 
z
" id="Calibri-38" transform="scale(0.015625)"/>
       </defs>
       <use xlink:href="#Calibri-38"/>
      </g>
     </g>
    </g>
    <g id="ytick_6">
     <g id="line2d_21">
      <path clip-path="url(#p0fd0b71814)" d="M 88.2 122.786182 
L 635.04 122.786182 
" style="fill:none;stroke:#b0b0b0;stroke-dasharray:0.8,1.32;stroke-dashoffset:0;stroke-opacity:0.4;stroke-width:0.8;"/>
     </g>
     <g id="line2d_22">
      <g>
       <use style="stroke:#000000;stroke-width:0.8;" x="88.2" xlink:href="#mfdd012052e" y="122.786182"/>
      </g>
     </g>
     <g id="text_12">
      <!-- 10 -->
      <g transform="translate(71.0625 126.186963)scale(0.1 -0.1)">
       <use xlink:href="#Calibri-31"/>
       <use x="50.683594" xlink:href="#Calibri-30"/>
      </g>
     </g>
    </g>
    <g id="text_13">
     <!-- $B_{ADC}$ (bits) -->
     <g transform="translate(64.3625 317.583)rotate(-90)scale(0.15 -0.15)">
      <defs>
       <path d="M 2356 4666 
L 3072 4666 
L 3938 0 
L 3278 0 
L 3084 1197 
L 984 1197 
L 325 0 
L -341 0 
L 2356 4666 
z
M 2584 4044 
L 1275 1722 
L 2988 1722 
L 2584 4044 
z
" id="DejaVuSans-Oblique-41" transform="scale(0.015625)"/>
       <path d="M 1081 4666 
L 2438 4666 
Q 3519 4666 4070 4208 
Q 4622 3750 4622 2847 
Q 4622 2250 4412 1698 
Q 4203 1147 3834 769 
Q 3463 381 2891 190 
Q 2319 0 1538 0 
L 172 0 
L 1081 4666 
z
M 1613 4147 
L 909 519 
L 1734 519 
Q 2794 519 3375 1128 
Q 3956 1738 3956 2847 
Q 3956 3519 3581 3833 
Q 3206 4147 2406 4147 
L 1613 4147 
z
" id="DejaVuSans-Oblique-44" transform="scale(0.015625)"/>
       <path d="M 4447 4306 
L 4319 3641 
Q 4019 3944 3683 4091 
Q 3347 4238 2956 4238 
Q 2422 4238 2017 3981 
Q 1613 3725 1319 3200 
Q 1131 2863 1032 2486 
Q 934 2109 934 1728 
Q 934 1091 1264 756 
Q 1594 422 2222 422 
Q 2656 422 3056 561 
Q 3456 700 3834 978 
L 3688 231 
Q 3316 72 2936 -9 
Q 2556 -91 2175 -91 
Q 1278 -91 773 396 
Q 269 884 269 1753 
Q 269 2309 461 2846 
Q 653 3384 1013 3828 
Q 1394 4300 1883 4525 
Q 2372 4750 3022 4750 
Q 3422 4750 3780 4639 
Q 4138 4528 4447 4306 
z
" id="DejaVuSans-Oblique-43" transform="scale(0.015625)"/>
      </defs>
      <use transform="translate(0 0.09375)" xlink:href="#DejaVuSans-Oblique-42"/>
      <use transform="translate(68.603516 -16.3125)scale(0.7)" xlink:href="#DejaVuSans-Oblique-41"/>
      <use transform="translate(116.489258 -16.3125)scale(0.7)" xlink:href="#DejaVuSans-Oblique-44"/>
      <use transform="translate(170.390625 -16.3125)scale(0.7)" xlink:href="#DejaVuSans-Oblique-43"/>
      <use transform="translate(222.001953 0.09375)" xlink:href="#Calibri-20"/>
      <use transform="translate(243.484375 0.09375)" xlink:href="#Calibri-28"/>
      <use transform="translate(273.806641 0.09375)" xlink:href="#Calibri-62"/>
      <use transform="translate(326.345703 0.09375)" xlink:href="#Calibri-69"/>
      <use transform="translate(349.294922 0.09375)" xlink:href="#Calibri-74"/>
      <use transform="translate(382.791016 0.09375)" xlink:href="#Calibri-73"/>
      <use transform="translate(421.902344 0.09375)" xlink:href="#Calibri-29"/>
     </g>
    </g>
   </g>
   <g id="PathCollection_1">
    <defs>
     <path d="M 0 5 
C 1.326016 5 2.597899 4.473168 3.535534 3.535534 
C 4.473168 2.597899 5 1.326016 5 0 
C 5 -1.326016 4.473168 -2.597899 3.535534 -3.535534 
C 2.597899 -4.473168 1.326016 -5 0 -5 
C -1.326016 -5 -2.597899 -4.473168 -3.535534 -3.535534 
C -4.473168 -2.597899 -5 -1.326016 -5 0 
C -5 1.326016 -4.473168 2.597899 -3.535534 3.535534 
C -2.597899 4.473168 -1.326016 5 0 5 
z
" id="mb1917cbc27" style="stroke:#ff0000;"/>
    </defs>
    <g clip-path="url(#p0fd0b71814)">
     <use style="fill:#ff0000;stroke:#ff0000;" x="0" xlink:href="#mb1917cbc27" y="0"/>
    </g>
   </g>
   <g id="PathCollection_2">
    <defs>
     <path d="M -5 5 
L 5 5 
L 5 -5 
L -5 -5 
z
" id="m18f4ecbdeb" style="stroke:#ff0000;"/>
    </defs>
    <g clip-path="url(#p0fd0b71814)">
     <use style="fill:#ff0000;stroke:#ff0000;" x="415.655573" xlink:href="#m18f4ecbdeb" y="337.215273"/>
     <use style="fill:#ff0000;stroke:#ff0000;" x="415.655573" xlink:href="#m18f4ecbdeb" y="337.215273"/>
    </g>
   </g>
   <g id="PathCollection_3">
    <defs>
     <path d="M 0 5 
C 1.326016 5 2.597899 4.473168 3.535534 3.535534 
C 4.473168 2.597899 5 1.326016 5 0 
C 5 -1.326016 4.473168 -2.597899 3.535534 -3.535534 
C 2.597899 -4.473168 1.326016 -5 0 -5 
C -1.326016 -5 -2.597899 -4.473168 -3.535534 -3.535534 
C -4.473168 -2.597899 -5 -1.326016 -5 0 
C -5 1.326016 -4.473168 2.597899 -3.535534 3.535534 
C -2.597899 4.473168 -1.326016 5 0 5 
z
" id="m6f29bfdf80" style="stroke:#7cfc00;"/>
    </defs>
    <g clip-path="url(#p0fd0b71814)">
     <use style="fill:#7cfc00;stroke:#7cfc00;" x="301.100154" xlink:href="#m6f29bfdf80" y="444.429818"/>
    </g>
   </g>
   <g id="PathCollection_4">
    <defs>
     <path d="M -5 5 
L 5 5 
L 5 -5 
L -5 -5 
z
" id="me1b4f81658" style="stroke:#7cfc00;"/>
    </defs>
    <g clip-path="url(#p0fd0b71814)">
     <use style="fill:#7cfc00;stroke:#7cfc00;" x="333.521498" xlink:href="#me1b4f81658" y="194.262545"/>
    </g>
   </g>
   <g id="PathCollection_5">
    <defs>
     <path d="M 0 5 
C 1.326016 5 2.597899 4.473168 3.535534 3.535534 
C 4.473168 2.597899 5 1.326016 5 0 
C 5 -1.326016 4.473168 -2.597899 3.535534 -3.535534 
C 2.597899 -4.473168 1.326016 -5 0 -5 
C -1.326016 -5 -2.597899 -4.473168 -3.535534 -3.535534 
C -4.473168 -2.597899 -5 -1.326016 -5 0 
C -5 1.326016 -4.473168 2.597899 -3.535534 3.535534 
C -2.597899 4.473168 -1.326016 5 0 5 
z
" id="mc6a10d696b" style="stroke:#0000ff;"/>
    </defs>
    <g clip-path="url(#p0fd0b71814)">
     <use style="fill:#0000ff;stroke:#0000ff;" x="458.884032" xlink:href="#mc6a10d696b" y="480.168"/>
     <use style="fill:#0000ff;stroke:#0000ff;" x="512.919605" xlink:href="#mc6a10d696b" y="265.738909"/>
     <use style="fill:#0000ff;stroke:#0000ff;" x="512.919605" xlink:href="#mc6a10d696b" y="265.738909"/>
     <use style="fill:#0000ff;stroke:#0000ff;" x="491.305375" xlink:href="#mc6a10d696b" y="265.738909"/>
     <use style="fill:#0000ff;stroke:#0000ff;" x="588.569407" xlink:href="#mc6a10d696b" y="194.262545"/>
    </g>
   </g>
   <g id="PathCollection_6">
    <defs>
     <path d="M -5 5 
L 5 5 
L 5 -5 
L -5 -5 
z
" id="m4c8322e727" style="stroke:#0000ff;"/>
    </defs>
    <g clip-path="url(#p0fd0b71814)">
     <use style="fill:#0000ff;stroke:#0000ff;" x="285.970198" xlink:href="#m4c8322e727" y="122.786182"/>
     <use style="fill:#0000ff;stroke:#0000ff;" x="285.970198" xlink:href="#m4c8322e727" y="122.786182"/>
     <use style="fill:#0000ff;stroke:#0000ff;" x="285.970198" xlink:href="#m4c8322e727" y="301.477091"/>
     <use style="fill:#0000ff;stroke:#0000ff;" x="285.970198" xlink:href="#m4c8322e727" y="301.477091"/>
     <use style="fill:#0000ff;stroke:#0000ff;" x="441.592644" xlink:href="#m4c8322e727" y="194.262545"/>
     <use style="fill:#0000ff;stroke:#0000ff;" x="285.970198" xlink:href="#m4c8322e727" y="337.215273"/>
     <use style="fill:#0000ff;stroke:#0000ff;" x="242.741739" xlink:href="#m4c8322e727" y="301.477091"/>
     <use style="fill:#0000ff;stroke:#0000ff;" x="242.741739" xlink:href="#m4c8322e727" y="301.477091"/>
     <use style="fill:#0000ff;stroke:#0000ff;" x="242.741739" xlink:href="#m4c8322e727" y="265.738909"/>
     <use style="fill:#0000ff;stroke:#0000ff;" x="469.691146" xlink:href="#m4c8322e727" y="301.477091"/>
     <use style="fill:#0000ff;stroke:#0000ff;" x="484.821123" xlink:href="#m4c8322e727" y="301.477091"/>
     <use style="fill:#0000ff;stroke:#0000ff;" x="277.324504" xlink:href="#m4c8322e727" y="444.429818"/>
     <use style="fill:#0000ff;stroke:#0000ff;" x="285.970198" xlink:href="#m4c8322e727" y="230.000727"/>
     <use style="fill:#0000ff;stroke:#0000ff;" x="394.041344" xlink:href="#m4c8322e727" y="265.738909"/>
     <use style="fill:#0000ff;stroke:#0000ff;" x="394.041344" xlink:href="#m4c8322e727" y="265.738909"/>
    </g>
   </g>
   <g id="PathCollection_7">
    <defs>
     <path d="M 0 5 
C 1.326016 5 2.597899 4.473168 3.535534 3.535534 
C 4.473168 2.597899 5 1.326016 5 0 
C 5 -1.326016 4.473168 -2.597899 3.535534 -3.535534 
C 2.597899 -4.473168 1.326016 -5 0 -5 
C -1.326016 -5 -2.597899 -4.473168 -3.535534 -3.535534 
C -4.473168 -2.597899 -5 -1.326016 -5 0 
C -5 1.326016 -4.473168 2.597899 -3.535534 3.535534 
C -2.597899 4.473168 -1.326016 5 0 5 
z
" id="m50821e8835" style="stroke:#00ffff;"/>
    </defs>
    <g clip-path="url(#p0fd0b71814)">
     <use style="fill:#00ffff;stroke:#00ffff;" x="394.041344" xlink:href="#m50821e8835" y="265.738909"/>
    </g>
   </g>
   <g id="PathCollection_8">
    <defs>
     <path d="M -5 5 
L 5 5 
L 5 -5 
L -5 -5 
z
" id="m3382e15b4e" style="stroke:#00ffff;"/>
    </defs>
    <g clip-path="url(#p0fd0b71814)">
     <use style="fill:#00ffff;stroke:#00ffff;" x="368.104273" xlink:href="#m3382e15b4e" y="301.477091"/>
     <use style="fill:#00ffff;stroke:#00ffff;" x="394.041344" xlink:href="#m3382e15b4e" y="301.477091"/>
    </g>
   </g>
   <g id="PathCollection_9">
    <defs>
     <path d="M 0 5 
C 1.326016 5 2.597899 4.473168 3.535534 3.535534 
C 4.473168 2.597899 5 1.326016 5 0 
C 5 -1.326016 4.473168 -2.597899 3.535534 -3.535534 
C 2.597899 -4.473168 1.326016 -5 0 -5 
C -1.326016 -5 -2.597899 -4.473168 -3.535534 -3.535534 
C -4.473168 -2.597899 -5 -1.326016 -5 0 
C -5 1.326016 -4.473168 2.597899 -3.535534 3.535534 
C -2.597899 4.473168 -1.326016 5 0 5 
z
" id="m3f44d3d6ed" style="stroke:#000000;"/>
    </defs>
    <g clip-path="url(#p0fd0b71814)">
     <use style="stroke:#000000;" x="264.355968" xlink:href="#m3f44d3d6ed" y="337.215273"/>
     <use style="stroke:#000000;" x="404.848458" xlink:href="#m3f44d3d6ed" y="301.477091"/>
     <use style="stroke:#000000;" x="177.899051" xlink:href="#m3f44d3d6ed" y="372.953455"/>
     <use style="stroke:#000000;" x="177.899051" xlink:href="#m3f44d3d6ed" y="372.953455"/>
     <use style="stroke:#000000;" x="329.198656" xlink:href="#m3f44d3d6ed" y="301.477091"/>
     <use style="stroke:#000000;" x="329.198656" xlink:href="#m3f44d3d6ed" y="301.477091"/>
     <use style="stroke:#000000;" x="242.741739" xlink:href="#m3f44d3d6ed" y="444.429818"/>
     <use style="stroke:#000000;" x="242.741739" xlink:href="#m3f44d3d6ed" y="301.477091"/>
     <use style="stroke:#000000;" x="355.135727" xlink:href="#m3f44d3d6ed" y="194.262545"/>
     <use style="stroke:#000000;" x="355.135727" xlink:href="#m3f44d3d6ed" y="194.262545"/>
     <use style="stroke:#000000;" x="285.970198" xlink:href="#m3f44d3d6ed" y="358.658178"/>
     <use style="stroke:#000000;" x="156.284822" xlink:href="#m3f44d3d6ed" y="372.953455"/>
     <use style="stroke:#000000;" x="242.741739" xlink:href="#m3f44d3d6ed" y="444.429818"/>
     <use style="stroke:#000000;" x="610.183636" xlink:href="#m3f44d3d6ed" y="265.738909"/>
     <use style="stroke:#000000;" x="385.39566" xlink:href="#m3f44d3d6ed" y="230.000727"/>
     <use style="stroke:#000000;" x="407.00989" xlink:href="#m3f44d3d6ed" y="444.429818"/>
     <use style="stroke:#000000;" x="285.970198" xlink:href="#m3f44d3d6ed" y="356.51389"/>
     <use style="stroke:#000000;" x="285.970198" xlink:href="#m3f44d3d6ed" y="356.51389"/>
     <use style="stroke:#000000;" x="398.364186" xlink:href="#m3f44d3d6ed" y="194.262545"/>
     <use style="stroke:#000000;" x="398.364186" xlink:href="#m3f44d3d6ed" y="194.262545"/>
     <use style="stroke:#000000;" x="415.655573" xlink:href="#m3f44d3d6ed" y="301.477091"/>
     <use style="stroke:#000000;" x="415.655573" xlink:href="#m3f44d3d6ed" y="301.477091"/>
    </g>
   </g>
   <g id="PathCollection_10">
    <defs>
     <path d="M -5 5 
L 5 5 
L 5 -5 
L -5 -5 
z
" id="m311c208b90" style="stroke:#000000;"/>
    </defs>
    <g clip-path="url(#p0fd0b71814)">
     <use style="stroke:#000000;" x="372.427115" xlink:href="#m311c208b90" y="301.477091"/>
    </g>
   </g>
   <g id="line2d_23">
    <path clip-path="url(#p0fd0b71814)" d="M 113.056364 480.168 
L 134.670593 444.429818 
L 156.284822 408.691636 
L 177.899051 372.953455 
L 199.513281 337.215273 
L 221.12751 301.477091 
L 242.741739 265.738909 
L 264.355968 230.000727 
L 285.970198 194.262545 
L 307.584427 158.524364 
L 329.198656 122.786182 
L 350.812885 87.048 
" style="fill:none;stroke:#000000;stroke-dasharray:5.55,2.4;stroke-dashoffset:0;stroke-width:1.5;"/>
   </g>
   <g id="patch_3">
    <path d="M 88.2 499.824 
L 88.2 67.392 
" style="fill:none;stroke:#000000;stroke-linecap:square;stroke-linejoin:miter;stroke-width:0.8;"/>
   </g>
   <g id="patch_4">
    <path d="M 635.04 499.824 
L 635.04 67.392 
" style="fill:none;stroke:#000000;stroke-linecap:square;stroke-linejoin:miter;stroke-width:0.8;"/>
   </g>
   <g id="patch_5">
    <path d="M 88.2 499.824 
L 635.04 499.824 
" style="fill:none;stroke:#000000;stroke-linecap:square;stroke-linejoin:miter;stroke-width:0.8;"/>
   </g>
   <g id="patch_6">
    <path d="M 88.2 67.392 
L 635.04 67.392 
" style="fill:none;stroke:#000000;stroke-linecap:square;stroke-linejoin:miter;stroke-width:0.8;"/>
   </g>
   <g id="text_14">
    <!-- ADC Precision vs. Pre-ADC Information Content -->
    <g transform="translate(214.656328 61.392)scale(0.15 -0.15)">
     <defs>
      <path d="M 3753 306 
Q 3791 194 3800 128 
Q 3809 63 3775 30 
Q 3741 -3 3653 -11 
Q 3566 -19 3413 -19 
Q 3253 -19 3164 -14 
Q 3075 -9 3028 5 
Q 2981 19 2962 44 
Q 2944 69 2931 109 
L 2659 922 
L 1141 922 
L 884 131 
Q 872 88 851 58 
Q 831 28 786 11 
Q 741 -6 658 -12 
Q 575 -19 441 -19 
Q 297 -19 215 -9 
Q 134 0 103 36 
Q 72 72 81 137 
Q 91 203 128 313 
L 1375 3900 
Q 1394 3953 1419 3986 
Q 1444 4019 1498 4036 
Q 1553 4053 1650 4058 
Q 1747 4063 1906 4063 
Q 2091 4063 2200 4058 
Q 2309 4053 2370 4036 
Q 2431 4019 2457 3984 
Q 2484 3950 2503 3891 
L 3753 306 
z
M 1897 3272 
L 1894 3272 
L 1322 1553 
L 2469 1553 
L 1897 3272 
z
" id="Calibri-Bold-41" transform="scale(0.015625)"/>
      <path d="M 3800 2081 
Q 3800 1525 3654 1129 
Q 3509 734 3237 484 
Q 2966 234 2577 117 
Q 2188 0 1650 0 
L 684 0 
Q 581 0 511 61 
Q 441 122 441 259 
L 441 3784 
Q 441 3922 511 3983 
Q 581 4044 684 4044 
L 1722 4044 
Q 2263 4044 2639 3917 
Q 3016 3791 3273 3542 
Q 3531 3294 3665 2928 
Q 3800 2563 3800 2081 
z
M 2950 2053 
Q 2950 2341 2883 2587 
Q 2816 2834 2667 3015 
Q 2519 3197 2286 3298 
Q 2053 3400 1675 3400 
L 1259 3400 
L 1259 650 
L 1688 650 
Q 2025 650 2256 737 
Q 2488 825 2642 1001 
Q 2797 1178 2873 1440 
Q 2950 1703 2950 2053 
z
" id="Calibri-Bold-44" transform="scale(0.015625)"/>
      <path d="M 3238 613 
Q 3238 534 3233 479 
Q 3228 425 3218 386 
Q 3209 347 3193 319 
Q 3178 291 3143 255 
Q 3109 219 3011 162 
Q 2913 106 2770 54 
Q 2628 3 2445 -31 
Q 2263 -66 2050 -66 
Q 1634 -66 1300 62 
Q 966 191 731 445 
Q 497 700 372 1081 
Q 247 1463 247 1969 
Q 247 2484 384 2884 
Q 522 3284 769 3556 
Q 1016 3828 1361 3968 
Q 1706 4109 2122 4109 
Q 2291 4109 2447 4081 
Q 2603 4053 2736 4008 
Q 2869 3963 2975 3903 
Q 3081 3844 3123 3801 
Q 3166 3759 3181 3731 
Q 3197 3703 3206 3659 
Q 3216 3616 3220 3556 
Q 3225 3497 3225 3409 
Q 3225 3316 3219 3250 
Q 3213 3184 3197 3143 
Q 3181 3103 3159 3084 
Q 3138 3066 3109 3066 
Q 3063 3066 2991 3120 
Q 2919 3175 2805 3242 
Q 2691 3309 2533 3364 
Q 2375 3419 2156 3419 
Q 1916 3419 1727 3320 
Q 1538 3222 1405 3039 
Q 1272 2856 1203 2597 
Q 1134 2338 1134 2013 
Q 1134 1656 1207 1395 
Q 1281 1134 1417 965 
Q 1553 797 1745 714 
Q 1938 631 2178 631 
Q 2397 631 2556 682 
Q 2716 734 2830 796 
Q 2944 859 3017 909 
Q 3091 959 3131 959 
Q 3163 959 3181 946 
Q 3200 934 3212 896 
Q 3225 859 3231 792 
Q 3238 725 3238 613 
z
" id="Calibri-Bold-43" transform="scale(0.015625)"/>
      <path id="Calibri-Bold-20" transform="scale(0.015625)"/>
      <path d="M 3209 2816 
Q 3209 2475 3103 2212 
Q 2997 1950 2794 1770 
Q 2591 1591 2295 1497 
Q 2000 1403 1600 1403 
L 1263 1403 
L 1263 113 
Q 1263 81 1242 56 
Q 1222 31 1175 15 
Q 1128 0 1050 -9 
Q 972 -19 850 -19 
Q 731 -19 651 -9 
Q 572 0 525 15 
Q 478 31 459 56 
Q 441 81 441 113 
L 441 3750 
Q 441 3897 517 3970 
Q 594 4044 719 4044 
L 1672 4044 
Q 1816 4044 1945 4033 
Q 2075 4022 2256 3986 
Q 2438 3950 2623 3853 
Q 2809 3756 2940 3607 
Q 3072 3459 3140 3261 
Q 3209 3063 3209 2816 
z
M 2350 2756 
Q 2350 2969 2275 3106 
Q 2200 3244 2090 3309 
Q 1981 3375 1861 3392 
Q 1741 3409 1613 3409 
L 1263 3409 
L 1263 2038 
L 1631 2038 
Q 1828 2038 1961 2091 
Q 2094 2144 2178 2239 
Q 2263 2334 2306 2467 
Q 2350 2600 2350 2756 
z
" id="Calibri-Bold-50" transform="scale(0.015625)"/>
      <path d="M 2184 2634 
Q 2184 2522 2178 2450 
Q 2172 2378 2159 2337 
Q 2147 2297 2126 2281 
Q 2106 2266 2075 2266 
Q 2050 2266 2019 2277 
Q 1988 2288 1948 2300 
Q 1909 2313 1862 2323 
Q 1816 2334 1759 2334 
Q 1694 2334 1628 2307 
Q 1563 2281 1492 2225 
Q 1422 2169 1345 2075 
Q 1269 1981 1181 1844 
L 1181 106 
Q 1181 75 1162 51 
Q 1144 28 1098 12 
Q 1053 -3 978 -11 
Q 903 -19 788 -19 
Q 672 -19 597 -11 
Q 522 -3 476 12 
Q 431 28 412 51 
Q 394 75 394 106 
L 394 2894 
Q 394 2925 409 2948 
Q 425 2972 465 2987 
Q 506 3003 570 3011 
Q 634 3019 731 3019 
Q 831 3019 897 3011 
Q 963 3003 998 2987 
Q 1034 2972 1050 2948 
Q 1066 2925 1066 2894 
L 1066 2547 
Q 1175 2703 1272 2804 
Q 1369 2906 1456 2965 
Q 1544 3025 1631 3048 
Q 1719 3072 1806 3072 
Q 1847 3072 1894 3067 
Q 1941 3063 1991 3052 
Q 2041 3041 2078 3027 
Q 2116 3013 2133 2997 
Q 2150 2981 2158 2962 
Q 2166 2944 2172 2911 
Q 2178 2878 2181 2812 
Q 2184 2747 2184 2634 
z
" id="Calibri-Bold-72" transform="scale(0.015625)"/>
      <path d="M 2969 1581 
Q 2969 1438 2905 1369 
Q 2841 1300 2728 1300 
L 1031 1300 
Q 1031 1122 1073 976 
Q 1116 831 1208 729 
Q 1300 628 1445 575 
Q 1591 522 1794 522 
Q 2000 522 2156 551 
Q 2313 581 2427 617 
Q 2541 653 2616 683 
Q 2691 713 2738 713 
Q 2766 713 2784 702 
Q 2803 691 2815 662 
Q 2828 634 2833 582 
Q 2838 531 2838 453 
Q 2838 384 2834 336 
Q 2831 288 2825 253 
Q 2819 219 2806 195 
Q 2794 172 2773 150 
Q 2753 128 2662 90 
Q 2572 53 2431 17 
Q 2291 -19 2109 -45 
Q 1928 -72 1722 -72 
Q 1350 -72 1070 22 
Q 791 116 603 306 
Q 416 497 323 787 
Q 231 1078 231 1469 
Q 231 1841 328 2139 
Q 425 2438 609 2645 
Q 794 2853 1058 2962 
Q 1322 3072 1653 3072 
Q 2003 3072 2251 2969 
Q 2500 2866 2659 2683 
Q 2819 2500 2894 2250 
Q 2969 2000 2969 1706 
L 2969 1581 
z
M 2206 1806 
Q 2216 2138 2073 2327 
Q 1931 2516 1634 2516 
Q 1484 2516 1373 2459 
Q 1263 2403 1189 2308 
Q 1116 2213 1077 2083 
Q 1038 1953 1031 1806 
L 2206 1806 
z
" id="Calibri-Bold-65" transform="scale(0.015625)"/>
      <path d="M 2503 550 
Q 2503 469 2498 414 
Q 2494 359 2486 321 
Q 2478 284 2467 261 
Q 2456 238 2418 202 
Q 2381 166 2290 114 
Q 2200 63 2084 22 
Q 1969 -19 1833 -44 
Q 1697 -69 1553 -69 
Q 1231 -69 982 31 
Q 734 131 565 326 
Q 397 522 311 803 
Q 225 1084 225 1447 
Q 225 1866 329 2170 
Q 434 2475 621 2675 
Q 809 2875 1065 2972 
Q 1322 3069 1628 3069 
Q 1753 3069 1873 3047 
Q 1994 3025 2098 2987 
Q 2203 2950 2286 2903 
Q 2369 2856 2403 2822 
Q 2438 2788 2452 2764 
Q 2466 2741 2473 2703 
Q 2481 2666 2486 2611 
Q 2491 2556 2491 2478 
Q 2491 2297 2459 2223 
Q 2428 2150 2378 2150 
Q 2325 2150 2265 2194 
Q 2206 2238 2125 2291 
Q 2044 2344 1931 2387 
Q 1819 2431 1663 2431 
Q 1356 2431 1193 2195 
Q 1031 1959 1031 1503 
Q 1031 1278 1072 1106 
Q 1113 934 1192 818 
Q 1272 703 1392 645 
Q 1513 588 1672 588 
Q 1834 588 1951 636 
Q 2069 684 2156 743 
Q 2244 803 2303 851 
Q 2363 900 2403 900 
Q 2431 900 2450 884 
Q 2469 869 2480 826 
Q 2491 784 2497 718 
Q 2503 653 2503 550 
z
" id="Calibri-Bold-63" transform="scale(0.015625)"/>
      <path d="M 1181 106 
Q 1181 75 1162 51 
Q 1144 28 1098 12 
Q 1053 -3 978 -11 
Q 903 -19 788 -19 
Q 672 -19 597 -11 
Q 522 -3 476 12 
Q 431 28 412 51 
Q 394 75 394 106 
L 394 2888 
Q 394 2919 412 2942 
Q 431 2966 476 2983 
Q 522 3000 597 3009 
Q 672 3019 788 3019 
Q 903 3019 978 3009 
Q 1053 3000 1098 2983 
Q 1144 2966 1162 2942 
Q 1181 2919 1181 2888 
L 1181 106 
z
M 1241 3838 
Q 1241 3600 1144 3509 
Q 1047 3419 784 3419 
Q 519 3419 426 3506 
Q 334 3594 334 3822 
Q 334 4059 429 4151 
Q 525 4244 791 4244 
Q 1053 4244 1147 4155 
Q 1241 4066 1241 3838 
z
" id="Calibri-Bold-69" transform="scale(0.015625)"/>
      <path d="M 2356 894 
Q 2356 656 2267 475 
Q 2178 294 2015 172 
Q 1853 50 1631 -11 
Q 1409 -72 1150 -72 
Q 994 -72 851 -48 
Q 709 -25 596 11 
Q 484 47 409 84 
Q 334 122 300 155 
Q 266 188 247 258 
Q 228 328 228 466 
Q 228 556 234 611 
Q 241 666 253 698 
Q 266 731 284 742 
Q 303 753 331 753 
Q 366 753 433 714 
Q 500 675 600 628 
Q 700 581 833 540 
Q 966 500 1134 500 
Q 1241 500 1323 522 
Q 1406 544 1467 584 
Q 1528 625 1559 687 
Q 1591 750 1591 831 
Q 1591 925 1533 992 
Q 1475 1059 1379 1109 
Q 1284 1159 1164 1203 
Q 1044 1247 917 1300 
Q 791 1353 670 1422 
Q 550 1491 454 1591 
Q 359 1691 301 1831 
Q 244 1972 244 2169 
Q 244 2369 322 2536 
Q 400 2703 547 2822 
Q 694 2941 905 3006 
Q 1116 3072 1378 3072 
Q 1509 3072 1632 3053 
Q 1756 3034 1856 3006 
Q 1956 2978 2025 2945 
Q 2094 2913 2123 2889 
Q 2153 2866 2165 2842 
Q 2178 2819 2184 2786 
Q 2191 2753 2195 2704 
Q 2200 2656 2200 2584 
Q 2200 2500 2195 2447 
Q 2191 2394 2180 2362 
Q 2169 2331 2150 2320 
Q 2131 2309 2106 2309 
Q 2078 2309 2018 2342 
Q 1959 2375 1870 2412 
Q 1781 2450 1664 2483 
Q 1547 2516 1397 2516 
Q 1291 2516 1212 2494 
Q 1134 2472 1084 2431 
Q 1034 2391 1009 2336 
Q 984 2281 984 2219 
Q 984 2122 1043 2056 
Q 1103 1991 1200 1941 
Q 1297 1891 1420 1847 
Q 1544 1803 1670 1751 
Q 1797 1700 1920 1631 
Q 2044 1563 2141 1463 
Q 2238 1363 2297 1223 
Q 2356 1084 2356 894 
z
" id="Calibri-Bold-73" transform="scale(0.015625)"/>
      <path d="M 3213 1528 
Q 3213 1172 3119 878 
Q 3025 584 2834 371 
Q 2644 159 2356 43 
Q 2069 -72 1684 -72 
Q 1313 -72 1038 31 
Q 763 134 581 331 
Q 400 528 312 815 
Q 225 1103 225 1472 
Q 225 1828 320 2123 
Q 416 2419 606 2630 
Q 797 2841 1083 2956 
Q 1369 3072 1753 3072 
Q 2128 3072 2403 2970 
Q 2678 2869 2858 2672 
Q 3038 2475 3125 2187 
Q 3213 1900 3213 1528 
z
M 2403 1497 
Q 2403 1703 2370 1876 
Q 2338 2050 2259 2178 
Q 2181 2306 2051 2378 
Q 1922 2450 1725 2450 
Q 1550 2450 1419 2386 
Q 1288 2322 1203 2198 
Q 1119 2075 1076 1901 
Q 1034 1728 1034 1506 
Q 1034 1300 1068 1126 
Q 1103 953 1179 825 
Q 1256 697 1387 626 
Q 1519 556 1713 556 
Q 1891 556 2022 620 
Q 2153 684 2237 806 
Q 2322 928 2362 1101 
Q 2403 1275 2403 1497 
z
" id="Calibri-Bold-6f" transform="scale(0.015625)"/>
      <path d="M 3056 106 
Q 3056 75 3037 51 
Q 3019 28 2975 12 
Q 2931 -3 2854 -11 
Q 2778 -19 2666 -19 
Q 2550 -19 2473 -11 
Q 2397 -3 2353 12 
Q 2309 28 2290 51 
Q 2272 75 2272 106 
L 2272 1697 
Q 2272 1900 2242 2015 
Q 2213 2131 2156 2214 
Q 2100 2297 2011 2342 
Q 1922 2388 1803 2388 
Q 1653 2388 1500 2278 
Q 1347 2169 1181 1959 
L 1181 106 
Q 1181 75 1162 51 
Q 1144 28 1098 12 
Q 1053 -3 978 -11 
Q 903 -19 788 -19 
Q 672 -19 597 -11 
Q 522 -3 476 12 
Q 431 28 412 51 
Q 394 75 394 106 
L 394 2894 
Q 394 2925 409 2948 
Q 425 2972 465 2987 
Q 506 3003 570 3011 
Q 634 3019 731 3019 
Q 831 3019 897 3011 
Q 963 3003 998 2987 
Q 1034 2972 1050 2948 
Q 1066 2925 1066 2894 
L 1066 2572 
Q 1297 2822 1536 2947 
Q 1775 3072 2034 3072 
Q 2319 3072 2514 2978 
Q 2709 2884 2829 2723 
Q 2950 2563 3003 2347 
Q 3056 2131 3056 1828 
L 3056 106 
z
" id="Calibri-Bold-6e" transform="scale(0.015625)"/>
      <path d="M 2959 2897 
Q 2959 2881 2957 2859 
Q 2956 2838 2951 2811 
Q 2947 2784 2939 2750 
Q 2931 2716 2919 2672 
L 2081 150 
Q 2066 97 2039 64 
Q 2013 31 1952 12 
Q 1891 -6 1786 -12 
Q 1681 -19 1513 -19 
Q 1347 -19 1242 -11 
Q 1138 -3 1078 15 
Q 1019 34 992 67 
Q 966 100 950 150 
L 113 2672 
Q 94 2734 83 2784 
Q 72 2834 70 2856 
Q 69 2878 69 2897 
Q 69 2928 86 2951 
Q 103 2975 147 2990 
Q 191 3006 267 3012 
Q 344 3019 459 3019 
Q 588 3019 666 3011 
Q 744 3003 789 2989 
Q 834 2975 853 2948 
Q 872 2922 884 2884 
L 1519 838 
L 1538 759 
L 1556 838 
L 2181 2884 
Q 2191 2922 2211 2948 
Q 2231 2975 2275 2989 
Q 2319 3003 2392 3011 
Q 2466 3019 2584 3019 
Q 2700 3019 2773 3012 
Q 2847 3006 2887 2990 
Q 2928 2975 2943 2951 
Q 2959 2928 2959 2897 
z
" id="Calibri-Bold-76" transform="scale(0.015625)"/>
      <path d="M 1319 450 
Q 1319 159 1217 59 
Q 1116 -41 853 -41 
Q 591 -41 491 57 
Q 391 156 391 431 
Q 391 725 492 825 
Q 594 925 859 925 
Q 1119 925 1219 826 
Q 1319 728 1319 450 
z
" id="Calibri-Bold-2e" transform="scale(0.015625)"/>
      <path d="M 1775 1572 
Q 1775 1391 1740 1319 
Q 1706 1247 1631 1247 
L 331 1247 
Q 253 1247 218 1320 
Q 184 1394 184 1572 
Q 184 1747 218 1819 
Q 253 1891 331 1891 
L 1631 1891 
Q 1669 1891 1695 1875 
Q 1722 1859 1740 1821 
Q 1759 1784 1767 1721 
Q 1775 1659 1775 1572 
z
" id="Calibri-Bold-2d" transform="scale(0.015625)"/>
      <path d="M 1266 113 
Q 1266 81 1245 56 
Q 1225 31 1178 15 
Q 1131 0 1053 -9 
Q 975 -19 853 -19 
Q 734 -19 654 -9 
Q 575 0 528 15 
Q 481 31 461 56 
Q 441 81 441 113 
L 441 3931 
Q 441 3963 461 3988 
Q 481 4013 529 4028 
Q 578 4044 656 4053 
Q 734 4063 853 4063 
Q 975 4063 1053 4053 
Q 1131 4044 1178 4028 
Q 1225 4013 1245 3988 
Q 1266 3963 1266 3931 
L 1266 113 
z
" id="Calibri-Bold-49" transform="scale(0.015625)"/>
      <path d="M 2075 3956 
Q 2075 3866 2069 3811 
Q 2063 3756 2050 3726 
Q 2038 3697 2022 3686 
Q 2006 3675 1988 3675 
Q 1966 3675 1939 3686 
Q 1913 3697 1873 3709 
Q 1834 3722 1781 3733 
Q 1728 3744 1656 3744 
Q 1572 3744 1511 3717 
Q 1450 3691 1409 3633 
Q 1369 3575 1350 3483 
Q 1331 3391 1331 3256 
L 1331 3000 
L 1841 3000 
Q 1869 3000 1892 2984 
Q 1916 2969 1931 2933 
Q 1947 2897 1955 2834 
Q 1963 2772 1963 2681 
Q 1963 2509 1931 2436 
Q 1900 2363 1841 2363 
L 1331 2363 
L 1331 106 
Q 1331 75 1312 51 
Q 1294 28 1250 12 
Q 1206 -3 1128 -11 
Q 1050 -19 938 -19 
Q 825 -19 748 -11 
Q 672 -3 626 12 
Q 581 28 564 51 
Q 547 75 547 106 
L 547 2363 
L 197 2363 
Q 138 2363 108 2436 
Q 78 2509 78 2681 
Q 78 2772 86 2834 
Q 94 2897 108 2933 
Q 122 2969 145 2984 
Q 169 3000 200 3000 
L 547 3000 
L 547 3234 
Q 547 3519 603 3733 
Q 659 3947 779 4089 
Q 900 4231 1086 4303 
Q 1272 4375 1525 4375 
Q 1647 4375 1756 4354 
Q 1866 4334 1928 4311 
Q 1991 4288 2012 4267 
Q 2034 4247 2048 4208 
Q 2063 4169 2069 4108 
Q 2075 4047 2075 3956 
z
" id="Calibri-Bold-66" transform="scale(0.015625)"/>
      <path d="M 4828 106 
Q 4828 75 4809 51 
Q 4791 28 4747 12 
Q 4703 -3 4628 -11 
Q 4553 -19 4438 -19 
Q 4319 -19 4244 -11 
Q 4169 -3 4123 12 
Q 4078 28 4061 51 
Q 4044 75 4044 106 
L 4044 1759 
Q 4044 1900 4017 2015 
Q 3991 2131 3936 2214 
Q 3881 2297 3798 2342 
Q 3716 2388 3600 2388 
Q 3459 2388 3315 2278 
Q 3172 2169 3003 1959 
L 3003 106 
Q 3003 75 2984 51 
Q 2966 28 2920 12 
Q 2875 -3 2800 -11 
Q 2725 -19 2613 -19 
Q 2497 -19 2422 -11 
Q 2347 -3 2301 12 
Q 2256 28 2237 51 
Q 2219 75 2219 106 
L 2219 1759 
Q 2219 1900 2192 2015 
Q 2166 2131 2112 2214 
Q 2059 2297 1975 2342 
Q 1891 2388 1778 2388 
Q 1634 2388 1490 2278 
Q 1347 2169 1181 1959 
L 1181 106 
Q 1181 75 1162 51 
Q 1144 28 1098 12 
Q 1053 -3 978 -11 
Q 903 -19 788 -19 
Q 672 -19 597 -11 
Q 522 -3 476 12 
Q 431 28 412 51 
Q 394 75 394 106 
L 394 2894 
Q 394 2925 409 2948 
Q 425 2972 465 2987 
Q 506 3003 570 3011 
Q 634 3019 731 3019 
Q 831 3019 897 3011 
Q 963 3003 998 2987 
Q 1034 2972 1050 2948 
Q 1066 2925 1066 2894 
L 1066 2572 
Q 1297 2822 1526 2947 
Q 1756 3072 2006 3072 
Q 2178 3072 2315 3036 
Q 2453 3000 2561 2933 
Q 2669 2866 2747 2772 
Q 2825 2678 2878 2563 
Q 3003 2697 3123 2794 
Q 3244 2891 3361 2952 
Q 3478 3013 3595 3042 
Q 3713 3072 3834 3072 
Q 4113 3072 4303 2978 
Q 4494 2884 4611 2723 
Q 4728 2563 4778 2347 
Q 4828 2131 4828 1891 
L 4828 106 
z
" id="Calibri-Bold-6d" transform="scale(0.015625)"/>
      <path d="M 2769 97 
Q 2769 53 2737 28 
Q 2706 3 2639 -8 
Q 2572 -19 2441 -19 
Q 2300 -19 2236 -8 
Q 2172 3 2145 28 
Q 2119 53 2119 97 
L 2119 319 
Q 1947 134 1726 31 
Q 1506 -72 1238 -72 
Q 1016 -72 830 -14 
Q 644 44 508 158 
Q 372 272 297 440 
Q 222 609 222 834 
Q 222 1078 317 1258 
Q 413 1438 602 1555 
Q 791 1672 1072 1728 
Q 1353 1784 1725 1784 
L 1997 1784 
L 1997 1953 
Q 1997 2084 1970 2182 
Q 1944 2281 1883 2347 
Q 1822 2413 1720 2444 
Q 1619 2475 1469 2475 
Q 1272 2475 1117 2431 
Q 963 2388 844 2334 
Q 725 2281 645 2237 
Q 566 2194 516 2194 
Q 481 2194 454 2216 
Q 428 2238 411 2278 
Q 394 2319 384 2378 
Q 375 2438 375 2509 
Q 375 2606 390 2662 
Q 406 2719 450 2764 
Q 494 2809 603 2864 
Q 713 2919 859 2966 
Q 1006 3013 1179 3042 
Q 1353 3072 1538 3072 
Q 1866 3072 2098 3008 
Q 2331 2944 2481 2811 
Q 2631 2678 2700 2468 
Q 2769 2259 2769 1972 
L 2769 97 
z
M 1997 1291 
L 1697 1291 
Q 1506 1291 1372 1262 
Q 1238 1234 1153 1178 
Q 1069 1122 1030 1042 
Q 991 963 991 859 
Q 991 684 1102 584 
Q 1213 484 1409 484 
Q 1575 484 1714 568 
Q 1853 653 1997 816 
L 1997 1291 
z
" id="Calibri-Bold-61" transform="scale(0.015625)"/>
      <path d="M 2044 381 
Q 2044 244 2026 170 
Q 2009 97 1981 67 
Q 1953 38 1898 14 
Q 1844 -9 1770 -26 
Q 1697 -44 1611 -53 
Q 1525 -63 1438 -63 
Q 1203 -63 1031 -3 
Q 859 56 746 179 
Q 634 303 581 490 
Q 528 678 528 934 
L 528 2363 
L 194 2363 
Q 134 2363 103 2436 
Q 72 2509 72 2681 
Q 72 2772 80 2834 
Q 88 2897 103 2933 
Q 119 2969 142 2984 
Q 166 3000 197 3000 
L 528 3000 
L 528 3622 
Q 528 3653 545 3678 
Q 563 3703 608 3720 
Q 653 3738 729 3745 
Q 806 3753 919 3753 
Q 1034 3753 1111 3745 
Q 1188 3738 1231 3720 
Q 1275 3703 1294 3678 
Q 1313 3653 1313 3622 
L 1313 3000 
L 1919 3000 
Q 1950 3000 1973 2984 
Q 1997 2969 2012 2933 
Q 2028 2897 2036 2834 
Q 2044 2772 2044 2681 
Q 2044 2509 2012 2436 
Q 1981 2363 1922 2363 
L 1313 2363 
L 1313 1053 
Q 1313 825 1384 711 
Q 1456 597 1641 597 
Q 1703 597 1753 608 
Q 1803 619 1842 633 
Q 1881 647 1907 658 
Q 1934 669 1956 669 
Q 1975 669 1992 658 
Q 2009 647 2018 614 
Q 2028 581 2036 525 
Q 2044 469 2044 381 
z
" id="Calibri-Bold-74" transform="scale(0.015625)"/>
     </defs>
     <use xlink:href="#Calibri-Bold-41"/>
     <use x="60.595703" xlink:href="#Calibri-Bold-44"/>
     <use x="123.632812" xlink:href="#Calibri-Bold-43"/>
     <use x="176.5625" xlink:href="#Calibri-Bold-20"/>
     <use x="199.169922" xlink:href="#Calibri-Bold-50"/>
     <use x="252.392578" xlink:href="#Calibri-Bold-72"/>
     <use x="287.939453" xlink:href="#Calibri-Bold-65"/>
     <use x="338.28125" xlink:href="#Calibri-Bold-63"/>
     <use x="380.126953" xlink:href="#Calibri-Bold-69"/>
     <use x="404.6875" xlink:href="#Calibri-Bold-73"/>
     <use x="444.580078" xlink:href="#Calibri-Bold-69"/>
     <use x="469.140625" xlink:href="#Calibri-Bold-6f"/>
     <use x="522.900391" xlink:href="#Calibri-Bold-6e"/>
     <use x="576.5625" xlink:href="#Calibri-Bold-20"/>
     <use x="599.169922" xlink:href="#Calibri-Bold-76"/>
     <use x="646.484375" xlink:href="#Calibri-Bold-73"/>
     <use x="686.376953" xlink:href="#Calibri-Bold-2e"/>
     <use x="713.085938" xlink:href="#Calibri-Bold-20"/>
     <use x="735.693359" xlink:href="#Calibri-Bold-50"/>
     <use x="788.916016" xlink:href="#Calibri-Bold-72"/>
     <use x="824.462891" xlink:href="#Calibri-Bold-65"/>
     <use x="874.804688" xlink:href="#Calibri-Bold-2d"/>
     <use x="905.419922" xlink:href="#Calibri-Bold-41"/>
     <use x="966.015625" xlink:href="#Calibri-Bold-44"/>
     <use x="1029.052734" xlink:href="#Calibri-Bold-43"/>
     <use x="1081.982422" xlink:href="#Calibri-Bold-20"/>
     <use x="1104.589844" xlink:href="#Calibri-Bold-49"/>
     <use x="1131.25" xlink:href="#Calibri-Bold-6e"/>
     <use x="1184.912109" xlink:href="#Calibri-Bold-66"/>
     <use x="1216.552734" xlink:href="#Calibri-Bold-6f"/>
     <use x="1270.3125" xlink:href="#Calibri-Bold-72"/>
     <use x="1305.859375" xlink:href="#Calibri-Bold-6d"/>
     <use x="1387.207031" xlink:href="#Calibri-Bold-61"/>
     <use x="1436.572266" xlink:href="#Calibri-Bold-74"/>
     <use x="1471.240234" xlink:href="#Calibri-Bold-69"/>
     <use x="1495.800781" xlink:href="#Calibri-Bold-6f"/>
     <use x="1549.560547" xlink:href="#Calibri-Bold-6e"/>
     <use x="1603.222656" xlink:href="#Calibri-Bold-20"/>
     <use x="1625.830078" xlink:href="#Calibri-Bold-43"/>
     <use x="1678.759766" xlink:href="#Calibri-Bold-6f"/>
     <use x="1732.519531" xlink:href="#Calibri-Bold-6e"/>
     <use x="1786.181641" xlink:href="#Calibri-Bold-74"/>
     <use x="1820.849609" xlink:href="#Calibri-Bold-65"/>
     <use x="1871.191406" xlink:href="#Calibri-Bold-6e"/>
     <use x="1924.853516" xlink:href="#Calibri-Bold-74"/>
    </g>
   </g>
   <g id="legend_1">
    <g id="patch_7">
     <path d="M 517.08 493.824 
L 626.64 493.824 
Q 629.04 493.824 629.04 491.424 
L 629.04 309.4065 
Q 629.04 307.0065 626.64 307.0065 
L 517.08 307.0065 
Q 514.68 307.0065 514.68 309.4065 
L 514.68 491.424 
Q 514.68 493.824 517.08 493.824 
z
" style="fill:#ffffff;opacity:0.8;stroke:#cccccc;stroke-linejoin:miter;"/>
    </g>
    <g id="line2d_24">
     <path d="M 519.48 316.3665 
L 543.48 316.3665 
" style="fill:none;stroke:#000000;stroke-dasharray:5.55,2.4;stroke-dashoffset:0;stroke-width:1.5;"/>
    </g>
    <g id="line2d_25"/>
    <g id="text_15">
     <!-- $B_{ADC} = B_{I(col)}$ -->
     <g transform="translate(553.08 320.5665)scale(0.12 -0.12)">
      <defs>
       <path d="M 678 2906 
L 4684 2906 
L 4684 2381 
L 678 2381 
L 678 2906 
z
M 678 1631 
L 4684 1631 
L 4684 1100 
L 678 1100 
L 678 1631 
z
" id="DejaVuSans-3d" transform="scale(0.015625)"/>
      </defs>
      <use transform="translate(0 0.09375)" xlink:href="#DejaVuSans-Oblique-42"/>
      <use transform="translate(68.603516 -16.3125)scale(0.7)" xlink:href="#DejaVuSans-Oblique-41"/>
      <use transform="translate(116.489258 -16.3125)scale(0.7)" xlink:href="#DejaVuSans-Oblique-44"/>
      <use transform="translate(170.390625 -16.3125)scale(0.7)" xlink:href="#DejaVuSans-Oblique-43"/>
      <use transform="translate(241.484375 0.09375)" xlink:href="#DejaVuSans-3d"/>
      <use transform="translate(344.755859 0.09375)" xlink:href="#DejaVuSans-Oblique-42"/>
      <use transform="translate(413.359375 -16.3125)scale(0.7)" xlink:href="#DejaVuSans-Oblique-49"/>
      <use transform="translate(434.003906 -16.3125)scale(0.7)" xlink:href="#DejaVuSans-28"/>
      <use transform="translate(461.313477 -16.3125)scale(0.7)" xlink:href="#DejaVuSans-Oblique-63"/>
      <use transform="translate(499.799805 -16.3125)scale(0.7)" xlink:href="#DejaVuSans-Oblique-6f"/>
      <use transform="translate(542.626953 -16.3125)scale(0.7)" xlink:href="#DejaVuSans-Oblique-6c"/>
      <use transform="translate(562.075195 -16.3125)scale(0.7)" xlink:href="#DejaVuSans-29"/>
     </g>
    </g>
    <g id="PathCollection_11">
     <g>
      <use style="fill:#ff0000;stroke:#ff0000;" x="531.48" xlink:href="#mb1917cbc27" y="334.9365"/>
     </g>
    </g>
    <g id="text_16">
     <!-- 5nm -->
     <g transform="translate(553.08 338.0865)scale(0.12 -0.12)">
      <defs>
       <path d="M 2900 78 
Q 2900 53 2887 36 
Q 2875 19 2847 6 
Q 2819 -6 2769 -12 
Q 2719 -19 2644 -19 
Q 2566 -19 2516 -12 
Q 2466 -6 2437 6 
Q 2409 19 2396 36 
Q 2384 53 2384 78 
L 2384 1725 
Q 2384 1966 2346 2112 
Q 2309 2259 2237 2365 
Q 2166 2472 2052 2528 
Q 1938 2584 1788 2584 
Q 1594 2584 1400 2446 
Q 1206 2309 994 2044 
L 994 78 
Q 994 53 981 36 
Q 969 19 941 6 
Q 913 -6 863 -12 
Q 813 -19 734 -19 
Q 659 -19 609 -12 
Q 559 -6 529 6 
Q 500 19 489 36 
Q 478 53 478 78 
L 478 2891 
Q 478 2916 487 2933 
Q 497 2950 525 2964 
Q 553 2978 597 2983 
Q 641 2988 713 2988 
Q 781 2988 826 2983 
Q 872 2978 897 2964 
Q 922 2950 933 2933 
Q 944 2916 944 2891 
L 944 2519 
Q 1181 2784 1417 2907 
Q 1653 3031 1894 3031 
Q 2175 3031 2367 2936 
Q 2559 2841 2678 2681 
Q 2797 2522 2848 2308 
Q 2900 2094 2900 1794 
L 2900 78 
z
" id="Calibri-6e" transform="scale(0.015625)"/>
       <path d="M 4650 78 
Q 4650 53 4637 36 
Q 4625 19 4597 6 
Q 4569 -6 4519 -12 
Q 4469 -19 4394 -19 
Q 4316 -19 4266 -12 
Q 4216 -6 4186 6 
Q 4156 19 4143 36 
Q 4131 53 4131 78 
L 4131 1788 
Q 4131 1966 4100 2112 
Q 4069 2259 4000 2365 
Q 3931 2472 3825 2528 
Q 3719 2584 3575 2584 
Q 3397 2584 3217 2446 
Q 3038 2309 2822 2044 
L 2822 78 
Q 2822 53 2809 36 
Q 2797 19 2767 6 
Q 2738 -6 2688 -12 
Q 2638 -19 2563 -19 
Q 2491 -19 2439 -12 
Q 2388 -6 2358 6 
Q 2328 19 2317 36 
Q 2306 53 2306 78 
L 2306 1788 
Q 2306 1966 2272 2112 
Q 2238 2259 2169 2365 
Q 2100 2472 1995 2528 
Q 1891 2584 1747 2584 
Q 1569 2584 1387 2446 
Q 1206 2309 994 2044 
L 994 78 
Q 994 53 981 36 
Q 969 19 941 6 
Q 913 -6 863 -12 
Q 813 -19 734 -19 
Q 659 -19 609 -12 
Q 559 -6 529 6 
Q 500 19 489 36 
Q 478 53 478 78 
L 478 2891 
Q 478 2916 487 2933 
Q 497 2950 525 2964 
Q 553 2978 597 2983 
Q 641 2988 713 2988 
Q 781 2988 826 2983 
Q 872 2978 897 2964 
Q 922 2950 933 2933 
Q 944 2916 944 2891 
L 944 2519 
Q 1181 2784 1404 2907 
Q 1628 3031 1856 3031 
Q 2031 3031 2170 2990 
Q 2309 2950 2415 2876 
Q 2522 2803 2597 2701 
Q 2672 2600 2722 2475 
Q 2863 2628 2989 2734 
Q 3116 2841 3233 2906 
Q 3350 2972 3461 3001 
Q 3572 3031 3684 3031 
Q 3956 3031 4140 2936 
Q 4325 2841 4439 2681 
Q 4553 2522 4601 2308 
Q 4650 2094 4650 1856 
L 4650 78 
z
" id="Calibri-6d" transform="scale(0.015625)"/>
      </defs>
      <use xlink:href="#Calibri-35"/>
      <use x="50.683594" xlink:href="#Calibri-6e"/>
      <use x="103.222656" xlink:href="#Calibri-6d"/>
     </g>
    </g>
    <g id="PathCollection_12">
     <g>
      <use style="fill:#ff0000;stroke:#ff0000;" x="531.48" xlink:href="#m18f4ecbdeb" y="351.47025"/>
     </g>
    </g>
    <g id="text_17">
     <!-- 7nm -->
     <g transform="translate(553.08 354.62025)scale(0.12 -0.12)">
      <defs>
       <path d="M 2947 3813 
Q 2947 3756 2942 3711 
Q 2938 3666 2930 3623 
Q 2922 3581 2908 3542 
Q 2894 3503 2875 3459 
L 1419 103 
Q 1403 66 1379 42 
Q 1356 19 1320 5 
Q 1284 -9 1228 -14 
Q 1172 -19 1091 -19 
Q 984 -19 925 -9 
Q 866 0 839 20 
Q 813 41 816 70 
Q 819 100 838 141 
L 2369 3572 
L 428 3572 
Q 369 3572 339 3634 
Q 309 3697 309 3809 
Q 309 3869 317 3912 
Q 325 3956 340 3986 
Q 356 4016 378 4030 
Q 400 4044 428 4044 
L 2784 4044 
Q 2828 4044 2861 4034 
Q 2894 4025 2911 3997 
Q 2928 3969 2937 3925 
Q 2947 3881 2947 3813 
z
" id="Calibri-37" transform="scale(0.015625)"/>
      </defs>
      <use xlink:href="#Calibri-37"/>
      <use x="50.683594" xlink:href="#Calibri-6e"/>
      <use x="103.222656" xlink:href="#Calibri-6d"/>
     </g>
    </g>
    <g id="PathCollection_13">
     <g>
      <use style="fill:#7cfc00;stroke:#7cfc00;" x="531.48" xlink:href="#m6f29bfdf80" y="368.004"/>
     </g>
    </g>
    <g id="text_18">
     <!-- 12nm -->
     <g transform="translate(553.08 371.154)scale(0.12 -0.12)">
      <use xlink:href="#Calibri-31"/>
      <use x="50.683594" xlink:href="#Calibri-32"/>
      <use x="101.367188" xlink:href="#Calibri-6e"/>
      <use x="153.90625" xlink:href="#Calibri-6d"/>
     </g>
    </g>
    <g id="PathCollection_14">
     <g>
      <use style="fill:#7cfc00;stroke:#7cfc00;" x="531.48" xlink:href="#me1b4f81658" y="384.53775"/>
     </g>
    </g>
    <g id="text_19">
     <!-- 16nm -->
     <g transform="translate(553.08 387.68775)scale(0.12 -0.12)">
      <use xlink:href="#Calibri-31"/>
      <use x="50.683594" xlink:href="#Calibri-36"/>
      <use x="101.367188" xlink:href="#Calibri-6e"/>
      <use x="153.90625" xlink:href="#Calibri-6d"/>
     </g>
    </g>
    <g id="PathCollection_15">
     <g>
      <use style="fill:#0000ff;stroke:#0000ff;" x="531.48" xlink:href="#mc6a10d696b" y="401.0715"/>
     </g>
    </g>
    <g id="text_20">
     <!-- 22nm -->
     <g transform="translate(553.08 404.2215)scale(0.12 -0.12)">
      <use xlink:href="#Calibri-32"/>
      <use x="50.683594" xlink:href="#Calibri-32"/>
      <use x="101.367188" xlink:href="#Calibri-6e"/>
      <use x="153.90625" xlink:href="#Calibri-6d"/>
     </g>
    </g>
    <g id="PathCollection_16">
     <g>
      <use style="fill:#0000ff;stroke:#0000ff;" x="531.48" xlink:href="#m4c8322e727" y="417.60525"/>
     </g>
    </g>
    <g id="text_21">
     <!-- 28nm -->
     <g transform="translate(553.08 420.75525)scale(0.12 -0.12)">
      <use xlink:href="#Calibri-32"/>
      <use x="50.683594" xlink:href="#Calibri-38"/>
      <use x="101.367188" xlink:href="#Calibri-6e"/>
      <use x="153.90625" xlink:href="#Calibri-6d"/>
     </g>
    </g>
    <g id="PathCollection_17">
     <g>
      <use style="fill:#00ffff;stroke:#00ffff;" x="531.48" xlink:href="#m50821e8835" y="434.139"/>
     </g>
    </g>
    <g id="text_22">
     <!-- 45nm -->
     <g transform="translate(553.08 437.289)scale(0.12 -0.12)">
      <use xlink:href="#Calibri-34"/>
      <use x="50.683594" xlink:href="#Calibri-35"/>
      <use x="101.367188" xlink:href="#Calibri-6e"/>
      <use x="153.90625" xlink:href="#Calibri-6d"/>
     </g>
    </g>
    <g id="PathCollection_18">
     <g>
      <use style="fill:#00ffff;stroke:#00ffff;" x="531.48" xlink:href="#m3382e15b4e" y="450.67275"/>
     </g>
    </g>
    <g id="text_23">
     <!-- 55nm -->
     <g transform="translate(553.08 453.82275)scale(0.12 -0.12)">
      <use xlink:href="#Calibri-35"/>
      <use x="50.683594" xlink:href="#Calibri-35"/>
      <use x="101.367188" xlink:href="#Calibri-6e"/>
      <use x="153.90625" xlink:href="#Calibri-6d"/>
     </g>
    </g>
    <g id="PathCollection_19">
     <g>
      <use style="stroke:#000000;" x="531.48" xlink:href="#m3f44d3d6ed" y="467.2065"/>
     </g>
    </g>
    <g id="text_24">
     <!-- 65nm -->
     <g transform="translate(553.08 470.3565)scale(0.12 -0.12)">
      <use xlink:href="#Calibri-36"/>
      <use x="50.683594" xlink:href="#Calibri-35"/>
      <use x="101.367188" xlink:href="#Calibri-6e"/>
      <use x="153.90625" xlink:href="#Calibri-6d"/>
     </g>
    </g>
    <g id="PathCollection_20">
     <g>
      <use style="stroke:#000000;" x="531.48" xlink:href="#m311c208b90" y="483.74025"/>
     </g>
    </g>
    <g id="text_25">
     <!-- 180nm -->
     <g transform="translate(553.08 486.89025)scale(0.12 -0.12)">
      <use xlink:href="#Calibri-31"/>
      <use x="50.683594" xlink:href="#Calibri-38"/>
      <use x="101.367188" xlink:href="#Calibri-30"/>
      <use x="152.050781" xlink:href="#Calibri-6e"/>
      <use x="204.589844" xlink:href="#Calibri-6d"/>
     </g>
    </g>
   </g>
  </g>
 </g>
 <defs>
  <clipPath id="p0fd0b71814">
   <rect height="432.432" width="546.84" x="88.2" y="67.392"/>
  </clipPath>
 </defs>
</svg>
